G04 #@! TF.GenerationSoftware,KiCad,Pcbnew,(6.0.0-rc1-dev-205-gc0615c5ef)*
G04 #@! TF.CreationDate,2019-09-04T07:24:19+02:00*
G04 #@! TF.ProjectId,LT3483,4C54333438332E6B696361645F706362,v01*
G04 #@! TF.SameCoordinates,Original*
G04 #@! TF.FileFunction,Copper,L1,Top,Signal*
G04 #@! TF.FilePolarity,Positive*
%FSLAX46Y46*%
G04 Gerber Fmt 4.6, Leading zero omitted, Abs format (unit mm)*
G04 Created by KiCad (PCBNEW (6.0.0-rc1-dev-205-gc0615c5ef)) date 09/04/19 07:24:19*
%MOMM*%
%LPD*%
G01*
G04 APERTURE LIST*
G04 #@! TA.AperFunction,SMDPad,CuDef*
%ADD10R,0.900000X1.000000*%
G04 #@! TD*
G04 #@! TA.AperFunction,SMDPad,CuDef*
%ADD11R,1.200000X0.900000*%
G04 #@! TD*
G04 #@! TA.AperFunction,SMDPad,CuDef*
%ADD12R,1.220000X0.650000*%
G04 #@! TD*
G04 #@! TA.AperFunction,Conductor*
%ADD13C,0.100000*%
G04 #@! TD*
G04 #@! TA.AperFunction,SMDPad,CuDef*
%ADD14C,0.975000*%
G04 #@! TD*
G04 #@! TA.AperFunction,ComponentPad*
%ADD15C,6.000000*%
G04 #@! TD*
G04 #@! TA.AperFunction,ComponentPad*
%ADD16R,1.700000X1.700000*%
G04 #@! TD*
G04 #@! TA.AperFunction,ComponentPad*
%ADD17O,1.700000X1.700000*%
G04 #@! TD*
G04 #@! TA.AperFunction,ViaPad*
%ADD18C,0.800000*%
G04 #@! TD*
G04 #@! TA.AperFunction,Conductor*
%ADD19C,0.500000*%
G04 #@! TD*
G04 #@! TA.AperFunction,Conductor*
%ADD20C,0.700000*%
G04 #@! TD*
G04 #@! TA.AperFunction,Conductor*
%ADD21C,0.300000*%
G04 #@! TD*
G04 #@! TA.AperFunction,Conductor*
%ADD22C,0.254000*%
G04 #@! TD*
G04 APERTURE END LIST*
D10*
G04 #@! TO.P,L1,1*
G04 #@! TO.N,Net-(C1-Pad2)*
X178269000Y-107315000D03*
G04 #@! TO.P,L1,2*
G04 #@! TO.N,Net-(C3-Pad1)*
X176569000Y-107315000D03*
G04 #@! TD*
D11*
G04 #@! TO.P,D1,1*
G04 #@! TO.N,Net-(C3-Pad2)*
X184658000Y-112142000D03*
G04 #@! TO.P,D1,2*
G04 #@! TO.N,Net-(D1-Pad2)*
X184658000Y-115442000D03*
G04 #@! TD*
D12*
G04 #@! TO.P,U1,1*
G04 #@! TO.N,Net-(C3-Pad1)*
X175728000Y-111318000D03*
G04 #@! TO.P,U1,2*
G04 #@! TO.N,GND*
X175728000Y-112268000D03*
G04 #@! TO.P,U1,3*
G04 #@! TO.N,Net-(C4-Pad2)*
X175728000Y-113218000D03*
G04 #@! TO.P,U1,4*
G04 #@! TO.N,Net-(C1-Pad2)*
X178348000Y-113218000D03*
G04 #@! TO.P,U1,5*
G04 #@! TO.N,Net-(C3-Pad2)*
X178348000Y-112268000D03*
G04 #@! TO.P,U1,6*
G04 #@! TO.N,Net-(C1-Pad2)*
X178348000Y-111318000D03*
G04 #@! TD*
D13*
G04 #@! TO.N,Net-(C4-Pad1)*
G04 #@! TO.C,C4*
G36*
X173962142Y-114575674D02*
X173985803Y-114579184D01*
X174009007Y-114584996D01*
X174031529Y-114593054D01*
X174053153Y-114603282D01*
X174073670Y-114615579D01*
X174092883Y-114629829D01*
X174110607Y-114645893D01*
X174126671Y-114663617D01*
X174140921Y-114682830D01*
X174153218Y-114703347D01*
X174163446Y-114724971D01*
X174171504Y-114747493D01*
X174177316Y-114770697D01*
X174180826Y-114794358D01*
X174182000Y-114818250D01*
X174182000Y-115305750D01*
X174180826Y-115329642D01*
X174177316Y-115353303D01*
X174171504Y-115376507D01*
X174163446Y-115399029D01*
X174153218Y-115420653D01*
X174140921Y-115441170D01*
X174126671Y-115460383D01*
X174110607Y-115478107D01*
X174092883Y-115494171D01*
X174073670Y-115508421D01*
X174053153Y-115520718D01*
X174031529Y-115530946D01*
X174009007Y-115539004D01*
X173985803Y-115544816D01*
X173962142Y-115548326D01*
X173938250Y-115549500D01*
X173025750Y-115549500D01*
X173001858Y-115548326D01*
X172978197Y-115544816D01*
X172954993Y-115539004D01*
X172932471Y-115530946D01*
X172910847Y-115520718D01*
X172890330Y-115508421D01*
X172871117Y-115494171D01*
X172853393Y-115478107D01*
X172837329Y-115460383D01*
X172823079Y-115441170D01*
X172810782Y-115420653D01*
X172800554Y-115399029D01*
X172792496Y-115376507D01*
X172786684Y-115353303D01*
X172783174Y-115329642D01*
X172782000Y-115305750D01*
X172782000Y-114818250D01*
X172783174Y-114794358D01*
X172786684Y-114770697D01*
X172792496Y-114747493D01*
X172800554Y-114724971D01*
X172810782Y-114703347D01*
X172823079Y-114682830D01*
X172837329Y-114663617D01*
X172853393Y-114645893D01*
X172871117Y-114629829D01*
X172890330Y-114615579D01*
X172910847Y-114603282D01*
X172932471Y-114593054D01*
X172954993Y-114584996D01*
X172978197Y-114579184D01*
X173001858Y-114575674D01*
X173025750Y-114574500D01*
X173938250Y-114574500D01*
X173962142Y-114575674D01*
X173962142Y-114575674D01*
G37*
D14*
G04 #@! TD*
G04 #@! TO.P,C4,1*
G04 #@! TO.N,Net-(C4-Pad1)*
X173482000Y-115062000D03*
D13*
G04 #@! TO.N,Net-(C4-Pad2)*
G04 #@! TO.C,C4*
G36*
X173962142Y-112700674D02*
X173985803Y-112704184D01*
X174009007Y-112709996D01*
X174031529Y-112718054D01*
X174053153Y-112728282D01*
X174073670Y-112740579D01*
X174092883Y-112754829D01*
X174110607Y-112770893D01*
X174126671Y-112788617D01*
X174140921Y-112807830D01*
X174153218Y-112828347D01*
X174163446Y-112849971D01*
X174171504Y-112872493D01*
X174177316Y-112895697D01*
X174180826Y-112919358D01*
X174182000Y-112943250D01*
X174182000Y-113430750D01*
X174180826Y-113454642D01*
X174177316Y-113478303D01*
X174171504Y-113501507D01*
X174163446Y-113524029D01*
X174153218Y-113545653D01*
X174140921Y-113566170D01*
X174126671Y-113585383D01*
X174110607Y-113603107D01*
X174092883Y-113619171D01*
X174073670Y-113633421D01*
X174053153Y-113645718D01*
X174031529Y-113655946D01*
X174009007Y-113664004D01*
X173985803Y-113669816D01*
X173962142Y-113673326D01*
X173938250Y-113674500D01*
X173025750Y-113674500D01*
X173001858Y-113673326D01*
X172978197Y-113669816D01*
X172954993Y-113664004D01*
X172932471Y-113655946D01*
X172910847Y-113645718D01*
X172890330Y-113633421D01*
X172871117Y-113619171D01*
X172853393Y-113603107D01*
X172837329Y-113585383D01*
X172823079Y-113566170D01*
X172810782Y-113545653D01*
X172800554Y-113524029D01*
X172792496Y-113501507D01*
X172786684Y-113478303D01*
X172783174Y-113454642D01*
X172782000Y-113430750D01*
X172782000Y-112943250D01*
X172783174Y-112919358D01*
X172786684Y-112895697D01*
X172792496Y-112872493D01*
X172800554Y-112849971D01*
X172810782Y-112828347D01*
X172823079Y-112807830D01*
X172837329Y-112788617D01*
X172853393Y-112770893D01*
X172871117Y-112754829D01*
X172890330Y-112740579D01*
X172910847Y-112728282D01*
X172932471Y-112718054D01*
X172954993Y-112709996D01*
X172978197Y-112704184D01*
X173001858Y-112700674D01*
X173025750Y-112699500D01*
X173938250Y-112699500D01*
X173962142Y-112700674D01*
X173962142Y-112700674D01*
G37*
D14*
G04 #@! TD*
G04 #@! TO.P,C4,2*
G04 #@! TO.N,Net-(C4-Pad2)*
X173482000Y-113187000D03*
D13*
G04 #@! TO.N,Net-(C1-Pad2)*
G04 #@! TO.C,C2*
G36*
X179543142Y-104584174D02*
X179566803Y-104587684D01*
X179590007Y-104593496D01*
X179612529Y-104601554D01*
X179634153Y-104611782D01*
X179654670Y-104624079D01*
X179673883Y-104638329D01*
X179691607Y-104654393D01*
X179707671Y-104672117D01*
X179721921Y-104691330D01*
X179734218Y-104711847D01*
X179744446Y-104733471D01*
X179752504Y-104755993D01*
X179758316Y-104779197D01*
X179761826Y-104802858D01*
X179763000Y-104826750D01*
X179763000Y-105739250D01*
X179761826Y-105763142D01*
X179758316Y-105786803D01*
X179752504Y-105810007D01*
X179744446Y-105832529D01*
X179734218Y-105854153D01*
X179721921Y-105874670D01*
X179707671Y-105893883D01*
X179691607Y-105911607D01*
X179673883Y-105927671D01*
X179654670Y-105941921D01*
X179634153Y-105954218D01*
X179612529Y-105964446D01*
X179590007Y-105972504D01*
X179566803Y-105978316D01*
X179543142Y-105981826D01*
X179519250Y-105983000D01*
X179031750Y-105983000D01*
X179007858Y-105981826D01*
X178984197Y-105978316D01*
X178960993Y-105972504D01*
X178938471Y-105964446D01*
X178916847Y-105954218D01*
X178896330Y-105941921D01*
X178877117Y-105927671D01*
X178859393Y-105911607D01*
X178843329Y-105893883D01*
X178829079Y-105874670D01*
X178816782Y-105854153D01*
X178806554Y-105832529D01*
X178798496Y-105810007D01*
X178792684Y-105786803D01*
X178789174Y-105763142D01*
X178788000Y-105739250D01*
X178788000Y-104826750D01*
X178789174Y-104802858D01*
X178792684Y-104779197D01*
X178798496Y-104755993D01*
X178806554Y-104733471D01*
X178816782Y-104711847D01*
X178829079Y-104691330D01*
X178843329Y-104672117D01*
X178859393Y-104654393D01*
X178877117Y-104638329D01*
X178896330Y-104624079D01*
X178916847Y-104611782D01*
X178938471Y-104601554D01*
X178960993Y-104593496D01*
X178984197Y-104587684D01*
X179007858Y-104584174D01*
X179031750Y-104583000D01*
X179519250Y-104583000D01*
X179543142Y-104584174D01*
X179543142Y-104584174D01*
G37*
D14*
G04 #@! TD*
G04 #@! TO.P,C2,2*
G04 #@! TO.N,Net-(C1-Pad2)*
X179275500Y-105283000D03*
D13*
G04 #@! TO.N,GND*
G04 #@! TO.C,C2*
G36*
X181418142Y-104584174D02*
X181441803Y-104587684D01*
X181465007Y-104593496D01*
X181487529Y-104601554D01*
X181509153Y-104611782D01*
X181529670Y-104624079D01*
X181548883Y-104638329D01*
X181566607Y-104654393D01*
X181582671Y-104672117D01*
X181596921Y-104691330D01*
X181609218Y-104711847D01*
X181619446Y-104733471D01*
X181627504Y-104755993D01*
X181633316Y-104779197D01*
X181636826Y-104802858D01*
X181638000Y-104826750D01*
X181638000Y-105739250D01*
X181636826Y-105763142D01*
X181633316Y-105786803D01*
X181627504Y-105810007D01*
X181619446Y-105832529D01*
X181609218Y-105854153D01*
X181596921Y-105874670D01*
X181582671Y-105893883D01*
X181566607Y-105911607D01*
X181548883Y-105927671D01*
X181529670Y-105941921D01*
X181509153Y-105954218D01*
X181487529Y-105964446D01*
X181465007Y-105972504D01*
X181441803Y-105978316D01*
X181418142Y-105981826D01*
X181394250Y-105983000D01*
X180906750Y-105983000D01*
X180882858Y-105981826D01*
X180859197Y-105978316D01*
X180835993Y-105972504D01*
X180813471Y-105964446D01*
X180791847Y-105954218D01*
X180771330Y-105941921D01*
X180752117Y-105927671D01*
X180734393Y-105911607D01*
X180718329Y-105893883D01*
X180704079Y-105874670D01*
X180691782Y-105854153D01*
X180681554Y-105832529D01*
X180673496Y-105810007D01*
X180667684Y-105786803D01*
X180664174Y-105763142D01*
X180663000Y-105739250D01*
X180663000Y-104826750D01*
X180664174Y-104802858D01*
X180667684Y-104779197D01*
X180673496Y-104755993D01*
X180681554Y-104733471D01*
X180691782Y-104711847D01*
X180704079Y-104691330D01*
X180718329Y-104672117D01*
X180734393Y-104654393D01*
X180752117Y-104638329D01*
X180771330Y-104624079D01*
X180791847Y-104611782D01*
X180813471Y-104601554D01*
X180835993Y-104593496D01*
X180859197Y-104587684D01*
X180882858Y-104584174D01*
X180906750Y-104583000D01*
X181394250Y-104583000D01*
X181418142Y-104584174D01*
X181418142Y-104584174D01*
G37*
D14*
G04 #@! TD*
G04 #@! TO.P,C2,1*
G04 #@! TO.N,GND*
X181150500Y-105283000D03*
D13*
G04 #@! TO.N,Net-(C7-Pad1)*
G04 #@! TO.C,C7*
G36*
X180178142Y-116649174D02*
X180201803Y-116652684D01*
X180225007Y-116658496D01*
X180247529Y-116666554D01*
X180269153Y-116676782D01*
X180289670Y-116689079D01*
X180308883Y-116703329D01*
X180326607Y-116719393D01*
X180342671Y-116737117D01*
X180356921Y-116756330D01*
X180369218Y-116776847D01*
X180379446Y-116798471D01*
X180387504Y-116820993D01*
X180393316Y-116844197D01*
X180396826Y-116867858D01*
X180398000Y-116891750D01*
X180398000Y-117804250D01*
X180396826Y-117828142D01*
X180393316Y-117851803D01*
X180387504Y-117875007D01*
X180379446Y-117897529D01*
X180369218Y-117919153D01*
X180356921Y-117939670D01*
X180342671Y-117958883D01*
X180326607Y-117976607D01*
X180308883Y-117992671D01*
X180289670Y-118006921D01*
X180269153Y-118019218D01*
X180247529Y-118029446D01*
X180225007Y-118037504D01*
X180201803Y-118043316D01*
X180178142Y-118046826D01*
X180154250Y-118048000D01*
X179666750Y-118048000D01*
X179642858Y-118046826D01*
X179619197Y-118043316D01*
X179595993Y-118037504D01*
X179573471Y-118029446D01*
X179551847Y-118019218D01*
X179531330Y-118006921D01*
X179512117Y-117992671D01*
X179494393Y-117976607D01*
X179478329Y-117958883D01*
X179464079Y-117939670D01*
X179451782Y-117919153D01*
X179441554Y-117897529D01*
X179433496Y-117875007D01*
X179427684Y-117851803D01*
X179424174Y-117828142D01*
X179423000Y-117804250D01*
X179423000Y-116891750D01*
X179424174Y-116867858D01*
X179427684Y-116844197D01*
X179433496Y-116820993D01*
X179441554Y-116798471D01*
X179451782Y-116776847D01*
X179464079Y-116756330D01*
X179478329Y-116737117D01*
X179494393Y-116719393D01*
X179512117Y-116703329D01*
X179531330Y-116689079D01*
X179551847Y-116676782D01*
X179573471Y-116666554D01*
X179595993Y-116658496D01*
X179619197Y-116652684D01*
X179642858Y-116649174D01*
X179666750Y-116648000D01*
X180154250Y-116648000D01*
X180178142Y-116649174D01*
X180178142Y-116649174D01*
G37*
D14*
G04 #@! TD*
G04 #@! TO.P,C7,1*
G04 #@! TO.N,Net-(C7-Pad1)*
X179910500Y-117348000D03*
D13*
G04 #@! TO.N,GND*
G04 #@! TO.C,C7*
G36*
X182053142Y-116649174D02*
X182076803Y-116652684D01*
X182100007Y-116658496D01*
X182122529Y-116666554D01*
X182144153Y-116676782D01*
X182164670Y-116689079D01*
X182183883Y-116703329D01*
X182201607Y-116719393D01*
X182217671Y-116737117D01*
X182231921Y-116756330D01*
X182244218Y-116776847D01*
X182254446Y-116798471D01*
X182262504Y-116820993D01*
X182268316Y-116844197D01*
X182271826Y-116867858D01*
X182273000Y-116891750D01*
X182273000Y-117804250D01*
X182271826Y-117828142D01*
X182268316Y-117851803D01*
X182262504Y-117875007D01*
X182254446Y-117897529D01*
X182244218Y-117919153D01*
X182231921Y-117939670D01*
X182217671Y-117958883D01*
X182201607Y-117976607D01*
X182183883Y-117992671D01*
X182164670Y-118006921D01*
X182144153Y-118019218D01*
X182122529Y-118029446D01*
X182100007Y-118037504D01*
X182076803Y-118043316D01*
X182053142Y-118046826D01*
X182029250Y-118048000D01*
X181541750Y-118048000D01*
X181517858Y-118046826D01*
X181494197Y-118043316D01*
X181470993Y-118037504D01*
X181448471Y-118029446D01*
X181426847Y-118019218D01*
X181406330Y-118006921D01*
X181387117Y-117992671D01*
X181369393Y-117976607D01*
X181353329Y-117958883D01*
X181339079Y-117939670D01*
X181326782Y-117919153D01*
X181316554Y-117897529D01*
X181308496Y-117875007D01*
X181302684Y-117851803D01*
X181299174Y-117828142D01*
X181298000Y-117804250D01*
X181298000Y-116891750D01*
X181299174Y-116867858D01*
X181302684Y-116844197D01*
X181308496Y-116820993D01*
X181316554Y-116798471D01*
X181326782Y-116776847D01*
X181339079Y-116756330D01*
X181353329Y-116737117D01*
X181369393Y-116719393D01*
X181387117Y-116703329D01*
X181406330Y-116689079D01*
X181426847Y-116676782D01*
X181448471Y-116666554D01*
X181470993Y-116658496D01*
X181494197Y-116652684D01*
X181517858Y-116649174D01*
X181541750Y-116648000D01*
X182029250Y-116648000D01*
X182053142Y-116649174D01*
X182053142Y-116649174D01*
G37*
D14*
G04 #@! TD*
G04 #@! TO.P,C7,2*
G04 #@! TO.N,GND*
X181785500Y-117348000D03*
D13*
G04 #@! TO.N,GND*
G04 #@! TO.C,C6*
G36*
X171796142Y-118427174D02*
X171819803Y-118430684D01*
X171843007Y-118436496D01*
X171865529Y-118444554D01*
X171887153Y-118454782D01*
X171907670Y-118467079D01*
X171926883Y-118481329D01*
X171944607Y-118497393D01*
X171960671Y-118515117D01*
X171974921Y-118534330D01*
X171987218Y-118554847D01*
X171997446Y-118576471D01*
X172005504Y-118598993D01*
X172011316Y-118622197D01*
X172014826Y-118645858D01*
X172016000Y-118669750D01*
X172016000Y-119582250D01*
X172014826Y-119606142D01*
X172011316Y-119629803D01*
X172005504Y-119653007D01*
X171997446Y-119675529D01*
X171987218Y-119697153D01*
X171974921Y-119717670D01*
X171960671Y-119736883D01*
X171944607Y-119754607D01*
X171926883Y-119770671D01*
X171907670Y-119784921D01*
X171887153Y-119797218D01*
X171865529Y-119807446D01*
X171843007Y-119815504D01*
X171819803Y-119821316D01*
X171796142Y-119824826D01*
X171772250Y-119826000D01*
X171284750Y-119826000D01*
X171260858Y-119824826D01*
X171237197Y-119821316D01*
X171213993Y-119815504D01*
X171191471Y-119807446D01*
X171169847Y-119797218D01*
X171149330Y-119784921D01*
X171130117Y-119770671D01*
X171112393Y-119754607D01*
X171096329Y-119736883D01*
X171082079Y-119717670D01*
X171069782Y-119697153D01*
X171059554Y-119675529D01*
X171051496Y-119653007D01*
X171045684Y-119629803D01*
X171042174Y-119606142D01*
X171041000Y-119582250D01*
X171041000Y-118669750D01*
X171042174Y-118645858D01*
X171045684Y-118622197D01*
X171051496Y-118598993D01*
X171059554Y-118576471D01*
X171069782Y-118554847D01*
X171082079Y-118534330D01*
X171096329Y-118515117D01*
X171112393Y-118497393D01*
X171130117Y-118481329D01*
X171149330Y-118467079D01*
X171169847Y-118454782D01*
X171191471Y-118444554D01*
X171213993Y-118436496D01*
X171237197Y-118430684D01*
X171260858Y-118427174D01*
X171284750Y-118426000D01*
X171772250Y-118426000D01*
X171796142Y-118427174D01*
X171796142Y-118427174D01*
G37*
D14*
G04 #@! TD*
G04 #@! TO.P,C6,2*
G04 #@! TO.N,GND*
X171528500Y-119126000D03*
D13*
G04 #@! TO.N,Net-(C4-Pad1)*
G04 #@! TO.C,C6*
G36*
X173671142Y-118427174D02*
X173694803Y-118430684D01*
X173718007Y-118436496D01*
X173740529Y-118444554D01*
X173762153Y-118454782D01*
X173782670Y-118467079D01*
X173801883Y-118481329D01*
X173819607Y-118497393D01*
X173835671Y-118515117D01*
X173849921Y-118534330D01*
X173862218Y-118554847D01*
X173872446Y-118576471D01*
X173880504Y-118598993D01*
X173886316Y-118622197D01*
X173889826Y-118645858D01*
X173891000Y-118669750D01*
X173891000Y-119582250D01*
X173889826Y-119606142D01*
X173886316Y-119629803D01*
X173880504Y-119653007D01*
X173872446Y-119675529D01*
X173862218Y-119697153D01*
X173849921Y-119717670D01*
X173835671Y-119736883D01*
X173819607Y-119754607D01*
X173801883Y-119770671D01*
X173782670Y-119784921D01*
X173762153Y-119797218D01*
X173740529Y-119807446D01*
X173718007Y-119815504D01*
X173694803Y-119821316D01*
X173671142Y-119824826D01*
X173647250Y-119826000D01*
X173159750Y-119826000D01*
X173135858Y-119824826D01*
X173112197Y-119821316D01*
X173088993Y-119815504D01*
X173066471Y-119807446D01*
X173044847Y-119797218D01*
X173024330Y-119784921D01*
X173005117Y-119770671D01*
X172987393Y-119754607D01*
X172971329Y-119736883D01*
X172957079Y-119717670D01*
X172944782Y-119697153D01*
X172934554Y-119675529D01*
X172926496Y-119653007D01*
X172920684Y-119629803D01*
X172917174Y-119606142D01*
X172916000Y-119582250D01*
X172916000Y-118669750D01*
X172917174Y-118645858D01*
X172920684Y-118622197D01*
X172926496Y-118598993D01*
X172934554Y-118576471D01*
X172944782Y-118554847D01*
X172957079Y-118534330D01*
X172971329Y-118515117D01*
X172987393Y-118497393D01*
X173005117Y-118481329D01*
X173024330Y-118467079D01*
X173044847Y-118454782D01*
X173066471Y-118444554D01*
X173088993Y-118436496D01*
X173112197Y-118430684D01*
X173135858Y-118427174D01*
X173159750Y-118426000D01*
X173647250Y-118426000D01*
X173671142Y-118427174D01*
X173671142Y-118427174D01*
G37*
D14*
G04 #@! TD*
G04 #@! TO.P,C6,1*
G04 #@! TO.N,Net-(C4-Pad1)*
X173403500Y-119126000D03*
D13*
G04 #@! TO.N,Net-(C4-Pad1)*
G04 #@! TO.C,R3*
G36*
X175860142Y-118427174D02*
X175883803Y-118430684D01*
X175907007Y-118436496D01*
X175929529Y-118444554D01*
X175951153Y-118454782D01*
X175971670Y-118467079D01*
X175990883Y-118481329D01*
X176008607Y-118497393D01*
X176024671Y-118515117D01*
X176038921Y-118534330D01*
X176051218Y-118554847D01*
X176061446Y-118576471D01*
X176069504Y-118598993D01*
X176075316Y-118622197D01*
X176078826Y-118645858D01*
X176080000Y-118669750D01*
X176080000Y-119582250D01*
X176078826Y-119606142D01*
X176075316Y-119629803D01*
X176069504Y-119653007D01*
X176061446Y-119675529D01*
X176051218Y-119697153D01*
X176038921Y-119717670D01*
X176024671Y-119736883D01*
X176008607Y-119754607D01*
X175990883Y-119770671D01*
X175971670Y-119784921D01*
X175951153Y-119797218D01*
X175929529Y-119807446D01*
X175907007Y-119815504D01*
X175883803Y-119821316D01*
X175860142Y-119824826D01*
X175836250Y-119826000D01*
X175348750Y-119826000D01*
X175324858Y-119824826D01*
X175301197Y-119821316D01*
X175277993Y-119815504D01*
X175255471Y-119807446D01*
X175233847Y-119797218D01*
X175213330Y-119784921D01*
X175194117Y-119770671D01*
X175176393Y-119754607D01*
X175160329Y-119736883D01*
X175146079Y-119717670D01*
X175133782Y-119697153D01*
X175123554Y-119675529D01*
X175115496Y-119653007D01*
X175109684Y-119629803D01*
X175106174Y-119606142D01*
X175105000Y-119582250D01*
X175105000Y-118669750D01*
X175106174Y-118645858D01*
X175109684Y-118622197D01*
X175115496Y-118598993D01*
X175123554Y-118576471D01*
X175133782Y-118554847D01*
X175146079Y-118534330D01*
X175160329Y-118515117D01*
X175176393Y-118497393D01*
X175194117Y-118481329D01*
X175213330Y-118467079D01*
X175233847Y-118454782D01*
X175255471Y-118444554D01*
X175277993Y-118436496D01*
X175301197Y-118430684D01*
X175324858Y-118427174D01*
X175348750Y-118426000D01*
X175836250Y-118426000D01*
X175860142Y-118427174D01*
X175860142Y-118427174D01*
G37*
D14*
G04 #@! TD*
G04 #@! TO.P,R3,2*
G04 #@! TO.N,Net-(C4-Pad1)*
X175592500Y-119126000D03*
D13*
G04 #@! TO.N,Net-(C7-Pad1)*
G04 #@! TO.C,R3*
G36*
X177735142Y-118427174D02*
X177758803Y-118430684D01*
X177782007Y-118436496D01*
X177804529Y-118444554D01*
X177826153Y-118454782D01*
X177846670Y-118467079D01*
X177865883Y-118481329D01*
X177883607Y-118497393D01*
X177899671Y-118515117D01*
X177913921Y-118534330D01*
X177926218Y-118554847D01*
X177936446Y-118576471D01*
X177944504Y-118598993D01*
X177950316Y-118622197D01*
X177953826Y-118645858D01*
X177955000Y-118669750D01*
X177955000Y-119582250D01*
X177953826Y-119606142D01*
X177950316Y-119629803D01*
X177944504Y-119653007D01*
X177936446Y-119675529D01*
X177926218Y-119697153D01*
X177913921Y-119717670D01*
X177899671Y-119736883D01*
X177883607Y-119754607D01*
X177865883Y-119770671D01*
X177846670Y-119784921D01*
X177826153Y-119797218D01*
X177804529Y-119807446D01*
X177782007Y-119815504D01*
X177758803Y-119821316D01*
X177735142Y-119824826D01*
X177711250Y-119826000D01*
X177223750Y-119826000D01*
X177199858Y-119824826D01*
X177176197Y-119821316D01*
X177152993Y-119815504D01*
X177130471Y-119807446D01*
X177108847Y-119797218D01*
X177088330Y-119784921D01*
X177069117Y-119770671D01*
X177051393Y-119754607D01*
X177035329Y-119736883D01*
X177021079Y-119717670D01*
X177008782Y-119697153D01*
X176998554Y-119675529D01*
X176990496Y-119653007D01*
X176984684Y-119629803D01*
X176981174Y-119606142D01*
X176980000Y-119582250D01*
X176980000Y-118669750D01*
X176981174Y-118645858D01*
X176984684Y-118622197D01*
X176990496Y-118598993D01*
X176998554Y-118576471D01*
X177008782Y-118554847D01*
X177021079Y-118534330D01*
X177035329Y-118515117D01*
X177051393Y-118497393D01*
X177069117Y-118481329D01*
X177088330Y-118467079D01*
X177108847Y-118454782D01*
X177130471Y-118444554D01*
X177152993Y-118436496D01*
X177176197Y-118430684D01*
X177199858Y-118427174D01*
X177223750Y-118426000D01*
X177711250Y-118426000D01*
X177735142Y-118427174D01*
X177735142Y-118427174D01*
G37*
D14*
G04 #@! TD*
G04 #@! TO.P,R3,1*
G04 #@! TO.N,Net-(C7-Pad1)*
X177467500Y-119126000D03*
D13*
G04 #@! TO.N,Net-(C4-Pad2)*
G04 #@! TO.C,R2*
G36*
X176114142Y-114617174D02*
X176137803Y-114620684D01*
X176161007Y-114626496D01*
X176183529Y-114634554D01*
X176205153Y-114644782D01*
X176225670Y-114657079D01*
X176244883Y-114671329D01*
X176262607Y-114687393D01*
X176278671Y-114705117D01*
X176292921Y-114724330D01*
X176305218Y-114744847D01*
X176315446Y-114766471D01*
X176323504Y-114788993D01*
X176329316Y-114812197D01*
X176332826Y-114835858D01*
X176334000Y-114859750D01*
X176334000Y-115772250D01*
X176332826Y-115796142D01*
X176329316Y-115819803D01*
X176323504Y-115843007D01*
X176315446Y-115865529D01*
X176305218Y-115887153D01*
X176292921Y-115907670D01*
X176278671Y-115926883D01*
X176262607Y-115944607D01*
X176244883Y-115960671D01*
X176225670Y-115974921D01*
X176205153Y-115987218D01*
X176183529Y-115997446D01*
X176161007Y-116005504D01*
X176137803Y-116011316D01*
X176114142Y-116014826D01*
X176090250Y-116016000D01*
X175602750Y-116016000D01*
X175578858Y-116014826D01*
X175555197Y-116011316D01*
X175531993Y-116005504D01*
X175509471Y-115997446D01*
X175487847Y-115987218D01*
X175467330Y-115974921D01*
X175448117Y-115960671D01*
X175430393Y-115944607D01*
X175414329Y-115926883D01*
X175400079Y-115907670D01*
X175387782Y-115887153D01*
X175377554Y-115865529D01*
X175369496Y-115843007D01*
X175363684Y-115819803D01*
X175360174Y-115796142D01*
X175359000Y-115772250D01*
X175359000Y-114859750D01*
X175360174Y-114835858D01*
X175363684Y-114812197D01*
X175369496Y-114788993D01*
X175377554Y-114766471D01*
X175387782Y-114744847D01*
X175400079Y-114724330D01*
X175414329Y-114705117D01*
X175430393Y-114687393D01*
X175448117Y-114671329D01*
X175467330Y-114657079D01*
X175487847Y-114644782D01*
X175509471Y-114634554D01*
X175531993Y-114626496D01*
X175555197Y-114620684D01*
X175578858Y-114617174D01*
X175602750Y-114616000D01*
X176090250Y-114616000D01*
X176114142Y-114617174D01*
X176114142Y-114617174D01*
G37*
D14*
G04 #@! TD*
G04 #@! TO.P,R2,1*
G04 #@! TO.N,Net-(C4-Pad2)*
X175846500Y-115316000D03*
D13*
G04 #@! TO.N,Net-(C4-Pad1)*
G04 #@! TO.C,R2*
G36*
X177989142Y-114617174D02*
X178012803Y-114620684D01*
X178036007Y-114626496D01*
X178058529Y-114634554D01*
X178080153Y-114644782D01*
X178100670Y-114657079D01*
X178119883Y-114671329D01*
X178137607Y-114687393D01*
X178153671Y-114705117D01*
X178167921Y-114724330D01*
X178180218Y-114744847D01*
X178190446Y-114766471D01*
X178198504Y-114788993D01*
X178204316Y-114812197D01*
X178207826Y-114835858D01*
X178209000Y-114859750D01*
X178209000Y-115772250D01*
X178207826Y-115796142D01*
X178204316Y-115819803D01*
X178198504Y-115843007D01*
X178190446Y-115865529D01*
X178180218Y-115887153D01*
X178167921Y-115907670D01*
X178153671Y-115926883D01*
X178137607Y-115944607D01*
X178119883Y-115960671D01*
X178100670Y-115974921D01*
X178080153Y-115987218D01*
X178058529Y-115997446D01*
X178036007Y-116005504D01*
X178012803Y-116011316D01*
X177989142Y-116014826D01*
X177965250Y-116016000D01*
X177477750Y-116016000D01*
X177453858Y-116014826D01*
X177430197Y-116011316D01*
X177406993Y-116005504D01*
X177384471Y-115997446D01*
X177362847Y-115987218D01*
X177342330Y-115974921D01*
X177323117Y-115960671D01*
X177305393Y-115944607D01*
X177289329Y-115926883D01*
X177275079Y-115907670D01*
X177262782Y-115887153D01*
X177252554Y-115865529D01*
X177244496Y-115843007D01*
X177238684Y-115819803D01*
X177235174Y-115796142D01*
X177234000Y-115772250D01*
X177234000Y-114859750D01*
X177235174Y-114835858D01*
X177238684Y-114812197D01*
X177244496Y-114788993D01*
X177252554Y-114766471D01*
X177262782Y-114744847D01*
X177275079Y-114724330D01*
X177289329Y-114705117D01*
X177305393Y-114687393D01*
X177323117Y-114671329D01*
X177342330Y-114657079D01*
X177362847Y-114644782D01*
X177384471Y-114634554D01*
X177406993Y-114626496D01*
X177430197Y-114620684D01*
X177453858Y-114617174D01*
X177477750Y-114616000D01*
X177965250Y-114616000D01*
X177989142Y-114617174D01*
X177989142Y-114617174D01*
G37*
D14*
G04 #@! TD*
G04 #@! TO.P,R2,2*
G04 #@! TO.N,Net-(C4-Pad1)*
X177721500Y-115316000D03*
D13*
G04 #@! TO.N,GND*
G04 #@! TO.C,C1*
G36*
X175860142Y-104584174D02*
X175883803Y-104587684D01*
X175907007Y-104593496D01*
X175929529Y-104601554D01*
X175951153Y-104611782D01*
X175971670Y-104624079D01*
X175990883Y-104638329D01*
X176008607Y-104654393D01*
X176024671Y-104672117D01*
X176038921Y-104691330D01*
X176051218Y-104711847D01*
X176061446Y-104733471D01*
X176069504Y-104755993D01*
X176075316Y-104779197D01*
X176078826Y-104802858D01*
X176080000Y-104826750D01*
X176080000Y-105739250D01*
X176078826Y-105763142D01*
X176075316Y-105786803D01*
X176069504Y-105810007D01*
X176061446Y-105832529D01*
X176051218Y-105854153D01*
X176038921Y-105874670D01*
X176024671Y-105893883D01*
X176008607Y-105911607D01*
X175990883Y-105927671D01*
X175971670Y-105941921D01*
X175951153Y-105954218D01*
X175929529Y-105964446D01*
X175907007Y-105972504D01*
X175883803Y-105978316D01*
X175860142Y-105981826D01*
X175836250Y-105983000D01*
X175348750Y-105983000D01*
X175324858Y-105981826D01*
X175301197Y-105978316D01*
X175277993Y-105972504D01*
X175255471Y-105964446D01*
X175233847Y-105954218D01*
X175213330Y-105941921D01*
X175194117Y-105927671D01*
X175176393Y-105911607D01*
X175160329Y-105893883D01*
X175146079Y-105874670D01*
X175133782Y-105854153D01*
X175123554Y-105832529D01*
X175115496Y-105810007D01*
X175109684Y-105786803D01*
X175106174Y-105763142D01*
X175105000Y-105739250D01*
X175105000Y-104826750D01*
X175106174Y-104802858D01*
X175109684Y-104779197D01*
X175115496Y-104755993D01*
X175123554Y-104733471D01*
X175133782Y-104711847D01*
X175146079Y-104691330D01*
X175160329Y-104672117D01*
X175176393Y-104654393D01*
X175194117Y-104638329D01*
X175213330Y-104624079D01*
X175233847Y-104611782D01*
X175255471Y-104601554D01*
X175277993Y-104593496D01*
X175301197Y-104587684D01*
X175324858Y-104584174D01*
X175348750Y-104583000D01*
X175836250Y-104583000D01*
X175860142Y-104584174D01*
X175860142Y-104584174D01*
G37*
D14*
G04 #@! TD*
G04 #@! TO.P,C1,1*
G04 #@! TO.N,GND*
X175592500Y-105283000D03*
D13*
G04 #@! TO.N,Net-(C1-Pad2)*
G04 #@! TO.C,C1*
G36*
X177735142Y-104584174D02*
X177758803Y-104587684D01*
X177782007Y-104593496D01*
X177804529Y-104601554D01*
X177826153Y-104611782D01*
X177846670Y-104624079D01*
X177865883Y-104638329D01*
X177883607Y-104654393D01*
X177899671Y-104672117D01*
X177913921Y-104691330D01*
X177926218Y-104711847D01*
X177936446Y-104733471D01*
X177944504Y-104755993D01*
X177950316Y-104779197D01*
X177953826Y-104802858D01*
X177955000Y-104826750D01*
X177955000Y-105739250D01*
X177953826Y-105763142D01*
X177950316Y-105786803D01*
X177944504Y-105810007D01*
X177936446Y-105832529D01*
X177926218Y-105854153D01*
X177913921Y-105874670D01*
X177899671Y-105893883D01*
X177883607Y-105911607D01*
X177865883Y-105927671D01*
X177846670Y-105941921D01*
X177826153Y-105954218D01*
X177804529Y-105964446D01*
X177782007Y-105972504D01*
X177758803Y-105978316D01*
X177735142Y-105981826D01*
X177711250Y-105983000D01*
X177223750Y-105983000D01*
X177199858Y-105981826D01*
X177176197Y-105978316D01*
X177152993Y-105972504D01*
X177130471Y-105964446D01*
X177108847Y-105954218D01*
X177088330Y-105941921D01*
X177069117Y-105927671D01*
X177051393Y-105911607D01*
X177035329Y-105893883D01*
X177021079Y-105874670D01*
X177008782Y-105854153D01*
X176998554Y-105832529D01*
X176990496Y-105810007D01*
X176984684Y-105786803D01*
X176981174Y-105763142D01*
X176980000Y-105739250D01*
X176980000Y-104826750D01*
X176981174Y-104802858D01*
X176984684Y-104779197D01*
X176990496Y-104755993D01*
X176998554Y-104733471D01*
X177008782Y-104711847D01*
X177021079Y-104691330D01*
X177035329Y-104672117D01*
X177051393Y-104654393D01*
X177069117Y-104638329D01*
X177088330Y-104624079D01*
X177108847Y-104611782D01*
X177130471Y-104601554D01*
X177152993Y-104593496D01*
X177176197Y-104587684D01*
X177199858Y-104584174D01*
X177223750Y-104583000D01*
X177711250Y-104583000D01*
X177735142Y-104584174D01*
X177735142Y-104584174D01*
G37*
D14*
G04 #@! TD*
G04 #@! TO.P,C1,2*
G04 #@! TO.N,Net-(C1-Pad2)*
X177467500Y-105283000D03*
D13*
G04 #@! TO.N,Net-(C3-Pad2)*
G04 #@! TO.C,C3*
G36*
X177481142Y-108648174D02*
X177504803Y-108651684D01*
X177528007Y-108657496D01*
X177550529Y-108665554D01*
X177572153Y-108675782D01*
X177592670Y-108688079D01*
X177611883Y-108702329D01*
X177629607Y-108718393D01*
X177645671Y-108736117D01*
X177659921Y-108755330D01*
X177672218Y-108775847D01*
X177682446Y-108797471D01*
X177690504Y-108819993D01*
X177696316Y-108843197D01*
X177699826Y-108866858D01*
X177701000Y-108890750D01*
X177701000Y-109803250D01*
X177699826Y-109827142D01*
X177696316Y-109850803D01*
X177690504Y-109874007D01*
X177682446Y-109896529D01*
X177672218Y-109918153D01*
X177659921Y-109938670D01*
X177645671Y-109957883D01*
X177629607Y-109975607D01*
X177611883Y-109991671D01*
X177592670Y-110005921D01*
X177572153Y-110018218D01*
X177550529Y-110028446D01*
X177528007Y-110036504D01*
X177504803Y-110042316D01*
X177481142Y-110045826D01*
X177457250Y-110047000D01*
X176969750Y-110047000D01*
X176945858Y-110045826D01*
X176922197Y-110042316D01*
X176898993Y-110036504D01*
X176876471Y-110028446D01*
X176854847Y-110018218D01*
X176834330Y-110005921D01*
X176815117Y-109991671D01*
X176797393Y-109975607D01*
X176781329Y-109957883D01*
X176767079Y-109938670D01*
X176754782Y-109918153D01*
X176744554Y-109896529D01*
X176736496Y-109874007D01*
X176730684Y-109850803D01*
X176727174Y-109827142D01*
X176726000Y-109803250D01*
X176726000Y-108890750D01*
X176727174Y-108866858D01*
X176730684Y-108843197D01*
X176736496Y-108819993D01*
X176744554Y-108797471D01*
X176754782Y-108775847D01*
X176767079Y-108755330D01*
X176781329Y-108736117D01*
X176797393Y-108718393D01*
X176815117Y-108702329D01*
X176834330Y-108688079D01*
X176854847Y-108675782D01*
X176876471Y-108665554D01*
X176898993Y-108657496D01*
X176922197Y-108651684D01*
X176945858Y-108648174D01*
X176969750Y-108647000D01*
X177457250Y-108647000D01*
X177481142Y-108648174D01*
X177481142Y-108648174D01*
G37*
D14*
G04 #@! TD*
G04 #@! TO.P,C3,2*
G04 #@! TO.N,Net-(C3-Pad2)*
X177213500Y-109347000D03*
D13*
G04 #@! TO.N,Net-(C3-Pad1)*
G04 #@! TO.C,C3*
G36*
X175606142Y-108648174D02*
X175629803Y-108651684D01*
X175653007Y-108657496D01*
X175675529Y-108665554D01*
X175697153Y-108675782D01*
X175717670Y-108688079D01*
X175736883Y-108702329D01*
X175754607Y-108718393D01*
X175770671Y-108736117D01*
X175784921Y-108755330D01*
X175797218Y-108775847D01*
X175807446Y-108797471D01*
X175815504Y-108819993D01*
X175821316Y-108843197D01*
X175824826Y-108866858D01*
X175826000Y-108890750D01*
X175826000Y-109803250D01*
X175824826Y-109827142D01*
X175821316Y-109850803D01*
X175815504Y-109874007D01*
X175807446Y-109896529D01*
X175797218Y-109918153D01*
X175784921Y-109938670D01*
X175770671Y-109957883D01*
X175754607Y-109975607D01*
X175736883Y-109991671D01*
X175717670Y-110005921D01*
X175697153Y-110018218D01*
X175675529Y-110028446D01*
X175653007Y-110036504D01*
X175629803Y-110042316D01*
X175606142Y-110045826D01*
X175582250Y-110047000D01*
X175094750Y-110047000D01*
X175070858Y-110045826D01*
X175047197Y-110042316D01*
X175023993Y-110036504D01*
X175001471Y-110028446D01*
X174979847Y-110018218D01*
X174959330Y-110005921D01*
X174940117Y-109991671D01*
X174922393Y-109975607D01*
X174906329Y-109957883D01*
X174892079Y-109938670D01*
X174879782Y-109918153D01*
X174869554Y-109896529D01*
X174861496Y-109874007D01*
X174855684Y-109850803D01*
X174852174Y-109827142D01*
X174851000Y-109803250D01*
X174851000Y-108890750D01*
X174852174Y-108866858D01*
X174855684Y-108843197D01*
X174861496Y-108819993D01*
X174869554Y-108797471D01*
X174879782Y-108775847D01*
X174892079Y-108755330D01*
X174906329Y-108736117D01*
X174922393Y-108718393D01*
X174940117Y-108702329D01*
X174959330Y-108688079D01*
X174979847Y-108675782D01*
X175001471Y-108665554D01*
X175023993Y-108657496D01*
X175047197Y-108651684D01*
X175070858Y-108648174D01*
X175094750Y-108647000D01*
X175582250Y-108647000D01*
X175606142Y-108648174D01*
X175606142Y-108648174D01*
G37*
D14*
G04 #@! TD*
G04 #@! TO.P,C3,1*
G04 #@! TO.N,Net-(C3-Pad1)*
X175338500Y-109347000D03*
D13*
G04 #@! TO.N,Net-(C4-Pad1)*
G04 #@! TO.C,C5*
G36*
X173671142Y-116395174D02*
X173694803Y-116398684D01*
X173718007Y-116404496D01*
X173740529Y-116412554D01*
X173762153Y-116422782D01*
X173782670Y-116435079D01*
X173801883Y-116449329D01*
X173819607Y-116465393D01*
X173835671Y-116483117D01*
X173849921Y-116502330D01*
X173862218Y-116522847D01*
X173872446Y-116544471D01*
X173880504Y-116566993D01*
X173886316Y-116590197D01*
X173889826Y-116613858D01*
X173891000Y-116637750D01*
X173891000Y-117550250D01*
X173889826Y-117574142D01*
X173886316Y-117597803D01*
X173880504Y-117621007D01*
X173872446Y-117643529D01*
X173862218Y-117665153D01*
X173849921Y-117685670D01*
X173835671Y-117704883D01*
X173819607Y-117722607D01*
X173801883Y-117738671D01*
X173782670Y-117752921D01*
X173762153Y-117765218D01*
X173740529Y-117775446D01*
X173718007Y-117783504D01*
X173694803Y-117789316D01*
X173671142Y-117792826D01*
X173647250Y-117794000D01*
X173159750Y-117794000D01*
X173135858Y-117792826D01*
X173112197Y-117789316D01*
X173088993Y-117783504D01*
X173066471Y-117775446D01*
X173044847Y-117765218D01*
X173024330Y-117752921D01*
X173005117Y-117738671D01*
X172987393Y-117722607D01*
X172971329Y-117704883D01*
X172957079Y-117685670D01*
X172944782Y-117665153D01*
X172934554Y-117643529D01*
X172926496Y-117621007D01*
X172920684Y-117597803D01*
X172917174Y-117574142D01*
X172916000Y-117550250D01*
X172916000Y-116637750D01*
X172917174Y-116613858D01*
X172920684Y-116590197D01*
X172926496Y-116566993D01*
X172934554Y-116544471D01*
X172944782Y-116522847D01*
X172957079Y-116502330D01*
X172971329Y-116483117D01*
X172987393Y-116465393D01*
X173005117Y-116449329D01*
X173024330Y-116435079D01*
X173044847Y-116422782D01*
X173066471Y-116412554D01*
X173088993Y-116404496D01*
X173112197Y-116398684D01*
X173135858Y-116395174D01*
X173159750Y-116394000D01*
X173647250Y-116394000D01*
X173671142Y-116395174D01*
X173671142Y-116395174D01*
G37*
D14*
G04 #@! TD*
G04 #@! TO.P,C5,1*
G04 #@! TO.N,Net-(C4-Pad1)*
X173403500Y-117094000D03*
D13*
G04 #@! TO.N,GND*
G04 #@! TO.C,C5*
G36*
X171796142Y-116395174D02*
X171819803Y-116398684D01*
X171843007Y-116404496D01*
X171865529Y-116412554D01*
X171887153Y-116422782D01*
X171907670Y-116435079D01*
X171926883Y-116449329D01*
X171944607Y-116465393D01*
X171960671Y-116483117D01*
X171974921Y-116502330D01*
X171987218Y-116522847D01*
X171997446Y-116544471D01*
X172005504Y-116566993D01*
X172011316Y-116590197D01*
X172014826Y-116613858D01*
X172016000Y-116637750D01*
X172016000Y-117550250D01*
X172014826Y-117574142D01*
X172011316Y-117597803D01*
X172005504Y-117621007D01*
X171997446Y-117643529D01*
X171987218Y-117665153D01*
X171974921Y-117685670D01*
X171960671Y-117704883D01*
X171944607Y-117722607D01*
X171926883Y-117738671D01*
X171907670Y-117752921D01*
X171887153Y-117765218D01*
X171865529Y-117775446D01*
X171843007Y-117783504D01*
X171819803Y-117789316D01*
X171796142Y-117792826D01*
X171772250Y-117794000D01*
X171284750Y-117794000D01*
X171260858Y-117792826D01*
X171237197Y-117789316D01*
X171213993Y-117783504D01*
X171191471Y-117775446D01*
X171169847Y-117765218D01*
X171149330Y-117752921D01*
X171130117Y-117738671D01*
X171112393Y-117722607D01*
X171096329Y-117704883D01*
X171082079Y-117685670D01*
X171069782Y-117665153D01*
X171059554Y-117643529D01*
X171051496Y-117621007D01*
X171045684Y-117597803D01*
X171042174Y-117574142D01*
X171041000Y-117550250D01*
X171041000Y-116637750D01*
X171042174Y-116613858D01*
X171045684Y-116590197D01*
X171051496Y-116566993D01*
X171059554Y-116544471D01*
X171069782Y-116522847D01*
X171082079Y-116502330D01*
X171096329Y-116483117D01*
X171112393Y-116465393D01*
X171130117Y-116449329D01*
X171149330Y-116435079D01*
X171169847Y-116422782D01*
X171191471Y-116412554D01*
X171213993Y-116404496D01*
X171237197Y-116398684D01*
X171260858Y-116395174D01*
X171284750Y-116394000D01*
X171772250Y-116394000D01*
X171796142Y-116395174D01*
X171796142Y-116395174D01*
G37*
D14*
G04 #@! TD*
G04 #@! TO.P,C5,2*
G04 #@! TO.N,GND*
X171528500Y-117094000D03*
D13*
G04 #@! TO.N,GND*
G04 #@! TO.C,C8*
G36*
X182053142Y-118681174D02*
X182076803Y-118684684D01*
X182100007Y-118690496D01*
X182122529Y-118698554D01*
X182144153Y-118708782D01*
X182164670Y-118721079D01*
X182183883Y-118735329D01*
X182201607Y-118751393D01*
X182217671Y-118769117D01*
X182231921Y-118788330D01*
X182244218Y-118808847D01*
X182254446Y-118830471D01*
X182262504Y-118852993D01*
X182268316Y-118876197D01*
X182271826Y-118899858D01*
X182273000Y-118923750D01*
X182273000Y-119836250D01*
X182271826Y-119860142D01*
X182268316Y-119883803D01*
X182262504Y-119907007D01*
X182254446Y-119929529D01*
X182244218Y-119951153D01*
X182231921Y-119971670D01*
X182217671Y-119990883D01*
X182201607Y-120008607D01*
X182183883Y-120024671D01*
X182164670Y-120038921D01*
X182144153Y-120051218D01*
X182122529Y-120061446D01*
X182100007Y-120069504D01*
X182076803Y-120075316D01*
X182053142Y-120078826D01*
X182029250Y-120080000D01*
X181541750Y-120080000D01*
X181517858Y-120078826D01*
X181494197Y-120075316D01*
X181470993Y-120069504D01*
X181448471Y-120061446D01*
X181426847Y-120051218D01*
X181406330Y-120038921D01*
X181387117Y-120024671D01*
X181369393Y-120008607D01*
X181353329Y-119990883D01*
X181339079Y-119971670D01*
X181326782Y-119951153D01*
X181316554Y-119929529D01*
X181308496Y-119907007D01*
X181302684Y-119883803D01*
X181299174Y-119860142D01*
X181298000Y-119836250D01*
X181298000Y-118923750D01*
X181299174Y-118899858D01*
X181302684Y-118876197D01*
X181308496Y-118852993D01*
X181316554Y-118830471D01*
X181326782Y-118808847D01*
X181339079Y-118788330D01*
X181353329Y-118769117D01*
X181369393Y-118751393D01*
X181387117Y-118735329D01*
X181406330Y-118721079D01*
X181426847Y-118708782D01*
X181448471Y-118698554D01*
X181470993Y-118690496D01*
X181494197Y-118684684D01*
X181517858Y-118681174D01*
X181541750Y-118680000D01*
X182029250Y-118680000D01*
X182053142Y-118681174D01*
X182053142Y-118681174D01*
G37*
D14*
G04 #@! TD*
G04 #@! TO.P,C8,2*
G04 #@! TO.N,GND*
X181785500Y-119380000D03*
D13*
G04 #@! TO.N,Net-(C7-Pad1)*
G04 #@! TO.C,C8*
G36*
X180178142Y-118681174D02*
X180201803Y-118684684D01*
X180225007Y-118690496D01*
X180247529Y-118698554D01*
X180269153Y-118708782D01*
X180289670Y-118721079D01*
X180308883Y-118735329D01*
X180326607Y-118751393D01*
X180342671Y-118769117D01*
X180356921Y-118788330D01*
X180369218Y-118808847D01*
X180379446Y-118830471D01*
X180387504Y-118852993D01*
X180393316Y-118876197D01*
X180396826Y-118899858D01*
X180398000Y-118923750D01*
X180398000Y-119836250D01*
X180396826Y-119860142D01*
X180393316Y-119883803D01*
X180387504Y-119907007D01*
X180379446Y-119929529D01*
X180369218Y-119951153D01*
X180356921Y-119971670D01*
X180342671Y-119990883D01*
X180326607Y-120008607D01*
X180308883Y-120024671D01*
X180289670Y-120038921D01*
X180269153Y-120051218D01*
X180247529Y-120061446D01*
X180225007Y-120069504D01*
X180201803Y-120075316D01*
X180178142Y-120078826D01*
X180154250Y-120080000D01*
X179666750Y-120080000D01*
X179642858Y-120078826D01*
X179619197Y-120075316D01*
X179595993Y-120069504D01*
X179573471Y-120061446D01*
X179551847Y-120051218D01*
X179531330Y-120038921D01*
X179512117Y-120024671D01*
X179494393Y-120008607D01*
X179478329Y-119990883D01*
X179464079Y-119971670D01*
X179451782Y-119951153D01*
X179441554Y-119929529D01*
X179433496Y-119907007D01*
X179427684Y-119883803D01*
X179424174Y-119860142D01*
X179423000Y-119836250D01*
X179423000Y-118923750D01*
X179424174Y-118899858D01*
X179427684Y-118876197D01*
X179433496Y-118852993D01*
X179441554Y-118830471D01*
X179451782Y-118808847D01*
X179464079Y-118788330D01*
X179478329Y-118769117D01*
X179494393Y-118751393D01*
X179512117Y-118735329D01*
X179531330Y-118721079D01*
X179551847Y-118708782D01*
X179573471Y-118698554D01*
X179595993Y-118690496D01*
X179619197Y-118684684D01*
X179642858Y-118681174D01*
X179666750Y-118680000D01*
X180154250Y-118680000D01*
X180178142Y-118681174D01*
X180178142Y-118681174D01*
G37*
D14*
G04 #@! TD*
G04 #@! TO.P,C8,1*
G04 #@! TO.N,Net-(C7-Pad1)*
X179910500Y-119380000D03*
D13*
G04 #@! TO.N,Net-(D1-Pad2)*
G04 #@! TO.C,R1*
G36*
X182131642Y-114617174D02*
X182155303Y-114620684D01*
X182178507Y-114626496D01*
X182201029Y-114634554D01*
X182222653Y-114644782D01*
X182243170Y-114657079D01*
X182262383Y-114671329D01*
X182280107Y-114687393D01*
X182296171Y-114705117D01*
X182310421Y-114724330D01*
X182322718Y-114744847D01*
X182332946Y-114766471D01*
X182341004Y-114788993D01*
X182346816Y-114812197D01*
X182350326Y-114835858D01*
X182351500Y-114859750D01*
X182351500Y-115772250D01*
X182350326Y-115796142D01*
X182346816Y-115819803D01*
X182341004Y-115843007D01*
X182332946Y-115865529D01*
X182322718Y-115887153D01*
X182310421Y-115907670D01*
X182296171Y-115926883D01*
X182280107Y-115944607D01*
X182262383Y-115960671D01*
X182243170Y-115974921D01*
X182222653Y-115987218D01*
X182201029Y-115997446D01*
X182178507Y-116005504D01*
X182155303Y-116011316D01*
X182131642Y-116014826D01*
X182107750Y-116016000D01*
X181620250Y-116016000D01*
X181596358Y-116014826D01*
X181572697Y-116011316D01*
X181549493Y-116005504D01*
X181526971Y-115997446D01*
X181505347Y-115987218D01*
X181484830Y-115974921D01*
X181465617Y-115960671D01*
X181447893Y-115944607D01*
X181431829Y-115926883D01*
X181417579Y-115907670D01*
X181405282Y-115887153D01*
X181395054Y-115865529D01*
X181386996Y-115843007D01*
X181381184Y-115819803D01*
X181377674Y-115796142D01*
X181376500Y-115772250D01*
X181376500Y-114859750D01*
X181377674Y-114835858D01*
X181381184Y-114812197D01*
X181386996Y-114788993D01*
X181395054Y-114766471D01*
X181405282Y-114744847D01*
X181417579Y-114724330D01*
X181431829Y-114705117D01*
X181447893Y-114687393D01*
X181465617Y-114671329D01*
X181484830Y-114657079D01*
X181505347Y-114644782D01*
X181526971Y-114634554D01*
X181549493Y-114626496D01*
X181572697Y-114620684D01*
X181596358Y-114617174D01*
X181620250Y-114616000D01*
X182107750Y-114616000D01*
X182131642Y-114617174D01*
X182131642Y-114617174D01*
G37*
D14*
G04 #@! TD*
G04 #@! TO.P,R1,1*
G04 #@! TO.N,Net-(D1-Pad2)*
X181864000Y-115316000D03*
D13*
G04 #@! TO.N,Net-(C4-Pad1)*
G04 #@! TO.C,R1*
G36*
X180256642Y-114617174D02*
X180280303Y-114620684D01*
X180303507Y-114626496D01*
X180326029Y-114634554D01*
X180347653Y-114644782D01*
X180368170Y-114657079D01*
X180387383Y-114671329D01*
X180405107Y-114687393D01*
X180421171Y-114705117D01*
X180435421Y-114724330D01*
X180447718Y-114744847D01*
X180457946Y-114766471D01*
X180466004Y-114788993D01*
X180471816Y-114812197D01*
X180475326Y-114835858D01*
X180476500Y-114859750D01*
X180476500Y-115772250D01*
X180475326Y-115796142D01*
X180471816Y-115819803D01*
X180466004Y-115843007D01*
X180457946Y-115865529D01*
X180447718Y-115887153D01*
X180435421Y-115907670D01*
X180421171Y-115926883D01*
X180405107Y-115944607D01*
X180387383Y-115960671D01*
X180368170Y-115974921D01*
X180347653Y-115987218D01*
X180326029Y-115997446D01*
X180303507Y-116005504D01*
X180280303Y-116011316D01*
X180256642Y-116014826D01*
X180232750Y-116016000D01*
X179745250Y-116016000D01*
X179721358Y-116014826D01*
X179697697Y-116011316D01*
X179674493Y-116005504D01*
X179651971Y-115997446D01*
X179630347Y-115987218D01*
X179609830Y-115974921D01*
X179590617Y-115960671D01*
X179572893Y-115944607D01*
X179556829Y-115926883D01*
X179542579Y-115907670D01*
X179530282Y-115887153D01*
X179520054Y-115865529D01*
X179511996Y-115843007D01*
X179506184Y-115819803D01*
X179502674Y-115796142D01*
X179501500Y-115772250D01*
X179501500Y-114859750D01*
X179502674Y-114835858D01*
X179506184Y-114812197D01*
X179511996Y-114788993D01*
X179520054Y-114766471D01*
X179530282Y-114744847D01*
X179542579Y-114724330D01*
X179556829Y-114705117D01*
X179572893Y-114687393D01*
X179590617Y-114671329D01*
X179609830Y-114657079D01*
X179630347Y-114644782D01*
X179651971Y-114634554D01*
X179674493Y-114626496D01*
X179697697Y-114620684D01*
X179721358Y-114617174D01*
X179745250Y-114616000D01*
X180232750Y-114616000D01*
X180256642Y-114617174D01*
X180256642Y-114617174D01*
G37*
D14*
G04 #@! TD*
G04 #@! TO.P,R1,2*
G04 #@! TO.N,Net-(C4-Pad1)*
X179989000Y-115316000D03*
D15*
G04 #@! TO.P,MH1,1*
G04 #@! TO.N,N/C*
X172720000Y-132334000D03*
G04 #@! TD*
G04 #@! TO.P,MH2,1*
G04 #@! TO.N,N/C*
X182880000Y-132334000D03*
G04 #@! TD*
G04 #@! TO.P,MH3,1*
G04 #@! TO.N,N/C*
X182880000Y-91440000D03*
G04 #@! TD*
G04 #@! TO.P,MH4,1*
G04 #@! TO.N,N/C*
X172720000Y-91440000D03*
G04 #@! TD*
D16*
G04 #@! TO.P,J1,1*
G04 #@! TO.N,GND*
X175260000Y-100330000D03*
D17*
G04 #@! TO.P,J1,2*
X175260000Y-97790000D03*
G04 #@! TO.P,J1,3*
G04 #@! TO.N,Net-(C1-Pad2)*
X177800000Y-100330000D03*
G04 #@! TO.P,J1,4*
X177800000Y-97790000D03*
G04 #@! TO.P,J1,5*
G04 #@! TO.N,GND*
X180340000Y-100330000D03*
G04 #@! TO.P,J1,6*
X180340000Y-97790000D03*
G04 #@! TD*
D16*
G04 #@! TO.P,J2,1*
G04 #@! TO.N,GND*
X173990000Y-125730000D03*
D17*
G04 #@! TO.P,J2,2*
X173990000Y-123190000D03*
G04 #@! TO.P,J2,3*
G04 #@! TO.N,Net-(C7-Pad1)*
X176530000Y-125730000D03*
G04 #@! TO.P,J2,4*
X176530000Y-123190000D03*
G04 #@! TO.P,J2,5*
X179070000Y-125730000D03*
G04 #@! TO.P,J2,6*
X179070000Y-123190000D03*
G04 #@! TO.P,J2,7*
G04 #@! TO.N,GND*
X181610000Y-125730000D03*
G04 #@! TO.P,J2,8*
X181610000Y-123190000D03*
G04 #@! TD*
D18*
G04 #@! TO.N,GND*
X173736000Y-105410000D03*
X175514000Y-103378000D03*
X182880000Y-105410000D03*
X181102000Y-103378000D03*
X182372000Y-100330000D03*
X182372000Y-97790000D03*
X173228000Y-97790000D03*
X175260000Y-95758000D03*
X180340000Y-95758000D03*
X173228000Y-100330000D03*
X183642000Y-123190000D03*
X183642000Y-125730000D03*
X181610000Y-127762000D03*
X173990000Y-127762000D03*
X171958000Y-125730000D03*
X171958000Y-123190000D03*
X171528500Y-115316000D03*
X169926000Y-117094000D03*
X169926000Y-119126000D03*
X171450000Y-120904000D03*
X181864000Y-121158000D03*
X183388000Y-119380000D03*
X183388000Y-117348000D03*
G04 #@! TO.N,Net-(C1-Pad2)*
X180467000Y-111379000D03*
X180464500Y-113281500D03*
G04 #@! TD*
D19*
G04 #@! TO.N,GND*
X174618000Y-112268000D02*
X174110000Y-111760000D01*
X175728000Y-112268000D02*
X174618000Y-112268000D01*
X174110000Y-111760000D02*
X171704000Y-111760000D01*
X171528500Y-111935500D02*
X171528500Y-115316000D01*
X171704000Y-111760000D02*
X171528500Y-111935500D01*
X171528500Y-115316000D02*
X171528500Y-117094000D01*
D20*
G04 #@! TO.N,Net-(C1-Pad2)*
X178269000Y-106084500D02*
X177467500Y-105283000D01*
X178269000Y-107365000D02*
X180467000Y-109563000D01*
X180467000Y-111379000D02*
X178409000Y-111379000D01*
X180464500Y-113281500D02*
X178411500Y-113281500D01*
X178269000Y-107315000D02*
X178269000Y-106084500D01*
X178269000Y-107315000D02*
X178269000Y-107365000D01*
X178409000Y-111379000D02*
X178348000Y-111318000D01*
X178411500Y-113281500D02*
X178348000Y-113218000D01*
X180467000Y-109563000D02*
X180467000Y-111379000D01*
X177467500Y-105283000D02*
X179275500Y-105283000D01*
X177800000Y-104950500D02*
X177467500Y-105283000D01*
X177800000Y-100330000D02*
X177800000Y-104950500D01*
X177800000Y-97790000D02*
X177800000Y-100330000D01*
D19*
G04 #@! TO.N,Net-(C3-Pad2)*
X179458000Y-112268000D02*
X178348000Y-112268000D01*
X183432000Y-112268000D02*
X179458000Y-112268000D01*
X183558000Y-112142000D02*
X183432000Y-112268000D01*
X184658000Y-112142000D02*
X183558000Y-112142000D01*
D21*
X177438000Y-112268000D02*
X178348000Y-112268000D01*
X177213500Y-112043500D02*
X177438000Y-112268000D01*
X177213500Y-109347000D02*
X177213500Y-112043500D01*
D20*
G04 #@! TO.N,Net-(C3-Pad1)*
X176569000Y-107315000D02*
X175387000Y-107315000D01*
X175338500Y-109347000D02*
X175338500Y-110928500D01*
X175338500Y-110928500D02*
X175728000Y-111318000D01*
X175387000Y-107315000D02*
X175338500Y-107363500D01*
X175338500Y-107363500D02*
X175338500Y-109347000D01*
G04 #@! TO.N,Net-(D1-Pad2)*
X181990000Y-115442000D02*
X181864000Y-115316000D01*
X184658000Y-115442000D02*
X181990000Y-115442000D01*
G04 #@! TO.N,Net-(C4-Pad2)*
X175846500Y-115316000D02*
X175846500Y-113336500D01*
X175846500Y-113336500D02*
X175728000Y-113218000D01*
X173513000Y-113218000D02*
X173482000Y-113187000D01*
X175728000Y-113218000D02*
X173513000Y-113218000D01*
G04 #@! TO.N,Net-(C4-Pad1)*
X177721500Y-115316000D02*
X179989000Y-115316000D01*
X173482000Y-115062000D02*
X173482000Y-117015500D01*
X173482000Y-117015500D02*
X173403500Y-117094000D01*
X173403500Y-117094000D02*
X173403500Y-119126000D01*
X173403500Y-119126000D02*
X175592500Y-119126000D01*
D19*
X177721500Y-115316000D02*
X177721500Y-116410500D01*
X177038000Y-117094000D02*
X173403500Y-117094000D01*
X177721500Y-116410500D02*
X177038000Y-117094000D01*
D20*
G04 #@! TO.N,Net-(C7-Pad1)*
X179656500Y-119126000D02*
X179910500Y-119380000D01*
X179910500Y-117348000D02*
X179910500Y-119380000D01*
X177467500Y-119126000D02*
X179656500Y-119126000D01*
X179910500Y-122349500D02*
X179070000Y-123190000D01*
X179910500Y-119380000D02*
X179910500Y-122349500D01*
X179070000Y-123190000D02*
X176530000Y-123190000D01*
X176530000Y-123190000D02*
X176530000Y-125730000D01*
X179070000Y-125730000D02*
X176530000Y-125730000D01*
X179070000Y-125730000D02*
X179070000Y-123190000D01*
G04 #@! TD*
D22*
G04 #@! TO.N,GND*
G36*
X186817000Y-136271000D02*
X168783000Y-136271000D01*
X168783000Y-131610954D01*
X169085000Y-131610954D01*
X169085000Y-133057046D01*
X169638396Y-134393062D01*
X170660938Y-135415604D01*
X171996954Y-135969000D01*
X173443046Y-135969000D01*
X174779062Y-135415604D01*
X175801604Y-134393062D01*
X176355000Y-133057046D01*
X176355000Y-131610954D01*
X179245000Y-131610954D01*
X179245000Y-133057046D01*
X179798396Y-134393062D01*
X180820938Y-135415604D01*
X182156954Y-135969000D01*
X183603046Y-135969000D01*
X184939062Y-135415604D01*
X185961604Y-134393062D01*
X186515000Y-133057046D01*
X186515000Y-131610954D01*
X185961604Y-130274938D01*
X184939062Y-129252396D01*
X183603046Y-128699000D01*
X182156954Y-128699000D01*
X180820938Y-129252396D01*
X179798396Y-130274938D01*
X179245000Y-131610954D01*
X176355000Y-131610954D01*
X175801604Y-130274938D01*
X174779062Y-129252396D01*
X173443046Y-128699000D01*
X171996954Y-128699000D01*
X170660938Y-129252396D01*
X169638396Y-130274938D01*
X169085000Y-131610954D01*
X168783000Y-131610954D01*
X168783000Y-126015750D01*
X172505000Y-126015750D01*
X172505000Y-126706309D01*
X172601673Y-126939698D01*
X172780301Y-127118327D01*
X173013690Y-127215000D01*
X173704250Y-127215000D01*
X173863000Y-127056250D01*
X173863000Y-125857000D01*
X172663750Y-125857000D01*
X172505000Y-126015750D01*
X168783000Y-126015750D01*
X168783000Y-124753691D01*
X172505000Y-124753691D01*
X172505000Y-125444250D01*
X172663750Y-125603000D01*
X173863000Y-125603000D01*
X173863000Y-123317000D01*
X172669181Y-123317000D01*
X172548514Y-123546892D01*
X172794817Y-124071358D01*
X172994208Y-124253070D01*
X172780301Y-124341673D01*
X172601673Y-124520302D01*
X172505000Y-124753691D01*
X168783000Y-124753691D01*
X168783000Y-122833108D01*
X172548514Y-122833108D01*
X172669181Y-123063000D01*
X173863000Y-123063000D01*
X173863000Y-121869845D01*
X173633110Y-121748524D01*
X173223076Y-121918355D01*
X172794817Y-122308642D01*
X172548514Y-122833108D01*
X168783000Y-122833108D01*
X168783000Y-119411750D01*
X170406000Y-119411750D01*
X170406000Y-119952310D01*
X170502673Y-120185699D01*
X170681302Y-120364327D01*
X170914691Y-120461000D01*
X171242750Y-120461000D01*
X171401500Y-120302250D01*
X171401500Y-119253000D01*
X170564750Y-119253000D01*
X170406000Y-119411750D01*
X168783000Y-119411750D01*
X168783000Y-117379750D01*
X170406000Y-117379750D01*
X170406000Y-117920310D01*
X170484572Y-118110000D01*
X170406000Y-118299690D01*
X170406000Y-118840250D01*
X170564750Y-118999000D01*
X171401500Y-118999000D01*
X171401500Y-117221000D01*
X170564750Y-117221000D01*
X170406000Y-117379750D01*
X168783000Y-117379750D01*
X168783000Y-116267690D01*
X170406000Y-116267690D01*
X170406000Y-116808250D01*
X170564750Y-116967000D01*
X171401500Y-116967000D01*
X171401500Y-115917750D01*
X171655500Y-115917750D01*
X171655500Y-116967000D01*
X171675500Y-116967000D01*
X171675500Y-117221000D01*
X171655500Y-117221000D01*
X171655500Y-118999000D01*
X171675500Y-118999000D01*
X171675500Y-119253000D01*
X171655500Y-119253000D01*
X171655500Y-120302250D01*
X171814250Y-120461000D01*
X172142309Y-120461000D01*
X172375698Y-120364327D01*
X172528793Y-120211233D01*
X172529584Y-120212416D01*
X172818706Y-120405602D01*
X173159750Y-120473440D01*
X173647250Y-120473440D01*
X173988294Y-120405602D01*
X174277416Y-120212416D01*
X174345180Y-120111000D01*
X174650820Y-120111000D01*
X174718584Y-120212416D01*
X175007706Y-120405602D01*
X175348750Y-120473440D01*
X175836250Y-120473440D01*
X176177294Y-120405602D01*
X176466416Y-120212416D01*
X176530000Y-120117256D01*
X176593584Y-120212416D01*
X176882706Y-120405602D01*
X177223750Y-120473440D01*
X177711250Y-120473440D01*
X178052294Y-120405602D01*
X178341416Y-120212416D01*
X178409180Y-120111000D01*
X178830211Y-120111000D01*
X178843398Y-120177294D01*
X178925500Y-120300168D01*
X178925501Y-121705000D01*
X178923744Y-121705000D01*
X178490582Y-121791161D01*
X177999375Y-122119375D01*
X177942162Y-122205000D01*
X177657838Y-122205000D01*
X177600625Y-122119375D01*
X177109418Y-121791161D01*
X176676256Y-121705000D01*
X176383744Y-121705000D01*
X175950582Y-121791161D01*
X175459375Y-122119375D01*
X175246157Y-122438478D01*
X175185183Y-122308642D01*
X174756924Y-121918355D01*
X174346890Y-121748524D01*
X174117000Y-121869845D01*
X174117000Y-123063000D01*
X174137000Y-123063000D01*
X174137000Y-123317000D01*
X174117000Y-123317000D01*
X174117000Y-125603000D01*
X174137000Y-125603000D01*
X174137000Y-125857000D01*
X174117000Y-125857000D01*
X174117000Y-127056250D01*
X174275750Y-127215000D01*
X174966310Y-127215000D01*
X175199699Y-127118327D01*
X175378327Y-126939698D01*
X175444904Y-126778967D01*
X175459375Y-126800625D01*
X175950582Y-127128839D01*
X176383744Y-127215000D01*
X176676256Y-127215000D01*
X177109418Y-127128839D01*
X177600625Y-126800625D01*
X177657838Y-126715000D01*
X177942162Y-126715000D01*
X177999375Y-126800625D01*
X178490582Y-127128839D01*
X178923744Y-127215000D01*
X179216256Y-127215000D01*
X179649418Y-127128839D01*
X180140625Y-126800625D01*
X180353843Y-126481522D01*
X180414817Y-126611358D01*
X180843076Y-127001645D01*
X181253110Y-127171476D01*
X181483000Y-127050155D01*
X181483000Y-125857000D01*
X181737000Y-125857000D01*
X181737000Y-127050155D01*
X181966890Y-127171476D01*
X182376924Y-127001645D01*
X182805183Y-126611358D01*
X183051486Y-126086892D01*
X182930819Y-125857000D01*
X181737000Y-125857000D01*
X181483000Y-125857000D01*
X181463000Y-125857000D01*
X181463000Y-125603000D01*
X181483000Y-125603000D01*
X181483000Y-123317000D01*
X181737000Y-123317000D01*
X181737000Y-125603000D01*
X182930819Y-125603000D01*
X183051486Y-125373108D01*
X182805183Y-124848642D01*
X182378729Y-124460000D01*
X182805183Y-124071358D01*
X183051486Y-123546892D01*
X182930819Y-123317000D01*
X181737000Y-123317000D01*
X181483000Y-123317000D01*
X181463000Y-123317000D01*
X181463000Y-123063000D01*
X181483000Y-123063000D01*
X181483000Y-121869845D01*
X181737000Y-121869845D01*
X181737000Y-123063000D01*
X182930819Y-123063000D01*
X183051486Y-122833108D01*
X182805183Y-122308642D01*
X182376924Y-121918355D01*
X181966890Y-121748524D01*
X181737000Y-121869845D01*
X181483000Y-121869845D01*
X181253110Y-121748524D01*
X180895500Y-121896642D01*
X180895500Y-120575525D01*
X180938302Y-120618327D01*
X181171691Y-120715000D01*
X181499750Y-120715000D01*
X181658500Y-120556250D01*
X181658500Y-119507000D01*
X181912500Y-119507000D01*
X181912500Y-120556250D01*
X182071250Y-120715000D01*
X182399309Y-120715000D01*
X182632698Y-120618327D01*
X182811327Y-120439699D01*
X182908000Y-120206310D01*
X182908000Y-119665750D01*
X182749250Y-119507000D01*
X181912500Y-119507000D01*
X181658500Y-119507000D01*
X181638500Y-119507000D01*
X181638500Y-119253000D01*
X181658500Y-119253000D01*
X181658500Y-117475000D01*
X181912500Y-117475000D01*
X181912500Y-119253000D01*
X182749250Y-119253000D01*
X182908000Y-119094250D01*
X182908000Y-118553690D01*
X182829428Y-118364000D01*
X182908000Y-118174310D01*
X182908000Y-117633750D01*
X182749250Y-117475000D01*
X181912500Y-117475000D01*
X181658500Y-117475000D01*
X181638500Y-117475000D01*
X181638500Y-117221000D01*
X181658500Y-117221000D01*
X181658500Y-117201000D01*
X181912500Y-117201000D01*
X181912500Y-117221000D01*
X182749250Y-117221000D01*
X182908000Y-117062250D01*
X182908000Y-116521690D01*
X182868778Y-116427000D01*
X183715715Y-116427000D01*
X183810235Y-116490157D01*
X184058000Y-116539440D01*
X185258000Y-116539440D01*
X185505765Y-116490157D01*
X185715809Y-116349809D01*
X185856157Y-116139765D01*
X185905440Y-115892000D01*
X185905440Y-114992000D01*
X185856157Y-114744235D01*
X185715809Y-114534191D01*
X185505765Y-114393843D01*
X185258000Y-114344560D01*
X184058000Y-114344560D01*
X183810235Y-114393843D01*
X183715715Y-114457000D01*
X182889871Y-114457000D01*
X182737916Y-114229584D01*
X182448794Y-114036398D01*
X182107750Y-113968560D01*
X181620250Y-113968560D01*
X181279206Y-114036398D01*
X180990084Y-114229584D01*
X180926500Y-114324744D01*
X180866664Y-114235194D01*
X181050780Y-114158931D01*
X181341931Y-113867780D01*
X181499500Y-113487374D01*
X181499500Y-113153000D01*
X183344839Y-113153000D01*
X183432000Y-113170337D01*
X183519161Y-113153000D01*
X183519165Y-113153000D01*
X183700611Y-113116908D01*
X183810235Y-113190157D01*
X184058000Y-113239440D01*
X185258000Y-113239440D01*
X185505765Y-113190157D01*
X185715809Y-113049809D01*
X185856157Y-112839765D01*
X185905440Y-112592000D01*
X185905440Y-111692000D01*
X185856157Y-111444235D01*
X185715809Y-111234191D01*
X185505765Y-111093843D01*
X185258000Y-111044560D01*
X184058000Y-111044560D01*
X183810235Y-111093843D01*
X183600191Y-111234191D01*
X183592014Y-111246429D01*
X183558000Y-111239663D01*
X183470839Y-111257000D01*
X183470835Y-111257000D01*
X183212690Y-111308348D01*
X183100966Y-111383000D01*
X181502000Y-111383000D01*
X181502000Y-111173126D01*
X181452000Y-111052415D01*
X181452000Y-109660006D01*
X181471296Y-109562999D01*
X181452000Y-109465992D01*
X181452000Y-109465988D01*
X181394849Y-109178672D01*
X181177145Y-108852855D01*
X181094902Y-108797902D01*
X179366440Y-107069440D01*
X179366440Y-106815000D01*
X179329729Y-106630440D01*
X179519250Y-106630440D01*
X179860294Y-106562602D01*
X180149416Y-106369416D01*
X180150207Y-106368233D01*
X180303302Y-106521327D01*
X180536691Y-106618000D01*
X180864750Y-106618000D01*
X181023500Y-106459250D01*
X181023500Y-105410000D01*
X181277500Y-105410000D01*
X181277500Y-106459250D01*
X181436250Y-106618000D01*
X181764309Y-106618000D01*
X181997698Y-106521327D01*
X182176327Y-106342699D01*
X182273000Y-106109310D01*
X182273000Y-105568750D01*
X182114250Y-105410000D01*
X181277500Y-105410000D01*
X181023500Y-105410000D01*
X181003500Y-105410000D01*
X181003500Y-105156000D01*
X181023500Y-105156000D01*
X181023500Y-104106750D01*
X181277500Y-104106750D01*
X181277500Y-105156000D01*
X182114250Y-105156000D01*
X182273000Y-104997250D01*
X182273000Y-104456690D01*
X182176327Y-104223301D01*
X181997698Y-104044673D01*
X181764309Y-103948000D01*
X181436250Y-103948000D01*
X181277500Y-104106750D01*
X181023500Y-104106750D01*
X180864750Y-103948000D01*
X180536691Y-103948000D01*
X180303302Y-104044673D01*
X180150207Y-104197767D01*
X180149416Y-104196584D01*
X179860294Y-104003398D01*
X179519250Y-103935560D01*
X179031750Y-103935560D01*
X178785000Y-103984642D01*
X178785000Y-101457838D01*
X178870625Y-101400625D01*
X179083843Y-101081522D01*
X179144817Y-101211358D01*
X179573076Y-101601645D01*
X179983110Y-101771476D01*
X180213000Y-101650155D01*
X180213000Y-100457000D01*
X180467000Y-100457000D01*
X180467000Y-101650155D01*
X180696890Y-101771476D01*
X181106924Y-101601645D01*
X181535183Y-101211358D01*
X181781486Y-100686892D01*
X181660819Y-100457000D01*
X180467000Y-100457000D01*
X180213000Y-100457000D01*
X180193000Y-100457000D01*
X180193000Y-100203000D01*
X180213000Y-100203000D01*
X180213000Y-97917000D01*
X180467000Y-97917000D01*
X180467000Y-100203000D01*
X181660819Y-100203000D01*
X181781486Y-99973108D01*
X181535183Y-99448642D01*
X181108729Y-99060000D01*
X181535183Y-98671358D01*
X181781486Y-98146892D01*
X181660819Y-97917000D01*
X180467000Y-97917000D01*
X180213000Y-97917000D01*
X180193000Y-97917000D01*
X180193000Y-97663000D01*
X180213000Y-97663000D01*
X180213000Y-96469845D01*
X180467000Y-96469845D01*
X180467000Y-97663000D01*
X181660819Y-97663000D01*
X181781486Y-97433108D01*
X181535183Y-96908642D01*
X181106924Y-96518355D01*
X180696890Y-96348524D01*
X180467000Y-96469845D01*
X180213000Y-96469845D01*
X179983110Y-96348524D01*
X179573076Y-96518355D01*
X179144817Y-96908642D01*
X179083843Y-97038478D01*
X178870625Y-96719375D01*
X178379418Y-96391161D01*
X177946256Y-96305000D01*
X177653744Y-96305000D01*
X177220582Y-96391161D01*
X176729375Y-96719375D01*
X176516157Y-97038478D01*
X176455183Y-96908642D01*
X176026924Y-96518355D01*
X175616890Y-96348524D01*
X175387000Y-96469845D01*
X175387000Y-97663000D01*
X175407000Y-97663000D01*
X175407000Y-97917000D01*
X175387000Y-97917000D01*
X175387000Y-100203000D01*
X175407000Y-100203000D01*
X175407000Y-100457000D01*
X175387000Y-100457000D01*
X175387000Y-101656250D01*
X175545750Y-101815000D01*
X176236310Y-101815000D01*
X176469699Y-101718327D01*
X176648327Y-101539698D01*
X176714904Y-101378967D01*
X176729375Y-101400625D01*
X176815000Y-101457838D01*
X176815001Y-104048637D01*
X176593584Y-104196584D01*
X176592793Y-104197767D01*
X176439698Y-104044673D01*
X176206309Y-103948000D01*
X175878250Y-103948000D01*
X175719500Y-104106750D01*
X175719500Y-105156000D01*
X175739500Y-105156000D01*
X175739500Y-105410000D01*
X175719500Y-105410000D01*
X175719500Y-105430000D01*
X175465500Y-105430000D01*
X175465500Y-105410000D01*
X174628750Y-105410000D01*
X174470000Y-105568750D01*
X174470000Y-106109310D01*
X174566673Y-106342699D01*
X174745302Y-106521327D01*
X174780218Y-106535790D01*
X174676855Y-106604855D01*
X174657429Y-106633929D01*
X174628355Y-106653355D01*
X174573402Y-106735598D01*
X174497231Y-106849597D01*
X174410651Y-106979173D01*
X174353500Y-107266489D01*
X174353500Y-107266492D01*
X174334204Y-107363500D01*
X174353500Y-107460508D01*
X174353501Y-108426831D01*
X174271398Y-108549706D01*
X174203560Y-108890750D01*
X174203560Y-109803250D01*
X174271398Y-110144294D01*
X174353501Y-110267169D01*
X174353501Y-110831487D01*
X174334204Y-110928500D01*
X174410651Y-111312827D01*
X174470560Y-111402487D01*
X174470560Y-111643000D01*
X174497936Y-111780631D01*
X174483000Y-111816690D01*
X174483000Y-111982250D01*
X174641748Y-112140998D01*
X174483000Y-112140998D01*
X174483000Y-112233000D01*
X174448562Y-112233000D01*
X174279294Y-112119898D01*
X173938250Y-112052060D01*
X173025750Y-112052060D01*
X172684706Y-112119898D01*
X172395584Y-112313084D01*
X172202398Y-112602206D01*
X172134560Y-112943250D01*
X172134560Y-113430750D01*
X172202398Y-113771794D01*
X172395584Y-114060916D01*
X172490744Y-114124500D01*
X172395584Y-114188084D01*
X172202398Y-114477206D01*
X172134560Y-114818250D01*
X172134560Y-115305750D01*
X172202398Y-115646794D01*
X172329059Y-115836354D01*
X172142309Y-115759000D01*
X171814250Y-115759000D01*
X171655500Y-115917750D01*
X171401500Y-115917750D01*
X171242750Y-115759000D01*
X170914691Y-115759000D01*
X170681302Y-115855673D01*
X170502673Y-116034301D01*
X170406000Y-116267690D01*
X168783000Y-116267690D01*
X168783000Y-104456690D01*
X174470000Y-104456690D01*
X174470000Y-104997250D01*
X174628750Y-105156000D01*
X175465500Y-105156000D01*
X175465500Y-104106750D01*
X175306750Y-103948000D01*
X174978691Y-103948000D01*
X174745302Y-104044673D01*
X174566673Y-104223301D01*
X174470000Y-104456690D01*
X168783000Y-104456690D01*
X168783000Y-100615750D01*
X173775000Y-100615750D01*
X173775000Y-101306309D01*
X173871673Y-101539698D01*
X174050301Y-101718327D01*
X174283690Y-101815000D01*
X174974250Y-101815000D01*
X175133000Y-101656250D01*
X175133000Y-100457000D01*
X173933750Y-100457000D01*
X173775000Y-100615750D01*
X168783000Y-100615750D01*
X168783000Y-99353691D01*
X173775000Y-99353691D01*
X173775000Y-100044250D01*
X173933750Y-100203000D01*
X175133000Y-100203000D01*
X175133000Y-97917000D01*
X173939181Y-97917000D01*
X173818514Y-98146892D01*
X174064817Y-98671358D01*
X174264208Y-98853070D01*
X174050301Y-98941673D01*
X173871673Y-99120302D01*
X173775000Y-99353691D01*
X168783000Y-99353691D01*
X168783000Y-97433108D01*
X173818514Y-97433108D01*
X173939181Y-97663000D01*
X175133000Y-97663000D01*
X175133000Y-96469845D01*
X174903110Y-96348524D01*
X174493076Y-96518355D01*
X174064817Y-96908642D01*
X173818514Y-97433108D01*
X168783000Y-97433108D01*
X168783000Y-90716954D01*
X169085000Y-90716954D01*
X169085000Y-92163046D01*
X169638396Y-93499062D01*
X170660938Y-94521604D01*
X171996954Y-95075000D01*
X173443046Y-95075000D01*
X174779062Y-94521604D01*
X175801604Y-93499062D01*
X176355000Y-92163046D01*
X176355000Y-90716954D01*
X179245000Y-90716954D01*
X179245000Y-92163046D01*
X179798396Y-93499062D01*
X180820938Y-94521604D01*
X182156954Y-95075000D01*
X183603046Y-95075000D01*
X184939062Y-94521604D01*
X185961604Y-93499062D01*
X186515000Y-92163046D01*
X186515000Y-90716954D01*
X185961604Y-89380938D01*
X184939062Y-88358396D01*
X183603046Y-87805000D01*
X182156954Y-87805000D01*
X180820938Y-88358396D01*
X179798396Y-89380938D01*
X179245000Y-90716954D01*
X176355000Y-90716954D01*
X175801604Y-89380938D01*
X174779062Y-88358396D01*
X173443046Y-87805000D01*
X171996954Y-87805000D01*
X170660938Y-88358396D01*
X169638396Y-89380938D01*
X169085000Y-90716954D01*
X168783000Y-90716954D01*
X168783000Y-87503000D01*
X186817000Y-87503000D01*
X186817000Y-136271000D01*
X186817000Y-136271000D01*
G37*
X186817000Y-136271000D02*
X168783000Y-136271000D01*
X168783000Y-131610954D01*
X169085000Y-131610954D01*
X169085000Y-133057046D01*
X169638396Y-134393062D01*
X170660938Y-135415604D01*
X171996954Y-135969000D01*
X173443046Y-135969000D01*
X174779062Y-135415604D01*
X175801604Y-134393062D01*
X176355000Y-133057046D01*
X176355000Y-131610954D01*
X179245000Y-131610954D01*
X179245000Y-133057046D01*
X179798396Y-134393062D01*
X180820938Y-135415604D01*
X182156954Y-135969000D01*
X183603046Y-135969000D01*
X184939062Y-135415604D01*
X185961604Y-134393062D01*
X186515000Y-133057046D01*
X186515000Y-131610954D01*
X185961604Y-130274938D01*
X184939062Y-129252396D01*
X183603046Y-128699000D01*
X182156954Y-128699000D01*
X180820938Y-129252396D01*
X179798396Y-130274938D01*
X179245000Y-131610954D01*
X176355000Y-131610954D01*
X175801604Y-130274938D01*
X174779062Y-129252396D01*
X173443046Y-128699000D01*
X171996954Y-128699000D01*
X170660938Y-129252396D01*
X169638396Y-130274938D01*
X169085000Y-131610954D01*
X168783000Y-131610954D01*
X168783000Y-126015750D01*
X172505000Y-126015750D01*
X172505000Y-126706309D01*
X172601673Y-126939698D01*
X172780301Y-127118327D01*
X173013690Y-127215000D01*
X173704250Y-127215000D01*
X173863000Y-127056250D01*
X173863000Y-125857000D01*
X172663750Y-125857000D01*
X172505000Y-126015750D01*
X168783000Y-126015750D01*
X168783000Y-124753691D01*
X172505000Y-124753691D01*
X172505000Y-125444250D01*
X172663750Y-125603000D01*
X173863000Y-125603000D01*
X173863000Y-123317000D01*
X172669181Y-123317000D01*
X172548514Y-123546892D01*
X172794817Y-124071358D01*
X172994208Y-124253070D01*
X172780301Y-124341673D01*
X172601673Y-124520302D01*
X172505000Y-124753691D01*
X168783000Y-124753691D01*
X168783000Y-122833108D01*
X172548514Y-122833108D01*
X172669181Y-123063000D01*
X173863000Y-123063000D01*
X173863000Y-121869845D01*
X173633110Y-121748524D01*
X173223076Y-121918355D01*
X172794817Y-122308642D01*
X172548514Y-122833108D01*
X168783000Y-122833108D01*
X168783000Y-119411750D01*
X170406000Y-119411750D01*
X170406000Y-119952310D01*
X170502673Y-120185699D01*
X170681302Y-120364327D01*
X170914691Y-120461000D01*
X171242750Y-120461000D01*
X171401500Y-120302250D01*
X171401500Y-119253000D01*
X170564750Y-119253000D01*
X170406000Y-119411750D01*
X168783000Y-119411750D01*
X168783000Y-117379750D01*
X170406000Y-117379750D01*
X170406000Y-117920310D01*
X170484572Y-118110000D01*
X170406000Y-118299690D01*
X170406000Y-118840250D01*
X170564750Y-118999000D01*
X171401500Y-118999000D01*
X171401500Y-117221000D01*
X170564750Y-117221000D01*
X170406000Y-117379750D01*
X168783000Y-117379750D01*
X168783000Y-116267690D01*
X170406000Y-116267690D01*
X170406000Y-116808250D01*
X170564750Y-116967000D01*
X171401500Y-116967000D01*
X171401500Y-115917750D01*
X171655500Y-115917750D01*
X171655500Y-116967000D01*
X171675500Y-116967000D01*
X171675500Y-117221000D01*
X171655500Y-117221000D01*
X171655500Y-118999000D01*
X171675500Y-118999000D01*
X171675500Y-119253000D01*
X171655500Y-119253000D01*
X171655500Y-120302250D01*
X171814250Y-120461000D01*
X172142309Y-120461000D01*
X172375698Y-120364327D01*
X172528793Y-120211233D01*
X172529584Y-120212416D01*
X172818706Y-120405602D01*
X173159750Y-120473440D01*
X173647250Y-120473440D01*
X173988294Y-120405602D01*
X174277416Y-120212416D01*
X174345180Y-120111000D01*
X174650820Y-120111000D01*
X174718584Y-120212416D01*
X175007706Y-120405602D01*
X175348750Y-120473440D01*
X175836250Y-120473440D01*
X176177294Y-120405602D01*
X176466416Y-120212416D01*
X176530000Y-120117256D01*
X176593584Y-120212416D01*
X176882706Y-120405602D01*
X177223750Y-120473440D01*
X177711250Y-120473440D01*
X178052294Y-120405602D01*
X178341416Y-120212416D01*
X178409180Y-120111000D01*
X178830211Y-120111000D01*
X178843398Y-120177294D01*
X178925500Y-120300168D01*
X178925501Y-121705000D01*
X178923744Y-121705000D01*
X178490582Y-121791161D01*
X177999375Y-122119375D01*
X177942162Y-122205000D01*
X177657838Y-122205000D01*
X177600625Y-122119375D01*
X177109418Y-121791161D01*
X176676256Y-121705000D01*
X176383744Y-121705000D01*
X175950582Y-121791161D01*
X175459375Y-122119375D01*
X175246157Y-122438478D01*
X175185183Y-122308642D01*
X174756924Y-121918355D01*
X174346890Y-121748524D01*
X174117000Y-121869845D01*
X174117000Y-123063000D01*
X174137000Y-123063000D01*
X174137000Y-123317000D01*
X174117000Y-123317000D01*
X174117000Y-125603000D01*
X174137000Y-125603000D01*
X174137000Y-125857000D01*
X174117000Y-125857000D01*
X174117000Y-127056250D01*
X174275750Y-127215000D01*
X174966310Y-127215000D01*
X175199699Y-127118327D01*
X175378327Y-126939698D01*
X175444904Y-126778967D01*
X175459375Y-126800625D01*
X175950582Y-127128839D01*
X176383744Y-127215000D01*
X176676256Y-127215000D01*
X177109418Y-127128839D01*
X177600625Y-126800625D01*
X177657838Y-126715000D01*
X177942162Y-126715000D01*
X177999375Y-126800625D01*
X178490582Y-127128839D01*
X178923744Y-127215000D01*
X179216256Y-127215000D01*
X179649418Y-127128839D01*
X180140625Y-126800625D01*
X180353843Y-126481522D01*
X180414817Y-126611358D01*
X180843076Y-127001645D01*
X181253110Y-127171476D01*
X181483000Y-127050155D01*
X181483000Y-125857000D01*
X181737000Y-125857000D01*
X181737000Y-127050155D01*
X181966890Y-127171476D01*
X182376924Y-127001645D01*
X182805183Y-126611358D01*
X183051486Y-126086892D01*
X182930819Y-125857000D01*
X181737000Y-125857000D01*
X181483000Y-125857000D01*
X181463000Y-125857000D01*
X181463000Y-125603000D01*
X181483000Y-125603000D01*
X181483000Y-123317000D01*
X181737000Y-123317000D01*
X181737000Y-125603000D01*
X182930819Y-125603000D01*
X183051486Y-125373108D01*
X182805183Y-124848642D01*
X182378729Y-124460000D01*
X182805183Y-124071358D01*
X183051486Y-123546892D01*
X182930819Y-123317000D01*
X181737000Y-123317000D01*
X181483000Y-123317000D01*
X181463000Y-123317000D01*
X181463000Y-123063000D01*
X181483000Y-123063000D01*
X181483000Y-121869845D01*
X181737000Y-121869845D01*
X181737000Y-123063000D01*
X182930819Y-123063000D01*
X183051486Y-122833108D01*
X182805183Y-122308642D01*
X182376924Y-121918355D01*
X181966890Y-121748524D01*
X181737000Y-121869845D01*
X181483000Y-121869845D01*
X181253110Y-121748524D01*
X180895500Y-121896642D01*
X180895500Y-120575525D01*
X180938302Y-120618327D01*
X181171691Y-120715000D01*
X181499750Y-120715000D01*
X181658500Y-120556250D01*
X181658500Y-119507000D01*
X181912500Y-119507000D01*
X181912500Y-120556250D01*
X182071250Y-120715000D01*
X182399309Y-120715000D01*
X182632698Y-120618327D01*
X182811327Y-120439699D01*
X182908000Y-120206310D01*
X182908000Y-119665750D01*
X182749250Y-119507000D01*
X181912500Y-119507000D01*
X181658500Y-119507000D01*
X181638500Y-119507000D01*
X181638500Y-119253000D01*
X181658500Y-119253000D01*
X181658500Y-117475000D01*
X181912500Y-117475000D01*
X181912500Y-119253000D01*
X182749250Y-119253000D01*
X182908000Y-119094250D01*
X182908000Y-118553690D01*
X182829428Y-118364000D01*
X182908000Y-118174310D01*
X182908000Y-117633750D01*
X182749250Y-117475000D01*
X181912500Y-117475000D01*
X181658500Y-117475000D01*
X181638500Y-117475000D01*
X181638500Y-117221000D01*
X181658500Y-117221000D01*
X181658500Y-117201000D01*
X181912500Y-117201000D01*
X181912500Y-117221000D01*
X182749250Y-117221000D01*
X182908000Y-117062250D01*
X182908000Y-116521690D01*
X182868778Y-116427000D01*
X183715715Y-116427000D01*
X183810235Y-116490157D01*
X184058000Y-116539440D01*
X185258000Y-116539440D01*
X185505765Y-116490157D01*
X185715809Y-116349809D01*
X185856157Y-116139765D01*
X185905440Y-115892000D01*
X185905440Y-114992000D01*
X185856157Y-114744235D01*
X185715809Y-114534191D01*
X185505765Y-114393843D01*
X185258000Y-114344560D01*
X184058000Y-114344560D01*
X183810235Y-114393843D01*
X183715715Y-114457000D01*
X182889871Y-114457000D01*
X182737916Y-114229584D01*
X182448794Y-114036398D01*
X182107750Y-113968560D01*
X181620250Y-113968560D01*
X181279206Y-114036398D01*
X180990084Y-114229584D01*
X180926500Y-114324744D01*
X180866664Y-114235194D01*
X181050780Y-114158931D01*
X181341931Y-113867780D01*
X181499500Y-113487374D01*
X181499500Y-113153000D01*
X183344839Y-113153000D01*
X183432000Y-113170337D01*
X183519161Y-113153000D01*
X183519165Y-113153000D01*
X183700611Y-113116908D01*
X183810235Y-113190157D01*
X184058000Y-113239440D01*
X185258000Y-113239440D01*
X185505765Y-113190157D01*
X185715809Y-113049809D01*
X185856157Y-112839765D01*
X185905440Y-112592000D01*
X185905440Y-111692000D01*
X185856157Y-111444235D01*
X185715809Y-111234191D01*
X185505765Y-111093843D01*
X185258000Y-111044560D01*
X184058000Y-111044560D01*
X183810235Y-111093843D01*
X183600191Y-111234191D01*
X183592014Y-111246429D01*
X183558000Y-111239663D01*
X183470839Y-111257000D01*
X183470835Y-111257000D01*
X183212690Y-111308348D01*
X183100966Y-111383000D01*
X181502000Y-111383000D01*
X181502000Y-111173126D01*
X181452000Y-111052415D01*
X181452000Y-109660006D01*
X181471296Y-109562999D01*
X181452000Y-109465992D01*
X181452000Y-109465988D01*
X181394849Y-109178672D01*
X181177145Y-108852855D01*
X181094902Y-108797902D01*
X179366440Y-107069440D01*
X179366440Y-106815000D01*
X179329729Y-106630440D01*
X179519250Y-106630440D01*
X179860294Y-106562602D01*
X180149416Y-106369416D01*
X180150207Y-106368233D01*
X180303302Y-106521327D01*
X180536691Y-106618000D01*
X180864750Y-106618000D01*
X181023500Y-106459250D01*
X181023500Y-105410000D01*
X181277500Y-105410000D01*
X181277500Y-106459250D01*
X181436250Y-106618000D01*
X181764309Y-106618000D01*
X181997698Y-106521327D01*
X182176327Y-106342699D01*
X182273000Y-106109310D01*
X182273000Y-105568750D01*
X182114250Y-105410000D01*
X181277500Y-105410000D01*
X181023500Y-105410000D01*
X181003500Y-105410000D01*
X181003500Y-105156000D01*
X181023500Y-105156000D01*
X181023500Y-104106750D01*
X181277500Y-104106750D01*
X181277500Y-105156000D01*
X182114250Y-105156000D01*
X182273000Y-104997250D01*
X182273000Y-104456690D01*
X182176327Y-104223301D01*
X181997698Y-104044673D01*
X181764309Y-103948000D01*
X181436250Y-103948000D01*
X181277500Y-104106750D01*
X181023500Y-104106750D01*
X180864750Y-103948000D01*
X180536691Y-103948000D01*
X180303302Y-104044673D01*
X180150207Y-104197767D01*
X180149416Y-104196584D01*
X179860294Y-104003398D01*
X179519250Y-103935560D01*
X179031750Y-103935560D01*
X178785000Y-103984642D01*
X178785000Y-101457838D01*
X178870625Y-101400625D01*
X179083843Y-101081522D01*
X179144817Y-101211358D01*
X179573076Y-101601645D01*
X179983110Y-101771476D01*
X180213000Y-101650155D01*
X180213000Y-100457000D01*
X180467000Y-100457000D01*
X180467000Y-101650155D01*
X180696890Y-101771476D01*
X181106924Y-101601645D01*
X181535183Y-101211358D01*
X181781486Y-100686892D01*
X181660819Y-100457000D01*
X180467000Y-100457000D01*
X180213000Y-100457000D01*
X180193000Y-100457000D01*
X180193000Y-100203000D01*
X180213000Y-100203000D01*
X180213000Y-97917000D01*
X180467000Y-97917000D01*
X180467000Y-100203000D01*
X181660819Y-100203000D01*
X181781486Y-99973108D01*
X181535183Y-99448642D01*
X181108729Y-99060000D01*
X181535183Y-98671358D01*
X181781486Y-98146892D01*
X181660819Y-97917000D01*
X180467000Y-97917000D01*
X180213000Y-97917000D01*
X180193000Y-97917000D01*
X180193000Y-97663000D01*
X180213000Y-97663000D01*
X180213000Y-96469845D01*
X180467000Y-96469845D01*
X180467000Y-97663000D01*
X181660819Y-97663000D01*
X181781486Y-97433108D01*
X181535183Y-96908642D01*
X181106924Y-96518355D01*
X180696890Y-96348524D01*
X180467000Y-96469845D01*
X180213000Y-96469845D01*
X179983110Y-96348524D01*
X179573076Y-96518355D01*
X179144817Y-96908642D01*
X179083843Y-97038478D01*
X178870625Y-96719375D01*
X178379418Y-96391161D01*
X177946256Y-96305000D01*
X177653744Y-96305000D01*
X177220582Y-96391161D01*
X176729375Y-96719375D01*
X176516157Y-97038478D01*
X176455183Y-96908642D01*
X176026924Y-96518355D01*
X175616890Y-96348524D01*
X175387000Y-96469845D01*
X175387000Y-97663000D01*
X175407000Y-97663000D01*
X175407000Y-97917000D01*
X175387000Y-97917000D01*
X175387000Y-100203000D01*
X175407000Y-100203000D01*
X175407000Y-100457000D01*
X175387000Y-100457000D01*
X175387000Y-101656250D01*
X175545750Y-101815000D01*
X176236310Y-101815000D01*
X176469699Y-101718327D01*
X176648327Y-101539698D01*
X176714904Y-101378967D01*
X176729375Y-101400625D01*
X176815000Y-101457838D01*
X176815001Y-104048637D01*
X176593584Y-104196584D01*
X176592793Y-104197767D01*
X176439698Y-104044673D01*
X176206309Y-103948000D01*
X175878250Y-103948000D01*
X175719500Y-104106750D01*
X175719500Y-105156000D01*
X175739500Y-105156000D01*
X175739500Y-105410000D01*
X175719500Y-105410000D01*
X175719500Y-105430000D01*
X175465500Y-105430000D01*
X175465500Y-105410000D01*
X174628750Y-105410000D01*
X174470000Y-105568750D01*
X174470000Y-106109310D01*
X174566673Y-106342699D01*
X174745302Y-106521327D01*
X174780218Y-106535790D01*
X174676855Y-106604855D01*
X174657429Y-106633929D01*
X174628355Y-106653355D01*
X174573402Y-106735598D01*
X174497231Y-106849597D01*
X174410651Y-106979173D01*
X174353500Y-107266489D01*
X174353500Y-107266492D01*
X174334204Y-107363500D01*
X174353500Y-107460508D01*
X174353501Y-108426831D01*
X174271398Y-108549706D01*
X174203560Y-108890750D01*
X174203560Y-109803250D01*
X174271398Y-110144294D01*
X174353501Y-110267169D01*
X174353501Y-110831487D01*
X174334204Y-110928500D01*
X174410651Y-111312827D01*
X174470560Y-111402487D01*
X174470560Y-111643000D01*
X174497936Y-111780631D01*
X174483000Y-111816690D01*
X174483000Y-111982250D01*
X174641748Y-112140998D01*
X174483000Y-112140998D01*
X174483000Y-112233000D01*
X174448562Y-112233000D01*
X174279294Y-112119898D01*
X173938250Y-112052060D01*
X173025750Y-112052060D01*
X172684706Y-112119898D01*
X172395584Y-112313084D01*
X172202398Y-112602206D01*
X172134560Y-112943250D01*
X172134560Y-113430750D01*
X172202398Y-113771794D01*
X172395584Y-114060916D01*
X172490744Y-114124500D01*
X172395584Y-114188084D01*
X172202398Y-114477206D01*
X172134560Y-114818250D01*
X172134560Y-115305750D01*
X172202398Y-115646794D01*
X172329059Y-115836354D01*
X172142309Y-115759000D01*
X171814250Y-115759000D01*
X171655500Y-115917750D01*
X171401500Y-115917750D01*
X171242750Y-115759000D01*
X170914691Y-115759000D01*
X170681302Y-115855673D01*
X170502673Y-116034301D01*
X170406000Y-116267690D01*
X168783000Y-116267690D01*
X168783000Y-104456690D01*
X174470000Y-104456690D01*
X174470000Y-104997250D01*
X174628750Y-105156000D01*
X175465500Y-105156000D01*
X175465500Y-104106750D01*
X175306750Y-103948000D01*
X174978691Y-103948000D01*
X174745302Y-104044673D01*
X174566673Y-104223301D01*
X174470000Y-104456690D01*
X168783000Y-104456690D01*
X168783000Y-100615750D01*
X173775000Y-100615750D01*
X173775000Y-101306309D01*
X173871673Y-101539698D01*
X174050301Y-101718327D01*
X174283690Y-101815000D01*
X174974250Y-101815000D01*
X175133000Y-101656250D01*
X175133000Y-100457000D01*
X173933750Y-100457000D01*
X173775000Y-100615750D01*
X168783000Y-100615750D01*
X168783000Y-99353691D01*
X173775000Y-99353691D01*
X173775000Y-100044250D01*
X173933750Y-100203000D01*
X175133000Y-100203000D01*
X175133000Y-97917000D01*
X173939181Y-97917000D01*
X173818514Y-98146892D01*
X174064817Y-98671358D01*
X174264208Y-98853070D01*
X174050301Y-98941673D01*
X173871673Y-99120302D01*
X173775000Y-99353691D01*
X168783000Y-99353691D01*
X168783000Y-97433108D01*
X173818514Y-97433108D01*
X173939181Y-97663000D01*
X175133000Y-97663000D01*
X175133000Y-96469845D01*
X174903110Y-96348524D01*
X174493076Y-96518355D01*
X174064817Y-96908642D01*
X173818514Y-97433108D01*
X168783000Y-97433108D01*
X168783000Y-90716954D01*
X169085000Y-90716954D01*
X169085000Y-92163046D01*
X169638396Y-93499062D01*
X170660938Y-94521604D01*
X171996954Y-95075000D01*
X173443046Y-95075000D01*
X174779062Y-94521604D01*
X175801604Y-93499062D01*
X176355000Y-92163046D01*
X176355000Y-90716954D01*
X179245000Y-90716954D01*
X179245000Y-92163046D01*
X179798396Y-93499062D01*
X180820938Y-94521604D01*
X182156954Y-95075000D01*
X183603046Y-95075000D01*
X184939062Y-94521604D01*
X185961604Y-93499062D01*
X186515000Y-92163046D01*
X186515000Y-90716954D01*
X185961604Y-89380938D01*
X184939062Y-88358396D01*
X183603046Y-87805000D01*
X182156954Y-87805000D01*
X180820938Y-88358396D01*
X179798396Y-89380938D01*
X179245000Y-90716954D01*
X176355000Y-90716954D01*
X175801604Y-89380938D01*
X174779062Y-88358396D01*
X173443046Y-87805000D01*
X171996954Y-87805000D01*
X170660938Y-88358396D01*
X169638396Y-89380938D01*
X169085000Y-90716954D01*
X168783000Y-90716954D01*
X168783000Y-87503000D01*
X186817000Y-87503000D01*
X186817000Y-136271000D01*
G04 #@! TD*
M02*
