G04 #@! TF.GenerationSoftware,KiCad,Pcbnew,(6.0.0-rc1-dev-205-gc0615c5ef)*
G04 #@! TF.CreationDate,2019-09-04T07:24:19+02:00*
G04 #@! TF.ProjectId,LT3483,4C54333438332E6B696361645F706362,v01*
G04 #@! TF.SameCoordinates,Original*
G04 #@! TF.FileFunction,Legend,Top*
G04 #@! TF.FilePolarity,Positive*
%FSLAX46Y46*%
G04 Gerber Fmt 4.6, Leading zero omitted, Abs format (unit mm)*
G04 Created by KiCad (PCBNEW (6.0.0-rc1-dev-205-gc0615c5ef)) date 09/04/19 07:24:19*
%MOMM*%
%LPD*%
G01*
G04 APERTURE LIST*
%ADD10C,0.300000*%
%ADD11C,0.200000*%
%ADD12C,0.120000*%
%ADD13C,0.150000*%
G04 APERTURE END LIST*
D10*
X170754523Y-110096904D02*
X169484523Y-110096904D01*
X169907857Y-109492142D02*
X170754523Y-109492142D01*
X170028809Y-109492142D02*
X169968333Y-109431666D01*
X169907857Y-109310714D01*
X169907857Y-109129285D01*
X169968333Y-109008333D01*
X170089285Y-108947857D01*
X170754523Y-108947857D01*
X169907857Y-108464047D02*
X170754523Y-108161666D01*
X169907857Y-107859285D01*
X170694047Y-106891666D02*
X170754523Y-107012619D01*
X170754523Y-107254523D01*
X170694047Y-107375476D01*
X170573095Y-107435952D01*
X170089285Y-107435952D01*
X169968333Y-107375476D01*
X169907857Y-107254523D01*
X169907857Y-107012619D01*
X169968333Y-106891666D01*
X170089285Y-106831190D01*
X170210238Y-106831190D01*
X170331190Y-107435952D01*
X170754523Y-106286904D02*
X169907857Y-106286904D01*
X170149761Y-106286904D02*
X170028809Y-106226428D01*
X169968333Y-106165952D01*
X169907857Y-106045000D01*
X169907857Y-105924047D01*
X170633571Y-105500714D02*
X170694047Y-105440238D01*
X170754523Y-105500714D01*
X170694047Y-105561190D01*
X170633571Y-105500714D01*
X170754523Y-105500714D01*
X170694047Y-103384047D02*
X170754523Y-103505000D01*
X170754523Y-103746904D01*
X170694047Y-103867857D01*
X170633571Y-103928333D01*
X170512619Y-103988809D01*
X170149761Y-103988809D01*
X170028809Y-103928333D01*
X169968333Y-103867857D01*
X169907857Y-103746904D01*
X169907857Y-103505000D01*
X169968333Y-103384047D01*
X170754523Y-102658333D02*
X170694047Y-102779285D01*
X170633571Y-102839761D01*
X170512619Y-102900238D01*
X170149761Y-102900238D01*
X170028809Y-102839761D01*
X169968333Y-102779285D01*
X169907857Y-102658333D01*
X169907857Y-102476904D01*
X169968333Y-102355952D01*
X170028809Y-102295476D01*
X170149761Y-102235000D01*
X170512619Y-102235000D01*
X170633571Y-102295476D01*
X170694047Y-102355952D01*
X170754523Y-102476904D01*
X170754523Y-102658333D01*
X169907857Y-101690714D02*
X170754523Y-101690714D01*
X170028809Y-101690714D02*
X169968333Y-101630238D01*
X169907857Y-101509285D01*
X169907857Y-101327857D01*
X169968333Y-101206904D01*
X170089285Y-101146428D01*
X170754523Y-101146428D01*
X169907857Y-100662619D02*
X170754523Y-100360238D01*
X169907857Y-100057857D01*
X170694047Y-99090238D02*
X170754523Y-99211190D01*
X170754523Y-99453095D01*
X170694047Y-99574047D01*
X170573095Y-99634523D01*
X170089285Y-99634523D01*
X169968333Y-99574047D01*
X169907857Y-99453095D01*
X169907857Y-99211190D01*
X169968333Y-99090238D01*
X170089285Y-99029761D01*
X170210238Y-99029761D01*
X170331190Y-99634523D01*
X170754523Y-98485476D02*
X169907857Y-98485476D01*
X170149761Y-98485476D02*
X170028809Y-98425000D01*
X169968333Y-98364523D01*
X169907857Y-98243571D01*
X169907857Y-98122619D01*
X169907857Y-97880714D02*
X169907857Y-97396904D01*
X169484523Y-97699285D02*
X170573095Y-97699285D01*
X170694047Y-97638809D01*
X170754523Y-97517857D01*
X170754523Y-97396904D01*
X170754523Y-96792142D02*
X170694047Y-96913095D01*
X170633571Y-96973571D01*
X170512619Y-97034047D01*
X170149761Y-97034047D01*
X170028809Y-96973571D01*
X169968333Y-96913095D01*
X169907857Y-96792142D01*
X169907857Y-96610714D01*
X169968333Y-96489761D01*
X170028809Y-96429285D01*
X170149761Y-96368809D01*
X170512619Y-96368809D01*
X170633571Y-96429285D01*
X170694047Y-96489761D01*
X170754523Y-96610714D01*
X170754523Y-96792142D01*
X170754523Y-95824523D02*
X169907857Y-95824523D01*
X170149761Y-95824523D02*
X170028809Y-95764047D01*
X169968333Y-95703571D01*
X169907857Y-95582619D01*
X169907857Y-95461666D01*
D11*
X183752380Y-99456857D02*
X182752380Y-99456857D01*
X183752380Y-98980666D02*
X182752380Y-98980666D01*
X183752380Y-98409238D01*
X182752380Y-98409238D01*
X184547619Y-102314000D02*
X184500000Y-102266380D01*
X184452380Y-102171142D01*
X184452380Y-101933047D01*
X184500000Y-101837809D01*
X184547619Y-101790190D01*
X184642857Y-101742571D01*
X184738095Y-101742571D01*
X184880952Y-101790190D01*
X185452380Y-102361619D01*
X185452380Y-101742571D01*
X185357142Y-101314000D02*
X185404761Y-101266380D01*
X185452380Y-101314000D01*
X185404761Y-101361619D01*
X185357142Y-101314000D01*
X185452380Y-101314000D01*
X184452380Y-100361619D02*
X184452380Y-100837809D01*
X184928571Y-100885428D01*
X184880952Y-100837809D01*
X184833333Y-100742571D01*
X184833333Y-100504476D01*
X184880952Y-100409238D01*
X184928571Y-100361619D01*
X185023809Y-100314000D01*
X185261904Y-100314000D01*
X185357142Y-100361619D01*
X185404761Y-100409238D01*
X185452380Y-100504476D01*
X185452380Y-100742571D01*
X185404761Y-100837809D01*
X185357142Y-100885428D01*
X185071428Y-99885428D02*
X185071428Y-99123523D01*
X185452380Y-98123523D02*
X185452380Y-98694952D01*
X185452380Y-98409238D02*
X184452380Y-98409238D01*
X184595238Y-98504476D01*
X184690476Y-98599714D01*
X184738095Y-98694952D01*
X184452380Y-97266380D02*
X184452380Y-97456857D01*
X184500000Y-97552095D01*
X184547619Y-97599714D01*
X184690476Y-97694952D01*
X184880952Y-97742571D01*
X185261904Y-97742571D01*
X185357142Y-97694952D01*
X185404761Y-97647333D01*
X185452380Y-97552095D01*
X185452380Y-97361619D01*
X185404761Y-97266380D01*
X185357142Y-97218761D01*
X185261904Y-97171142D01*
X185023809Y-97171142D01*
X184928571Y-97218761D01*
X184880952Y-97266380D01*
X184833333Y-97361619D01*
X184833333Y-97552095D01*
X184880952Y-97647333D01*
X184928571Y-97694952D01*
X185023809Y-97742571D01*
X184452380Y-96885428D02*
X185452380Y-96552095D01*
X184452380Y-96218761D01*
X184618380Y-128094952D02*
X184618380Y-127904476D01*
X184666000Y-127809238D01*
X184761238Y-127714000D01*
X184951714Y-127666380D01*
X185285047Y-127666380D01*
X185475523Y-127714000D01*
X185570761Y-127809238D01*
X185618380Y-127904476D01*
X185618380Y-128094952D01*
X185570761Y-128190190D01*
X185475523Y-128285428D01*
X185285047Y-128333047D01*
X184951714Y-128333047D01*
X184761238Y-128285428D01*
X184666000Y-128190190D01*
X184618380Y-128094952D01*
X184618380Y-127237809D02*
X185427904Y-127237809D01*
X185523142Y-127190190D01*
X185570761Y-127142571D01*
X185618380Y-127047333D01*
X185618380Y-126856857D01*
X185570761Y-126761619D01*
X185523142Y-126714000D01*
X185427904Y-126666380D01*
X184618380Y-126666380D01*
X184618380Y-126333047D02*
X184618380Y-125761619D01*
X185618380Y-126047333D02*
X184618380Y-126047333D01*
X185237428Y-124666380D02*
X185237428Y-123904476D01*
X184618380Y-123523523D02*
X184618380Y-122904476D01*
X184999333Y-123237809D01*
X184999333Y-123094952D01*
X185046952Y-122999714D01*
X185094571Y-122952095D01*
X185189809Y-122904476D01*
X185427904Y-122904476D01*
X185523142Y-122952095D01*
X185570761Y-122999714D01*
X185618380Y-123094952D01*
X185618380Y-123380666D01*
X185570761Y-123475904D01*
X185523142Y-123523523D01*
X184713619Y-122523523D02*
X184666000Y-122475904D01*
X184618380Y-122380666D01*
X184618380Y-122142571D01*
X184666000Y-122047333D01*
X184713619Y-121999714D01*
X184808857Y-121952095D01*
X184904095Y-121952095D01*
X185046952Y-121999714D01*
X185618380Y-122571142D01*
X185618380Y-121952095D01*
X184618380Y-121666380D02*
X185618380Y-121333047D01*
X184618380Y-120999714D01*
G04 #@! TO.C,L1*
X178419000Y-108115000D02*
X176419000Y-108115000D01*
X176419000Y-106515000D02*
X178419000Y-106515000D01*
X178981000Y-107333000D02*
G75*
G03X178981000Y-107333000I-11000J0D01*
G01*
D12*
G04 #@! TO.C,D1*
X185658000Y-111542000D02*
X183658000Y-111542000D01*
X183658000Y-111542000D02*
X183658000Y-115442000D01*
X185658000Y-111542000D02*
X185658000Y-115442000D01*
G04 #@! TO.C,U1*
X176158000Y-113828000D02*
X177918000Y-113828000D01*
X177918000Y-110758000D02*
X175488000Y-110758000D01*
G04 #@! TO.C,C4*
X172772000Y-114383078D02*
X172772000Y-113865922D01*
X174192000Y-114383078D02*
X174192000Y-113865922D01*
G04 #@! TO.C,C2*
X180471578Y-104573000D02*
X179954422Y-104573000D01*
X180471578Y-105993000D02*
X179954422Y-105993000D01*
G04 #@! TO.C,C7*
X180589422Y-116638000D02*
X181106578Y-116638000D01*
X180589422Y-118058000D02*
X181106578Y-118058000D01*
G04 #@! TO.C,C6*
X172724578Y-118416000D02*
X172207422Y-118416000D01*
X172724578Y-119836000D02*
X172207422Y-119836000D01*
G04 #@! TO.C,R3*
X176788578Y-118416000D02*
X176271422Y-118416000D01*
X176788578Y-119836000D02*
X176271422Y-119836000D01*
G04 #@! TO.C,R2*
X176525422Y-114606000D02*
X177042578Y-114606000D01*
X176525422Y-116026000D02*
X177042578Y-116026000D01*
G04 #@! TO.C,C1*
X176271422Y-104573000D02*
X176788578Y-104573000D01*
X176271422Y-105993000D02*
X176788578Y-105993000D01*
G04 #@! TO.C,C3*
X176017422Y-110057000D02*
X176534578Y-110057000D01*
X176017422Y-108637000D02*
X176534578Y-108637000D01*
G04 #@! TO.C,C5*
X172724578Y-117804000D02*
X172207422Y-117804000D01*
X172724578Y-116384000D02*
X172207422Y-116384000D01*
G04 #@! TO.C,C8*
X180589422Y-120090000D02*
X181106578Y-120090000D01*
X180589422Y-118670000D02*
X181106578Y-118670000D01*
G04 #@! TO.C,R1*
X181185078Y-116026000D02*
X180667922Y-116026000D01*
X181185078Y-114606000D02*
X180667922Y-114606000D01*
G04 #@! TO.C,J1*
X181670000Y-101660000D02*
X181670000Y-96460000D01*
X176530000Y-101660000D02*
X181670000Y-101660000D01*
X173930000Y-96460000D02*
X181670000Y-96460000D01*
X176530000Y-101660000D02*
X176530000Y-99060000D01*
X176530000Y-99060000D02*
X173930000Y-99060000D01*
X173930000Y-99060000D02*
X173930000Y-96460000D01*
X175260000Y-101660000D02*
X173930000Y-101660000D01*
X173930000Y-101660000D02*
X173930000Y-100330000D01*
G04 #@! TO.C,J2*
X182940000Y-127060000D02*
X182940000Y-121860000D01*
X175260000Y-127060000D02*
X182940000Y-127060000D01*
X172660000Y-121860000D02*
X182940000Y-121860000D01*
X175260000Y-127060000D02*
X175260000Y-124460000D01*
X175260000Y-124460000D02*
X172660000Y-124460000D01*
X172660000Y-124460000D02*
X172660000Y-121860000D01*
X173990000Y-127060000D02*
X172660000Y-127060000D01*
X172660000Y-127060000D02*
X172660000Y-125730000D01*
G04 #@! TO.C,MH1*
D13*
X169172380Y-133667333D02*
X168172380Y-133667333D01*
X168886666Y-133334000D01*
X168172380Y-133000666D01*
X169172380Y-133000666D01*
X169172380Y-132524476D02*
X168172380Y-132524476D01*
X168648571Y-132524476D02*
X168648571Y-131953047D01*
X169172380Y-131953047D02*
X168172380Y-131953047D01*
X169172380Y-130953047D02*
X169172380Y-131524476D01*
X169172380Y-131238761D02*
X168172380Y-131238761D01*
X168315238Y-131334000D01*
X168410476Y-131429238D01*
X168458095Y-131524476D01*
G04 #@! TO.C,MH2*
X179332380Y-133667333D02*
X178332380Y-133667333D01*
X179046666Y-133334000D01*
X178332380Y-133000666D01*
X179332380Y-133000666D01*
X179332380Y-132524476D02*
X178332380Y-132524476D01*
X178808571Y-132524476D02*
X178808571Y-131953047D01*
X179332380Y-131953047D02*
X178332380Y-131953047D01*
X178427619Y-131524476D02*
X178380000Y-131476857D01*
X178332380Y-131381619D01*
X178332380Y-131143523D01*
X178380000Y-131048285D01*
X178427619Y-131000666D01*
X178522857Y-130953047D01*
X178618095Y-130953047D01*
X178760952Y-131000666D01*
X179332380Y-131572095D01*
X179332380Y-130953047D01*
G04 #@! TO.C,MH3*
X179332380Y-92773333D02*
X178332380Y-92773333D01*
X179046666Y-92440000D01*
X178332380Y-92106666D01*
X179332380Y-92106666D01*
X179332380Y-91630476D02*
X178332380Y-91630476D01*
X178808571Y-91630476D02*
X178808571Y-91059047D01*
X179332380Y-91059047D02*
X178332380Y-91059047D01*
X178332380Y-90678095D02*
X178332380Y-90059047D01*
X178713333Y-90392380D01*
X178713333Y-90249523D01*
X178760952Y-90154285D01*
X178808571Y-90106666D01*
X178903809Y-90059047D01*
X179141904Y-90059047D01*
X179237142Y-90106666D01*
X179284761Y-90154285D01*
X179332380Y-90249523D01*
X179332380Y-90535238D01*
X179284761Y-90630476D01*
X179237142Y-90678095D01*
G04 #@! TO.C,MH4*
X169172380Y-92773333D02*
X168172380Y-92773333D01*
X168886666Y-92440000D01*
X168172380Y-92106666D01*
X169172380Y-92106666D01*
X169172380Y-91630476D02*
X168172380Y-91630476D01*
X168648571Y-91630476D02*
X168648571Y-91059047D01*
X169172380Y-91059047D02*
X168172380Y-91059047D01*
X168505714Y-90154285D02*
X169172380Y-90154285D01*
X168124761Y-90392380D02*
X168839047Y-90630476D01*
X168839047Y-90011428D01*
G04 #@! TO.C,J1*
X171664380Y-99393333D02*
X172378666Y-99393333D01*
X172521523Y-99440952D01*
X172616761Y-99536190D01*
X172664380Y-99679047D01*
X172664380Y-99774285D01*
X172664380Y-98393333D02*
X172664380Y-98964761D01*
X172664380Y-98679047D02*
X171664380Y-98679047D01*
X171807238Y-98774285D01*
X171902476Y-98869523D01*
X171950095Y-98964761D01*
G04 #@! TO.C,J2*
X170394380Y-124793333D02*
X171108666Y-124793333D01*
X171251523Y-124840952D01*
X171346761Y-124936190D01*
X171394380Y-125079047D01*
X171394380Y-125174285D01*
X170489619Y-124364761D02*
X170442000Y-124317142D01*
X170394380Y-124221904D01*
X170394380Y-123983809D01*
X170442000Y-123888571D01*
X170489619Y-123840952D01*
X170584857Y-123793333D01*
X170680095Y-123793333D01*
X170822952Y-123840952D01*
X171394380Y-124412380D01*
X171394380Y-123793333D01*
G04 #@! TD*
M02*
