G04 #@! TF.GenerationSoftware,KiCad,Pcbnew,(6.0.0-rc1-dev-205-gc0615c5ef)*
G04 #@! TF.CreationDate,2019-09-04T07:24:19+02:00*
G04 #@! TF.ProjectId,LT3483,4C54333438332E6B696361645F706362,v01*
G04 #@! TF.SameCoordinates,Original*
G04 #@! TF.FileFunction,Copper,L2,Bot,Signal*
G04 #@! TF.FilePolarity,Positive*
%FSLAX46Y46*%
G04 Gerber Fmt 4.6, Leading zero omitted, Abs format (unit mm)*
G04 Created by KiCad (PCBNEW (6.0.0-rc1-dev-205-gc0615c5ef)) date 09/04/19 07:24:19*
%MOMM*%
%LPD*%
G01*
G04 APERTURE LIST*
G04 #@! TA.AperFunction,ComponentPad*
%ADD10C,6.000000*%
G04 #@! TD*
G04 #@! TA.AperFunction,ComponentPad*
%ADD11R,1.700000X1.700000*%
G04 #@! TD*
G04 #@! TA.AperFunction,ComponentPad*
%ADD12O,1.700000X1.700000*%
G04 #@! TD*
G04 #@! TA.AperFunction,ViaPad*
%ADD13C,0.800000*%
G04 #@! TD*
G04 #@! TA.AperFunction,Conductor*
%ADD14C,0.700000*%
G04 #@! TD*
G04 #@! TA.AperFunction,Conductor*
%ADD15C,0.254000*%
G04 #@! TD*
G04 APERTURE END LIST*
D10*
G04 #@! TO.P,MH1,1*
G04 #@! TO.N,N/C*
X172720000Y-132334000D03*
G04 #@! TD*
G04 #@! TO.P,MH2,1*
G04 #@! TO.N,N/C*
X182880000Y-132334000D03*
G04 #@! TD*
G04 #@! TO.P,MH3,1*
G04 #@! TO.N,N/C*
X182880000Y-91440000D03*
G04 #@! TD*
G04 #@! TO.P,MH4,1*
G04 #@! TO.N,N/C*
X172720000Y-91440000D03*
G04 #@! TD*
D11*
G04 #@! TO.P,J1,1*
G04 #@! TO.N,GND*
X175260000Y-100330000D03*
D12*
G04 #@! TO.P,J1,2*
X175260000Y-97790000D03*
G04 #@! TO.P,J1,3*
G04 #@! TO.N,Net-(C1-Pad2)*
X177800000Y-100330000D03*
G04 #@! TO.P,J1,4*
X177800000Y-97790000D03*
G04 #@! TO.P,J1,5*
G04 #@! TO.N,GND*
X180340000Y-100330000D03*
G04 #@! TO.P,J1,6*
X180340000Y-97790000D03*
G04 #@! TD*
D11*
G04 #@! TO.P,J2,1*
G04 #@! TO.N,GND*
X173990000Y-125730000D03*
D12*
G04 #@! TO.P,J2,2*
X173990000Y-123190000D03*
G04 #@! TO.P,J2,3*
G04 #@! TO.N,Net-(C7-Pad1)*
X176530000Y-125730000D03*
G04 #@! TO.P,J2,4*
X176530000Y-123190000D03*
G04 #@! TO.P,J2,5*
X179070000Y-125730000D03*
G04 #@! TO.P,J2,6*
X179070000Y-123190000D03*
G04 #@! TO.P,J2,7*
G04 #@! TO.N,GND*
X181610000Y-125730000D03*
G04 #@! TO.P,J2,8*
X181610000Y-123190000D03*
G04 #@! TD*
D13*
G04 #@! TO.N,GND*
X173736000Y-105410000D03*
X175514000Y-103378000D03*
X182880000Y-105410000D03*
X181102000Y-103378000D03*
X182372000Y-100330000D03*
X182372000Y-97790000D03*
X173228000Y-97790000D03*
X175260000Y-95758000D03*
X180340000Y-95758000D03*
X173228000Y-100330000D03*
X183642000Y-123190000D03*
X183642000Y-125730000D03*
X181610000Y-127762000D03*
X173990000Y-127762000D03*
X171958000Y-125730000D03*
X171958000Y-123190000D03*
X171528500Y-115316000D03*
X169926000Y-117094000D03*
X169926000Y-119126000D03*
X171450000Y-120904000D03*
X181864000Y-121158000D03*
X183388000Y-119380000D03*
X183388000Y-117348000D03*
G04 #@! TO.N,Net-(C1-Pad2)*
X180467000Y-111379000D03*
X180464500Y-113281500D03*
G04 #@! TD*
D14*
G04 #@! TO.N,Net-(C1-Pad2)*
X180467000Y-113279000D02*
X180464500Y-113281500D01*
X180467000Y-111379000D02*
X180467000Y-113279000D01*
G04 #@! TD*
D15*
G04 #@! TO.N,GND*
G36*
X186817000Y-136271000D02*
X168783000Y-136271000D01*
X168783000Y-131610954D01*
X169085000Y-131610954D01*
X169085000Y-133057046D01*
X169638396Y-134393062D01*
X170660938Y-135415604D01*
X171996954Y-135969000D01*
X173443046Y-135969000D01*
X174779062Y-135415604D01*
X175801604Y-134393062D01*
X176355000Y-133057046D01*
X176355000Y-131610954D01*
X179245000Y-131610954D01*
X179245000Y-133057046D01*
X179798396Y-134393062D01*
X180820938Y-135415604D01*
X182156954Y-135969000D01*
X183603046Y-135969000D01*
X184939062Y-135415604D01*
X185961604Y-134393062D01*
X186515000Y-133057046D01*
X186515000Y-131610954D01*
X185961604Y-130274938D01*
X184939062Y-129252396D01*
X183603046Y-128699000D01*
X182156954Y-128699000D01*
X180820938Y-129252396D01*
X179798396Y-130274938D01*
X179245000Y-131610954D01*
X176355000Y-131610954D01*
X175801604Y-130274938D01*
X174779062Y-129252396D01*
X173443046Y-128699000D01*
X171996954Y-128699000D01*
X170660938Y-129252396D01*
X169638396Y-130274938D01*
X169085000Y-131610954D01*
X168783000Y-131610954D01*
X168783000Y-126015750D01*
X172505000Y-126015750D01*
X172505000Y-126706309D01*
X172601673Y-126939698D01*
X172780301Y-127118327D01*
X173013690Y-127215000D01*
X173704250Y-127215000D01*
X173863000Y-127056250D01*
X173863000Y-125857000D01*
X172663750Y-125857000D01*
X172505000Y-126015750D01*
X168783000Y-126015750D01*
X168783000Y-124753691D01*
X172505000Y-124753691D01*
X172505000Y-125444250D01*
X172663750Y-125603000D01*
X173863000Y-125603000D01*
X173863000Y-123317000D01*
X172669181Y-123317000D01*
X172548514Y-123546892D01*
X172794817Y-124071358D01*
X172994208Y-124253070D01*
X172780301Y-124341673D01*
X172601673Y-124520302D01*
X172505000Y-124753691D01*
X168783000Y-124753691D01*
X168783000Y-122833108D01*
X172548514Y-122833108D01*
X172669181Y-123063000D01*
X173863000Y-123063000D01*
X173863000Y-121869845D01*
X174117000Y-121869845D01*
X174117000Y-123063000D01*
X174137000Y-123063000D01*
X174137000Y-123317000D01*
X174117000Y-123317000D01*
X174117000Y-125603000D01*
X174137000Y-125603000D01*
X174137000Y-125857000D01*
X174117000Y-125857000D01*
X174117000Y-127056250D01*
X174275750Y-127215000D01*
X174966310Y-127215000D01*
X175199699Y-127118327D01*
X175378327Y-126939698D01*
X175444904Y-126778967D01*
X175459375Y-126800625D01*
X175950582Y-127128839D01*
X176383744Y-127215000D01*
X176676256Y-127215000D01*
X177109418Y-127128839D01*
X177600625Y-126800625D01*
X177800000Y-126502239D01*
X177999375Y-126800625D01*
X178490582Y-127128839D01*
X178923744Y-127215000D01*
X179216256Y-127215000D01*
X179649418Y-127128839D01*
X180140625Y-126800625D01*
X180353843Y-126481522D01*
X180414817Y-126611358D01*
X180843076Y-127001645D01*
X181253110Y-127171476D01*
X181483000Y-127050155D01*
X181483000Y-125857000D01*
X181737000Y-125857000D01*
X181737000Y-127050155D01*
X181966890Y-127171476D01*
X182376924Y-127001645D01*
X182805183Y-126611358D01*
X183051486Y-126086892D01*
X182930819Y-125857000D01*
X181737000Y-125857000D01*
X181483000Y-125857000D01*
X181463000Y-125857000D01*
X181463000Y-125603000D01*
X181483000Y-125603000D01*
X181483000Y-123317000D01*
X181737000Y-123317000D01*
X181737000Y-125603000D01*
X182930819Y-125603000D01*
X183051486Y-125373108D01*
X182805183Y-124848642D01*
X182378729Y-124460000D01*
X182805183Y-124071358D01*
X183051486Y-123546892D01*
X182930819Y-123317000D01*
X181737000Y-123317000D01*
X181483000Y-123317000D01*
X181463000Y-123317000D01*
X181463000Y-123063000D01*
X181483000Y-123063000D01*
X181483000Y-121869845D01*
X181737000Y-121869845D01*
X181737000Y-123063000D01*
X182930819Y-123063000D01*
X183051486Y-122833108D01*
X182805183Y-122308642D01*
X182376924Y-121918355D01*
X181966890Y-121748524D01*
X181737000Y-121869845D01*
X181483000Y-121869845D01*
X181253110Y-121748524D01*
X180843076Y-121918355D01*
X180414817Y-122308642D01*
X180353843Y-122438478D01*
X180140625Y-122119375D01*
X179649418Y-121791161D01*
X179216256Y-121705000D01*
X178923744Y-121705000D01*
X178490582Y-121791161D01*
X177999375Y-122119375D01*
X177800000Y-122417761D01*
X177600625Y-122119375D01*
X177109418Y-121791161D01*
X176676256Y-121705000D01*
X176383744Y-121705000D01*
X175950582Y-121791161D01*
X175459375Y-122119375D01*
X175246157Y-122438478D01*
X175185183Y-122308642D01*
X174756924Y-121918355D01*
X174346890Y-121748524D01*
X174117000Y-121869845D01*
X173863000Y-121869845D01*
X173633110Y-121748524D01*
X173223076Y-121918355D01*
X172794817Y-122308642D01*
X172548514Y-122833108D01*
X168783000Y-122833108D01*
X168783000Y-113075626D01*
X179429500Y-113075626D01*
X179429500Y-113487374D01*
X179587069Y-113867780D01*
X179878220Y-114158931D01*
X180258626Y-114316500D01*
X180670374Y-114316500D01*
X181050780Y-114158931D01*
X181341931Y-113867780D01*
X181499500Y-113487374D01*
X181499500Y-113075626D01*
X181452000Y-112960951D01*
X181452000Y-111705585D01*
X181502000Y-111584874D01*
X181502000Y-111173126D01*
X181344431Y-110792720D01*
X181053280Y-110501569D01*
X180672874Y-110344000D01*
X180261126Y-110344000D01*
X179880720Y-110501569D01*
X179589569Y-110792720D01*
X179432000Y-111173126D01*
X179432000Y-111584874D01*
X179482000Y-111705585D01*
X179482001Y-112948878D01*
X179429500Y-113075626D01*
X168783000Y-113075626D01*
X168783000Y-100615750D01*
X173775000Y-100615750D01*
X173775000Y-101306309D01*
X173871673Y-101539698D01*
X174050301Y-101718327D01*
X174283690Y-101815000D01*
X174974250Y-101815000D01*
X175133000Y-101656250D01*
X175133000Y-100457000D01*
X173933750Y-100457000D01*
X173775000Y-100615750D01*
X168783000Y-100615750D01*
X168783000Y-99353691D01*
X173775000Y-99353691D01*
X173775000Y-100044250D01*
X173933750Y-100203000D01*
X175133000Y-100203000D01*
X175133000Y-97917000D01*
X173939181Y-97917000D01*
X173818514Y-98146892D01*
X174064817Y-98671358D01*
X174264208Y-98853070D01*
X174050301Y-98941673D01*
X173871673Y-99120302D01*
X173775000Y-99353691D01*
X168783000Y-99353691D01*
X168783000Y-97433108D01*
X173818514Y-97433108D01*
X173939181Y-97663000D01*
X175133000Y-97663000D01*
X175133000Y-96469845D01*
X175387000Y-96469845D01*
X175387000Y-97663000D01*
X175407000Y-97663000D01*
X175407000Y-97917000D01*
X175387000Y-97917000D01*
X175387000Y-100203000D01*
X175407000Y-100203000D01*
X175407000Y-100457000D01*
X175387000Y-100457000D01*
X175387000Y-101656250D01*
X175545750Y-101815000D01*
X176236310Y-101815000D01*
X176469699Y-101718327D01*
X176648327Y-101539698D01*
X176714904Y-101378967D01*
X176729375Y-101400625D01*
X177220582Y-101728839D01*
X177653744Y-101815000D01*
X177946256Y-101815000D01*
X178379418Y-101728839D01*
X178870625Y-101400625D01*
X179083843Y-101081522D01*
X179144817Y-101211358D01*
X179573076Y-101601645D01*
X179983110Y-101771476D01*
X180213000Y-101650155D01*
X180213000Y-100457000D01*
X180467000Y-100457000D01*
X180467000Y-101650155D01*
X180696890Y-101771476D01*
X181106924Y-101601645D01*
X181535183Y-101211358D01*
X181781486Y-100686892D01*
X181660819Y-100457000D01*
X180467000Y-100457000D01*
X180213000Y-100457000D01*
X180193000Y-100457000D01*
X180193000Y-100203000D01*
X180213000Y-100203000D01*
X180213000Y-97917000D01*
X180467000Y-97917000D01*
X180467000Y-100203000D01*
X181660819Y-100203000D01*
X181781486Y-99973108D01*
X181535183Y-99448642D01*
X181108729Y-99060000D01*
X181535183Y-98671358D01*
X181781486Y-98146892D01*
X181660819Y-97917000D01*
X180467000Y-97917000D01*
X180213000Y-97917000D01*
X180193000Y-97917000D01*
X180193000Y-97663000D01*
X180213000Y-97663000D01*
X180213000Y-96469845D01*
X180467000Y-96469845D01*
X180467000Y-97663000D01*
X181660819Y-97663000D01*
X181781486Y-97433108D01*
X181535183Y-96908642D01*
X181106924Y-96518355D01*
X180696890Y-96348524D01*
X180467000Y-96469845D01*
X180213000Y-96469845D01*
X179983110Y-96348524D01*
X179573076Y-96518355D01*
X179144817Y-96908642D01*
X179083843Y-97038478D01*
X178870625Y-96719375D01*
X178379418Y-96391161D01*
X177946256Y-96305000D01*
X177653744Y-96305000D01*
X177220582Y-96391161D01*
X176729375Y-96719375D01*
X176516157Y-97038478D01*
X176455183Y-96908642D01*
X176026924Y-96518355D01*
X175616890Y-96348524D01*
X175387000Y-96469845D01*
X175133000Y-96469845D01*
X174903110Y-96348524D01*
X174493076Y-96518355D01*
X174064817Y-96908642D01*
X173818514Y-97433108D01*
X168783000Y-97433108D01*
X168783000Y-90716954D01*
X169085000Y-90716954D01*
X169085000Y-92163046D01*
X169638396Y-93499062D01*
X170660938Y-94521604D01*
X171996954Y-95075000D01*
X173443046Y-95075000D01*
X174779062Y-94521604D01*
X175801604Y-93499062D01*
X176355000Y-92163046D01*
X176355000Y-90716954D01*
X179245000Y-90716954D01*
X179245000Y-92163046D01*
X179798396Y-93499062D01*
X180820938Y-94521604D01*
X182156954Y-95075000D01*
X183603046Y-95075000D01*
X184939062Y-94521604D01*
X185961604Y-93499062D01*
X186515000Y-92163046D01*
X186515000Y-90716954D01*
X185961604Y-89380938D01*
X184939062Y-88358396D01*
X183603046Y-87805000D01*
X182156954Y-87805000D01*
X180820938Y-88358396D01*
X179798396Y-89380938D01*
X179245000Y-90716954D01*
X176355000Y-90716954D01*
X175801604Y-89380938D01*
X174779062Y-88358396D01*
X173443046Y-87805000D01*
X171996954Y-87805000D01*
X170660938Y-88358396D01*
X169638396Y-89380938D01*
X169085000Y-90716954D01*
X168783000Y-90716954D01*
X168783000Y-87503000D01*
X186817000Y-87503000D01*
X186817000Y-136271000D01*
X186817000Y-136271000D01*
G37*
X186817000Y-136271000D02*
X168783000Y-136271000D01*
X168783000Y-131610954D01*
X169085000Y-131610954D01*
X169085000Y-133057046D01*
X169638396Y-134393062D01*
X170660938Y-135415604D01*
X171996954Y-135969000D01*
X173443046Y-135969000D01*
X174779062Y-135415604D01*
X175801604Y-134393062D01*
X176355000Y-133057046D01*
X176355000Y-131610954D01*
X179245000Y-131610954D01*
X179245000Y-133057046D01*
X179798396Y-134393062D01*
X180820938Y-135415604D01*
X182156954Y-135969000D01*
X183603046Y-135969000D01*
X184939062Y-135415604D01*
X185961604Y-134393062D01*
X186515000Y-133057046D01*
X186515000Y-131610954D01*
X185961604Y-130274938D01*
X184939062Y-129252396D01*
X183603046Y-128699000D01*
X182156954Y-128699000D01*
X180820938Y-129252396D01*
X179798396Y-130274938D01*
X179245000Y-131610954D01*
X176355000Y-131610954D01*
X175801604Y-130274938D01*
X174779062Y-129252396D01*
X173443046Y-128699000D01*
X171996954Y-128699000D01*
X170660938Y-129252396D01*
X169638396Y-130274938D01*
X169085000Y-131610954D01*
X168783000Y-131610954D01*
X168783000Y-126015750D01*
X172505000Y-126015750D01*
X172505000Y-126706309D01*
X172601673Y-126939698D01*
X172780301Y-127118327D01*
X173013690Y-127215000D01*
X173704250Y-127215000D01*
X173863000Y-127056250D01*
X173863000Y-125857000D01*
X172663750Y-125857000D01*
X172505000Y-126015750D01*
X168783000Y-126015750D01*
X168783000Y-124753691D01*
X172505000Y-124753691D01*
X172505000Y-125444250D01*
X172663750Y-125603000D01*
X173863000Y-125603000D01*
X173863000Y-123317000D01*
X172669181Y-123317000D01*
X172548514Y-123546892D01*
X172794817Y-124071358D01*
X172994208Y-124253070D01*
X172780301Y-124341673D01*
X172601673Y-124520302D01*
X172505000Y-124753691D01*
X168783000Y-124753691D01*
X168783000Y-122833108D01*
X172548514Y-122833108D01*
X172669181Y-123063000D01*
X173863000Y-123063000D01*
X173863000Y-121869845D01*
X174117000Y-121869845D01*
X174117000Y-123063000D01*
X174137000Y-123063000D01*
X174137000Y-123317000D01*
X174117000Y-123317000D01*
X174117000Y-125603000D01*
X174137000Y-125603000D01*
X174137000Y-125857000D01*
X174117000Y-125857000D01*
X174117000Y-127056250D01*
X174275750Y-127215000D01*
X174966310Y-127215000D01*
X175199699Y-127118327D01*
X175378327Y-126939698D01*
X175444904Y-126778967D01*
X175459375Y-126800625D01*
X175950582Y-127128839D01*
X176383744Y-127215000D01*
X176676256Y-127215000D01*
X177109418Y-127128839D01*
X177600625Y-126800625D01*
X177800000Y-126502239D01*
X177999375Y-126800625D01*
X178490582Y-127128839D01*
X178923744Y-127215000D01*
X179216256Y-127215000D01*
X179649418Y-127128839D01*
X180140625Y-126800625D01*
X180353843Y-126481522D01*
X180414817Y-126611358D01*
X180843076Y-127001645D01*
X181253110Y-127171476D01*
X181483000Y-127050155D01*
X181483000Y-125857000D01*
X181737000Y-125857000D01*
X181737000Y-127050155D01*
X181966890Y-127171476D01*
X182376924Y-127001645D01*
X182805183Y-126611358D01*
X183051486Y-126086892D01*
X182930819Y-125857000D01*
X181737000Y-125857000D01*
X181483000Y-125857000D01*
X181463000Y-125857000D01*
X181463000Y-125603000D01*
X181483000Y-125603000D01*
X181483000Y-123317000D01*
X181737000Y-123317000D01*
X181737000Y-125603000D01*
X182930819Y-125603000D01*
X183051486Y-125373108D01*
X182805183Y-124848642D01*
X182378729Y-124460000D01*
X182805183Y-124071358D01*
X183051486Y-123546892D01*
X182930819Y-123317000D01*
X181737000Y-123317000D01*
X181483000Y-123317000D01*
X181463000Y-123317000D01*
X181463000Y-123063000D01*
X181483000Y-123063000D01*
X181483000Y-121869845D01*
X181737000Y-121869845D01*
X181737000Y-123063000D01*
X182930819Y-123063000D01*
X183051486Y-122833108D01*
X182805183Y-122308642D01*
X182376924Y-121918355D01*
X181966890Y-121748524D01*
X181737000Y-121869845D01*
X181483000Y-121869845D01*
X181253110Y-121748524D01*
X180843076Y-121918355D01*
X180414817Y-122308642D01*
X180353843Y-122438478D01*
X180140625Y-122119375D01*
X179649418Y-121791161D01*
X179216256Y-121705000D01*
X178923744Y-121705000D01*
X178490582Y-121791161D01*
X177999375Y-122119375D01*
X177800000Y-122417761D01*
X177600625Y-122119375D01*
X177109418Y-121791161D01*
X176676256Y-121705000D01*
X176383744Y-121705000D01*
X175950582Y-121791161D01*
X175459375Y-122119375D01*
X175246157Y-122438478D01*
X175185183Y-122308642D01*
X174756924Y-121918355D01*
X174346890Y-121748524D01*
X174117000Y-121869845D01*
X173863000Y-121869845D01*
X173633110Y-121748524D01*
X173223076Y-121918355D01*
X172794817Y-122308642D01*
X172548514Y-122833108D01*
X168783000Y-122833108D01*
X168783000Y-113075626D01*
X179429500Y-113075626D01*
X179429500Y-113487374D01*
X179587069Y-113867780D01*
X179878220Y-114158931D01*
X180258626Y-114316500D01*
X180670374Y-114316500D01*
X181050780Y-114158931D01*
X181341931Y-113867780D01*
X181499500Y-113487374D01*
X181499500Y-113075626D01*
X181452000Y-112960951D01*
X181452000Y-111705585D01*
X181502000Y-111584874D01*
X181502000Y-111173126D01*
X181344431Y-110792720D01*
X181053280Y-110501569D01*
X180672874Y-110344000D01*
X180261126Y-110344000D01*
X179880720Y-110501569D01*
X179589569Y-110792720D01*
X179432000Y-111173126D01*
X179432000Y-111584874D01*
X179482000Y-111705585D01*
X179482001Y-112948878D01*
X179429500Y-113075626D01*
X168783000Y-113075626D01*
X168783000Y-100615750D01*
X173775000Y-100615750D01*
X173775000Y-101306309D01*
X173871673Y-101539698D01*
X174050301Y-101718327D01*
X174283690Y-101815000D01*
X174974250Y-101815000D01*
X175133000Y-101656250D01*
X175133000Y-100457000D01*
X173933750Y-100457000D01*
X173775000Y-100615750D01*
X168783000Y-100615750D01*
X168783000Y-99353691D01*
X173775000Y-99353691D01*
X173775000Y-100044250D01*
X173933750Y-100203000D01*
X175133000Y-100203000D01*
X175133000Y-97917000D01*
X173939181Y-97917000D01*
X173818514Y-98146892D01*
X174064817Y-98671358D01*
X174264208Y-98853070D01*
X174050301Y-98941673D01*
X173871673Y-99120302D01*
X173775000Y-99353691D01*
X168783000Y-99353691D01*
X168783000Y-97433108D01*
X173818514Y-97433108D01*
X173939181Y-97663000D01*
X175133000Y-97663000D01*
X175133000Y-96469845D01*
X175387000Y-96469845D01*
X175387000Y-97663000D01*
X175407000Y-97663000D01*
X175407000Y-97917000D01*
X175387000Y-97917000D01*
X175387000Y-100203000D01*
X175407000Y-100203000D01*
X175407000Y-100457000D01*
X175387000Y-100457000D01*
X175387000Y-101656250D01*
X175545750Y-101815000D01*
X176236310Y-101815000D01*
X176469699Y-101718327D01*
X176648327Y-101539698D01*
X176714904Y-101378967D01*
X176729375Y-101400625D01*
X177220582Y-101728839D01*
X177653744Y-101815000D01*
X177946256Y-101815000D01*
X178379418Y-101728839D01*
X178870625Y-101400625D01*
X179083843Y-101081522D01*
X179144817Y-101211358D01*
X179573076Y-101601645D01*
X179983110Y-101771476D01*
X180213000Y-101650155D01*
X180213000Y-100457000D01*
X180467000Y-100457000D01*
X180467000Y-101650155D01*
X180696890Y-101771476D01*
X181106924Y-101601645D01*
X181535183Y-101211358D01*
X181781486Y-100686892D01*
X181660819Y-100457000D01*
X180467000Y-100457000D01*
X180213000Y-100457000D01*
X180193000Y-100457000D01*
X180193000Y-100203000D01*
X180213000Y-100203000D01*
X180213000Y-97917000D01*
X180467000Y-97917000D01*
X180467000Y-100203000D01*
X181660819Y-100203000D01*
X181781486Y-99973108D01*
X181535183Y-99448642D01*
X181108729Y-99060000D01*
X181535183Y-98671358D01*
X181781486Y-98146892D01*
X181660819Y-97917000D01*
X180467000Y-97917000D01*
X180213000Y-97917000D01*
X180193000Y-97917000D01*
X180193000Y-97663000D01*
X180213000Y-97663000D01*
X180213000Y-96469845D01*
X180467000Y-96469845D01*
X180467000Y-97663000D01*
X181660819Y-97663000D01*
X181781486Y-97433108D01*
X181535183Y-96908642D01*
X181106924Y-96518355D01*
X180696890Y-96348524D01*
X180467000Y-96469845D01*
X180213000Y-96469845D01*
X179983110Y-96348524D01*
X179573076Y-96518355D01*
X179144817Y-96908642D01*
X179083843Y-97038478D01*
X178870625Y-96719375D01*
X178379418Y-96391161D01*
X177946256Y-96305000D01*
X177653744Y-96305000D01*
X177220582Y-96391161D01*
X176729375Y-96719375D01*
X176516157Y-97038478D01*
X176455183Y-96908642D01*
X176026924Y-96518355D01*
X175616890Y-96348524D01*
X175387000Y-96469845D01*
X175133000Y-96469845D01*
X174903110Y-96348524D01*
X174493076Y-96518355D01*
X174064817Y-96908642D01*
X173818514Y-97433108D01*
X168783000Y-97433108D01*
X168783000Y-90716954D01*
X169085000Y-90716954D01*
X169085000Y-92163046D01*
X169638396Y-93499062D01*
X170660938Y-94521604D01*
X171996954Y-95075000D01*
X173443046Y-95075000D01*
X174779062Y-94521604D01*
X175801604Y-93499062D01*
X176355000Y-92163046D01*
X176355000Y-90716954D01*
X179245000Y-90716954D01*
X179245000Y-92163046D01*
X179798396Y-93499062D01*
X180820938Y-94521604D01*
X182156954Y-95075000D01*
X183603046Y-95075000D01*
X184939062Y-94521604D01*
X185961604Y-93499062D01*
X186515000Y-92163046D01*
X186515000Y-90716954D01*
X185961604Y-89380938D01*
X184939062Y-88358396D01*
X183603046Y-87805000D01*
X182156954Y-87805000D01*
X180820938Y-88358396D01*
X179798396Y-89380938D01*
X179245000Y-90716954D01*
X176355000Y-90716954D01*
X175801604Y-89380938D01*
X174779062Y-88358396D01*
X173443046Y-87805000D01*
X171996954Y-87805000D01*
X170660938Y-88358396D01*
X169638396Y-89380938D01*
X169085000Y-90716954D01*
X168783000Y-90716954D01*
X168783000Y-87503000D01*
X186817000Y-87503000D01*
X186817000Y-136271000D01*
G04 #@! TD*
M02*
