M48
;DRILL file {KiCad (6.0.0-rc1-dev-205-gc0615c5ef)} date 09/04/19 07:24:31
;FORMAT={3:3/ absolute / metric / suppress leading zeros}
FMAT,2
METRIC,TZ
T1C0.400
T2C1.000
T3C3.000
%
G90
G05
M71
T1
X169926Y-117094
X169926Y-119126
X171450Y-120904
X171529Y-115316
X171958Y-123190
X171958Y-125730
X173228Y-97790
X173228Y-100330
X173736Y-105410
X173990Y-127762
X175260Y-95758
X175514Y-103378
X180340Y-95758
X180465Y-113282
X180467Y-111379
X181102Y-103378
X181610Y-127762
X181864Y-121158
X182372Y-97790
X182372Y-100330
X182880Y-105410
X183388Y-117348
X183388Y-119380
X183642Y-123190
X183642Y-125730
T2
X175260Y-97790
X175260Y-100330
X177800Y-97790
X177800Y-100330
X180340Y-97790
X180340Y-100330
X173990Y-123190
X173990Y-125730
X176530Y-123190
X176530Y-125730
X179070Y-123190
X179070Y-125730
X181610Y-123190
X181610Y-125730
T3
X182880Y-132334
X182880Y-91440
X172720Y-91440
X172720Y-132334
T0
M30
