G04 #@! TF.GenerationSoftware,KiCad,Pcbnew,(6.0.0-rc1-dev-205-gc0615c5ef)*
G04 #@! TF.CreationDate,2019-09-04T07:50:23+02:00*
G04 #@! TF.ProjectId,TPS65133_2,54505336353133335F322E6B69636164,v01*
G04 #@! TF.SameCoordinates,Original*
G04 #@! TF.FileFunction,Soldermask,Top*
G04 #@! TF.FilePolarity,Negative*
%FSLAX46Y46*%
G04 Gerber Fmt 4.6, Leading zero omitted, Abs format (unit mm)*
G04 Created by KiCad (PCBNEW (6.0.0-rc1-dev-205-gc0615c5ef)) date 09/04/19 07:50:23*
%MOMM*%
%LPD*%
G01*
G04 APERTURE LIST*
%ADD10R,1.650000X2.600000*%
%ADD11R,0.650000X1.250000*%
%ADD12C,0.100000*%
%ADD13C,1.375000*%
%ADD14C,6.400000*%
%ADD15R,2.100000X2.100000*%
%ADD16O,2.100000X2.100000*%
G04 APERTURE END LIST*
D10*
G04 #@! TO.C,L1*
X117869821Y-88268848D03*
X115669821Y-88268848D03*
G04 #@! TD*
G04 #@! TO.C,L2*
X117094000Y-77216000D03*
X114894000Y-77216000D03*
G04 #@! TD*
D11*
G04 #@! TO.C,IC1*
X118692821Y-82500848D03*
X119142821Y-82500848D03*
X119592821Y-82500848D03*
X120042821Y-82500848D03*
X120492821Y-82500848D03*
X120942821Y-82500848D03*
X120942821Y-85400848D03*
X120492821Y-85400848D03*
X120042821Y-85400848D03*
X119592821Y-85400848D03*
X119142821Y-85400848D03*
X118692821Y-85400848D03*
G04 #@! TD*
D12*
G04 #@! TO.C,C1*
G36*
X115088443Y-78857655D02*
X115121812Y-78862605D01*
X115154535Y-78870802D01*
X115186297Y-78882166D01*
X115216793Y-78896590D01*
X115245727Y-78913932D01*
X115272823Y-78934028D01*
X115297818Y-78956682D01*
X115320472Y-78981677D01*
X115340568Y-79008773D01*
X115357910Y-79037707D01*
X115372334Y-79068203D01*
X115383698Y-79099965D01*
X115391895Y-79132688D01*
X115396845Y-79166057D01*
X115398500Y-79199750D01*
X115398500Y-80312250D01*
X115396845Y-80345943D01*
X115391895Y-80379312D01*
X115383698Y-80412035D01*
X115372334Y-80443797D01*
X115357910Y-80474293D01*
X115340568Y-80503227D01*
X115320472Y-80530323D01*
X115297818Y-80555318D01*
X115272823Y-80577972D01*
X115245727Y-80598068D01*
X115216793Y-80615410D01*
X115186297Y-80629834D01*
X115154535Y-80641198D01*
X115121812Y-80649395D01*
X115088443Y-80654345D01*
X115054750Y-80656000D01*
X114367250Y-80656000D01*
X114333557Y-80654345D01*
X114300188Y-80649395D01*
X114267465Y-80641198D01*
X114235703Y-80629834D01*
X114205207Y-80615410D01*
X114176273Y-80598068D01*
X114149177Y-80577972D01*
X114124182Y-80555318D01*
X114101528Y-80530323D01*
X114081432Y-80503227D01*
X114064090Y-80474293D01*
X114049666Y-80443797D01*
X114038302Y-80412035D01*
X114030105Y-80379312D01*
X114025155Y-80345943D01*
X114023500Y-80312250D01*
X114023500Y-79199750D01*
X114025155Y-79166057D01*
X114030105Y-79132688D01*
X114038302Y-79099965D01*
X114049666Y-79068203D01*
X114064090Y-79037707D01*
X114081432Y-79008773D01*
X114101528Y-78981677D01*
X114124182Y-78956682D01*
X114149177Y-78934028D01*
X114176273Y-78913932D01*
X114205207Y-78896590D01*
X114235703Y-78882166D01*
X114267465Y-78870802D01*
X114300188Y-78862605D01*
X114333557Y-78857655D01*
X114367250Y-78856000D01*
X115054750Y-78856000D01*
X115088443Y-78857655D01*
X115088443Y-78857655D01*
G37*
D13*
X114711000Y-79756000D03*
D12*
G36*
X116963443Y-78857655D02*
X116996812Y-78862605D01*
X117029535Y-78870802D01*
X117061297Y-78882166D01*
X117091793Y-78896590D01*
X117120727Y-78913932D01*
X117147823Y-78934028D01*
X117172818Y-78956682D01*
X117195472Y-78981677D01*
X117215568Y-79008773D01*
X117232910Y-79037707D01*
X117247334Y-79068203D01*
X117258698Y-79099965D01*
X117266895Y-79132688D01*
X117271845Y-79166057D01*
X117273500Y-79199750D01*
X117273500Y-80312250D01*
X117271845Y-80345943D01*
X117266895Y-80379312D01*
X117258698Y-80412035D01*
X117247334Y-80443797D01*
X117232910Y-80474293D01*
X117215568Y-80503227D01*
X117195472Y-80530323D01*
X117172818Y-80555318D01*
X117147823Y-80577972D01*
X117120727Y-80598068D01*
X117091793Y-80615410D01*
X117061297Y-80629834D01*
X117029535Y-80641198D01*
X116996812Y-80649395D01*
X116963443Y-80654345D01*
X116929750Y-80656000D01*
X116242250Y-80656000D01*
X116208557Y-80654345D01*
X116175188Y-80649395D01*
X116142465Y-80641198D01*
X116110703Y-80629834D01*
X116080207Y-80615410D01*
X116051273Y-80598068D01*
X116024177Y-80577972D01*
X115999182Y-80555318D01*
X115976528Y-80530323D01*
X115956432Y-80503227D01*
X115939090Y-80474293D01*
X115924666Y-80443797D01*
X115913302Y-80412035D01*
X115905105Y-80379312D01*
X115900155Y-80345943D01*
X115898500Y-80312250D01*
X115898500Y-79199750D01*
X115900155Y-79166057D01*
X115905105Y-79132688D01*
X115913302Y-79099965D01*
X115924666Y-79068203D01*
X115939090Y-79037707D01*
X115956432Y-79008773D01*
X115976528Y-78981677D01*
X115999182Y-78956682D01*
X116024177Y-78934028D01*
X116051273Y-78913932D01*
X116080207Y-78896590D01*
X116110703Y-78882166D01*
X116142465Y-78870802D01*
X116175188Y-78862605D01*
X116208557Y-78857655D01*
X116242250Y-78856000D01*
X116929750Y-78856000D01*
X116963443Y-78857655D01*
X116963443Y-78857655D01*
G37*
D13*
X116586000Y-79756000D03*
G04 #@! TD*
D12*
G04 #@! TO.C,C2*
G36*
X121105943Y-91176655D02*
X121139312Y-91181605D01*
X121172035Y-91189802D01*
X121203797Y-91201166D01*
X121234293Y-91215590D01*
X121263227Y-91232932D01*
X121290323Y-91253028D01*
X121315318Y-91275682D01*
X121337972Y-91300677D01*
X121358068Y-91327773D01*
X121375410Y-91356707D01*
X121389834Y-91387203D01*
X121401198Y-91418965D01*
X121409395Y-91451688D01*
X121414345Y-91485057D01*
X121416000Y-91518750D01*
X121416000Y-92631250D01*
X121414345Y-92664943D01*
X121409395Y-92698312D01*
X121401198Y-92731035D01*
X121389834Y-92762797D01*
X121375410Y-92793293D01*
X121358068Y-92822227D01*
X121337972Y-92849323D01*
X121315318Y-92874318D01*
X121290323Y-92896972D01*
X121263227Y-92917068D01*
X121234293Y-92934410D01*
X121203797Y-92948834D01*
X121172035Y-92960198D01*
X121139312Y-92968395D01*
X121105943Y-92973345D01*
X121072250Y-92975000D01*
X120384750Y-92975000D01*
X120351057Y-92973345D01*
X120317688Y-92968395D01*
X120284965Y-92960198D01*
X120253203Y-92948834D01*
X120222707Y-92934410D01*
X120193773Y-92917068D01*
X120166677Y-92896972D01*
X120141682Y-92874318D01*
X120119028Y-92849323D01*
X120098932Y-92822227D01*
X120081590Y-92793293D01*
X120067166Y-92762797D01*
X120055802Y-92731035D01*
X120047605Y-92698312D01*
X120042655Y-92664943D01*
X120041000Y-92631250D01*
X120041000Y-91518750D01*
X120042655Y-91485057D01*
X120047605Y-91451688D01*
X120055802Y-91418965D01*
X120067166Y-91387203D01*
X120081590Y-91356707D01*
X120098932Y-91327773D01*
X120119028Y-91300677D01*
X120141682Y-91275682D01*
X120166677Y-91253028D01*
X120193773Y-91232932D01*
X120222707Y-91215590D01*
X120253203Y-91201166D01*
X120284965Y-91189802D01*
X120317688Y-91181605D01*
X120351057Y-91176655D01*
X120384750Y-91175000D01*
X121072250Y-91175000D01*
X121105943Y-91176655D01*
X121105943Y-91176655D01*
G37*
D13*
X120728500Y-92075000D03*
D12*
G36*
X122980943Y-91176655D02*
X123014312Y-91181605D01*
X123047035Y-91189802D01*
X123078797Y-91201166D01*
X123109293Y-91215590D01*
X123138227Y-91232932D01*
X123165323Y-91253028D01*
X123190318Y-91275682D01*
X123212972Y-91300677D01*
X123233068Y-91327773D01*
X123250410Y-91356707D01*
X123264834Y-91387203D01*
X123276198Y-91418965D01*
X123284395Y-91451688D01*
X123289345Y-91485057D01*
X123291000Y-91518750D01*
X123291000Y-92631250D01*
X123289345Y-92664943D01*
X123284395Y-92698312D01*
X123276198Y-92731035D01*
X123264834Y-92762797D01*
X123250410Y-92793293D01*
X123233068Y-92822227D01*
X123212972Y-92849323D01*
X123190318Y-92874318D01*
X123165323Y-92896972D01*
X123138227Y-92917068D01*
X123109293Y-92934410D01*
X123078797Y-92948834D01*
X123047035Y-92960198D01*
X123014312Y-92968395D01*
X122980943Y-92973345D01*
X122947250Y-92975000D01*
X122259750Y-92975000D01*
X122226057Y-92973345D01*
X122192688Y-92968395D01*
X122159965Y-92960198D01*
X122128203Y-92948834D01*
X122097707Y-92934410D01*
X122068773Y-92917068D01*
X122041677Y-92896972D01*
X122016682Y-92874318D01*
X121994028Y-92849323D01*
X121973932Y-92822227D01*
X121956590Y-92793293D01*
X121942166Y-92762797D01*
X121930802Y-92731035D01*
X121922605Y-92698312D01*
X121917655Y-92664943D01*
X121916000Y-92631250D01*
X121916000Y-91518750D01*
X121917655Y-91485057D01*
X121922605Y-91451688D01*
X121930802Y-91418965D01*
X121942166Y-91387203D01*
X121956590Y-91356707D01*
X121973932Y-91327773D01*
X121994028Y-91300677D01*
X122016682Y-91275682D01*
X122041677Y-91253028D01*
X122068773Y-91232932D01*
X122097707Y-91215590D01*
X122128203Y-91201166D01*
X122159965Y-91189802D01*
X122192688Y-91181605D01*
X122226057Y-91176655D01*
X122259750Y-91175000D01*
X122947250Y-91175000D01*
X122980943Y-91176655D01*
X122980943Y-91176655D01*
G37*
D13*
X122603500Y-92075000D03*
G04 #@! TD*
D12*
G04 #@! TO.C,C3*
G36*
X116667943Y-81942655D02*
X116701312Y-81947605D01*
X116734035Y-81955802D01*
X116765797Y-81967166D01*
X116796293Y-81981590D01*
X116825227Y-81998932D01*
X116852323Y-82019028D01*
X116877318Y-82041682D01*
X116899972Y-82066677D01*
X116920068Y-82093773D01*
X116937410Y-82122707D01*
X116951834Y-82153203D01*
X116963198Y-82184965D01*
X116971395Y-82217688D01*
X116976345Y-82251057D01*
X116978000Y-82284750D01*
X116978000Y-82972250D01*
X116976345Y-83005943D01*
X116971395Y-83039312D01*
X116963198Y-83072035D01*
X116951834Y-83103797D01*
X116937410Y-83134293D01*
X116920068Y-83163227D01*
X116899972Y-83190323D01*
X116877318Y-83215318D01*
X116852323Y-83237972D01*
X116825227Y-83258068D01*
X116796293Y-83275410D01*
X116765797Y-83289834D01*
X116734035Y-83301198D01*
X116701312Y-83309395D01*
X116667943Y-83314345D01*
X116634250Y-83316000D01*
X115521750Y-83316000D01*
X115488057Y-83314345D01*
X115454688Y-83309395D01*
X115421965Y-83301198D01*
X115390203Y-83289834D01*
X115359707Y-83275410D01*
X115330773Y-83258068D01*
X115303677Y-83237972D01*
X115278682Y-83215318D01*
X115256028Y-83190323D01*
X115235932Y-83163227D01*
X115218590Y-83134293D01*
X115204166Y-83103797D01*
X115192802Y-83072035D01*
X115184605Y-83039312D01*
X115179655Y-83005943D01*
X115178000Y-82972250D01*
X115178000Y-82284750D01*
X115179655Y-82251057D01*
X115184605Y-82217688D01*
X115192802Y-82184965D01*
X115204166Y-82153203D01*
X115218590Y-82122707D01*
X115235932Y-82093773D01*
X115256028Y-82066677D01*
X115278682Y-82041682D01*
X115303677Y-82019028D01*
X115330773Y-81998932D01*
X115359707Y-81981590D01*
X115390203Y-81967166D01*
X115421965Y-81955802D01*
X115454688Y-81947605D01*
X115488057Y-81942655D01*
X115521750Y-81941000D01*
X116634250Y-81941000D01*
X116667943Y-81942655D01*
X116667943Y-81942655D01*
G37*
D13*
X116078000Y-82628500D03*
D12*
G36*
X116667943Y-83817655D02*
X116701312Y-83822605D01*
X116734035Y-83830802D01*
X116765797Y-83842166D01*
X116796293Y-83856590D01*
X116825227Y-83873932D01*
X116852323Y-83894028D01*
X116877318Y-83916682D01*
X116899972Y-83941677D01*
X116920068Y-83968773D01*
X116937410Y-83997707D01*
X116951834Y-84028203D01*
X116963198Y-84059965D01*
X116971395Y-84092688D01*
X116976345Y-84126057D01*
X116978000Y-84159750D01*
X116978000Y-84847250D01*
X116976345Y-84880943D01*
X116971395Y-84914312D01*
X116963198Y-84947035D01*
X116951834Y-84978797D01*
X116937410Y-85009293D01*
X116920068Y-85038227D01*
X116899972Y-85065323D01*
X116877318Y-85090318D01*
X116852323Y-85112972D01*
X116825227Y-85133068D01*
X116796293Y-85150410D01*
X116765797Y-85164834D01*
X116734035Y-85176198D01*
X116701312Y-85184395D01*
X116667943Y-85189345D01*
X116634250Y-85191000D01*
X115521750Y-85191000D01*
X115488057Y-85189345D01*
X115454688Y-85184395D01*
X115421965Y-85176198D01*
X115390203Y-85164834D01*
X115359707Y-85150410D01*
X115330773Y-85133068D01*
X115303677Y-85112972D01*
X115278682Y-85090318D01*
X115256028Y-85065323D01*
X115235932Y-85038227D01*
X115218590Y-85009293D01*
X115204166Y-84978797D01*
X115192802Y-84947035D01*
X115184605Y-84914312D01*
X115179655Y-84880943D01*
X115178000Y-84847250D01*
X115178000Y-84159750D01*
X115179655Y-84126057D01*
X115184605Y-84092688D01*
X115192802Y-84059965D01*
X115204166Y-84028203D01*
X115218590Y-83997707D01*
X115235932Y-83968773D01*
X115256028Y-83941677D01*
X115278682Y-83916682D01*
X115303677Y-83894028D01*
X115330773Y-83873932D01*
X115359707Y-83856590D01*
X115390203Y-83842166D01*
X115421965Y-83830802D01*
X115454688Y-83822605D01*
X115488057Y-83817655D01*
X115521750Y-83816000D01*
X116634250Y-83816000D01*
X116667943Y-83817655D01*
X116667943Y-83817655D01*
G37*
D13*
X116078000Y-84503500D03*
G04 #@! TD*
D12*
G04 #@! TO.C,C4*
G36*
X122345943Y-74539655D02*
X122379312Y-74544605D01*
X122412035Y-74552802D01*
X122443797Y-74564166D01*
X122474293Y-74578590D01*
X122503227Y-74595932D01*
X122530323Y-74616028D01*
X122555318Y-74638682D01*
X122577972Y-74663677D01*
X122598068Y-74690773D01*
X122615410Y-74719707D01*
X122629834Y-74750203D01*
X122641198Y-74781965D01*
X122649395Y-74814688D01*
X122654345Y-74848057D01*
X122656000Y-74881750D01*
X122656000Y-75994250D01*
X122654345Y-76027943D01*
X122649395Y-76061312D01*
X122641198Y-76094035D01*
X122629834Y-76125797D01*
X122615410Y-76156293D01*
X122598068Y-76185227D01*
X122577972Y-76212323D01*
X122555318Y-76237318D01*
X122530323Y-76259972D01*
X122503227Y-76280068D01*
X122474293Y-76297410D01*
X122443797Y-76311834D01*
X122412035Y-76323198D01*
X122379312Y-76331395D01*
X122345943Y-76336345D01*
X122312250Y-76338000D01*
X121624750Y-76338000D01*
X121591057Y-76336345D01*
X121557688Y-76331395D01*
X121524965Y-76323198D01*
X121493203Y-76311834D01*
X121462707Y-76297410D01*
X121433773Y-76280068D01*
X121406677Y-76259972D01*
X121381682Y-76237318D01*
X121359028Y-76212323D01*
X121338932Y-76185227D01*
X121321590Y-76156293D01*
X121307166Y-76125797D01*
X121295802Y-76094035D01*
X121287605Y-76061312D01*
X121282655Y-76027943D01*
X121281000Y-75994250D01*
X121281000Y-74881750D01*
X121282655Y-74848057D01*
X121287605Y-74814688D01*
X121295802Y-74781965D01*
X121307166Y-74750203D01*
X121321590Y-74719707D01*
X121338932Y-74690773D01*
X121359028Y-74663677D01*
X121381682Y-74638682D01*
X121406677Y-74616028D01*
X121433773Y-74595932D01*
X121462707Y-74578590D01*
X121493203Y-74564166D01*
X121524965Y-74552802D01*
X121557688Y-74544605D01*
X121591057Y-74539655D01*
X121624750Y-74538000D01*
X122312250Y-74538000D01*
X122345943Y-74539655D01*
X122345943Y-74539655D01*
G37*
D13*
X121968500Y-75438000D03*
D12*
G36*
X120470943Y-74539655D02*
X120504312Y-74544605D01*
X120537035Y-74552802D01*
X120568797Y-74564166D01*
X120599293Y-74578590D01*
X120628227Y-74595932D01*
X120655323Y-74616028D01*
X120680318Y-74638682D01*
X120702972Y-74663677D01*
X120723068Y-74690773D01*
X120740410Y-74719707D01*
X120754834Y-74750203D01*
X120766198Y-74781965D01*
X120774395Y-74814688D01*
X120779345Y-74848057D01*
X120781000Y-74881750D01*
X120781000Y-75994250D01*
X120779345Y-76027943D01*
X120774395Y-76061312D01*
X120766198Y-76094035D01*
X120754834Y-76125797D01*
X120740410Y-76156293D01*
X120723068Y-76185227D01*
X120702972Y-76212323D01*
X120680318Y-76237318D01*
X120655323Y-76259972D01*
X120628227Y-76280068D01*
X120599293Y-76297410D01*
X120568797Y-76311834D01*
X120537035Y-76323198D01*
X120504312Y-76331395D01*
X120470943Y-76336345D01*
X120437250Y-76338000D01*
X119749750Y-76338000D01*
X119716057Y-76336345D01*
X119682688Y-76331395D01*
X119649965Y-76323198D01*
X119618203Y-76311834D01*
X119587707Y-76297410D01*
X119558773Y-76280068D01*
X119531677Y-76259972D01*
X119506682Y-76237318D01*
X119484028Y-76212323D01*
X119463932Y-76185227D01*
X119446590Y-76156293D01*
X119432166Y-76125797D01*
X119420802Y-76094035D01*
X119412605Y-76061312D01*
X119407655Y-76027943D01*
X119406000Y-75994250D01*
X119406000Y-74881750D01*
X119407655Y-74848057D01*
X119412605Y-74814688D01*
X119420802Y-74781965D01*
X119432166Y-74750203D01*
X119446590Y-74719707D01*
X119463932Y-74690773D01*
X119484028Y-74663677D01*
X119506682Y-74638682D01*
X119531677Y-74616028D01*
X119558773Y-74595932D01*
X119587707Y-74578590D01*
X119618203Y-74564166D01*
X119649965Y-74552802D01*
X119682688Y-74544605D01*
X119716057Y-74539655D01*
X119749750Y-74538000D01*
X120437250Y-74538000D01*
X120470943Y-74539655D01*
X120470943Y-74539655D01*
G37*
D13*
X120093500Y-75438000D03*
G04 #@! TD*
D14*
G04 #@! TO.C,MH1*
X111760000Y-63500000D03*
G04 #@! TD*
G04 #@! TO.C,MH2*
X111760000Y-104140000D03*
G04 #@! TD*
G04 #@! TO.C,MH3*
X121920000Y-63500000D03*
G04 #@! TD*
G04 #@! TO.C,MH4*
X121920000Y-104140000D03*
G04 #@! TD*
D12*
G04 #@! TO.C,C5*
G36*
X122980943Y-89144655D02*
X123014312Y-89149605D01*
X123047035Y-89157802D01*
X123078797Y-89169166D01*
X123109293Y-89183590D01*
X123138227Y-89200932D01*
X123165323Y-89221028D01*
X123190318Y-89243682D01*
X123212972Y-89268677D01*
X123233068Y-89295773D01*
X123250410Y-89324707D01*
X123264834Y-89355203D01*
X123276198Y-89386965D01*
X123284395Y-89419688D01*
X123289345Y-89453057D01*
X123291000Y-89486750D01*
X123291000Y-90599250D01*
X123289345Y-90632943D01*
X123284395Y-90666312D01*
X123276198Y-90699035D01*
X123264834Y-90730797D01*
X123250410Y-90761293D01*
X123233068Y-90790227D01*
X123212972Y-90817323D01*
X123190318Y-90842318D01*
X123165323Y-90864972D01*
X123138227Y-90885068D01*
X123109293Y-90902410D01*
X123078797Y-90916834D01*
X123047035Y-90928198D01*
X123014312Y-90936395D01*
X122980943Y-90941345D01*
X122947250Y-90943000D01*
X122259750Y-90943000D01*
X122226057Y-90941345D01*
X122192688Y-90936395D01*
X122159965Y-90928198D01*
X122128203Y-90916834D01*
X122097707Y-90902410D01*
X122068773Y-90885068D01*
X122041677Y-90864972D01*
X122016682Y-90842318D01*
X121994028Y-90817323D01*
X121973932Y-90790227D01*
X121956590Y-90761293D01*
X121942166Y-90730797D01*
X121930802Y-90699035D01*
X121922605Y-90666312D01*
X121917655Y-90632943D01*
X121916000Y-90599250D01*
X121916000Y-89486750D01*
X121917655Y-89453057D01*
X121922605Y-89419688D01*
X121930802Y-89386965D01*
X121942166Y-89355203D01*
X121956590Y-89324707D01*
X121973932Y-89295773D01*
X121994028Y-89268677D01*
X122016682Y-89243682D01*
X122041677Y-89221028D01*
X122068773Y-89200932D01*
X122097707Y-89183590D01*
X122128203Y-89169166D01*
X122159965Y-89157802D01*
X122192688Y-89149605D01*
X122226057Y-89144655D01*
X122259750Y-89143000D01*
X122947250Y-89143000D01*
X122980943Y-89144655D01*
X122980943Y-89144655D01*
G37*
D13*
X122603500Y-90043000D03*
D12*
G36*
X121105943Y-89144655D02*
X121139312Y-89149605D01*
X121172035Y-89157802D01*
X121203797Y-89169166D01*
X121234293Y-89183590D01*
X121263227Y-89200932D01*
X121290323Y-89221028D01*
X121315318Y-89243682D01*
X121337972Y-89268677D01*
X121358068Y-89295773D01*
X121375410Y-89324707D01*
X121389834Y-89355203D01*
X121401198Y-89386965D01*
X121409395Y-89419688D01*
X121414345Y-89453057D01*
X121416000Y-89486750D01*
X121416000Y-90599250D01*
X121414345Y-90632943D01*
X121409395Y-90666312D01*
X121401198Y-90699035D01*
X121389834Y-90730797D01*
X121375410Y-90761293D01*
X121358068Y-90790227D01*
X121337972Y-90817323D01*
X121315318Y-90842318D01*
X121290323Y-90864972D01*
X121263227Y-90885068D01*
X121234293Y-90902410D01*
X121203797Y-90916834D01*
X121172035Y-90928198D01*
X121139312Y-90936395D01*
X121105943Y-90941345D01*
X121072250Y-90943000D01*
X120384750Y-90943000D01*
X120351057Y-90941345D01*
X120317688Y-90936395D01*
X120284965Y-90928198D01*
X120253203Y-90916834D01*
X120222707Y-90902410D01*
X120193773Y-90885068D01*
X120166677Y-90864972D01*
X120141682Y-90842318D01*
X120119028Y-90817323D01*
X120098932Y-90790227D01*
X120081590Y-90761293D01*
X120067166Y-90730797D01*
X120055802Y-90699035D01*
X120047605Y-90666312D01*
X120042655Y-90632943D01*
X120041000Y-90599250D01*
X120041000Y-89486750D01*
X120042655Y-89453057D01*
X120047605Y-89419688D01*
X120055802Y-89386965D01*
X120067166Y-89355203D01*
X120081590Y-89324707D01*
X120098932Y-89295773D01*
X120119028Y-89268677D01*
X120141682Y-89243682D01*
X120166677Y-89221028D01*
X120193773Y-89200932D01*
X120222707Y-89183590D01*
X120253203Y-89169166D01*
X120284965Y-89157802D01*
X120317688Y-89149605D01*
X120351057Y-89144655D01*
X120384750Y-89143000D01*
X121072250Y-89143000D01*
X121105943Y-89144655D01*
X121105943Y-89144655D01*
G37*
D13*
X120728500Y-90043000D03*
G04 #@! TD*
D12*
G04 #@! TO.C,C6*
G36*
X120470943Y-76571655D02*
X120504312Y-76576605D01*
X120537035Y-76584802D01*
X120568797Y-76596166D01*
X120599293Y-76610590D01*
X120628227Y-76627932D01*
X120655323Y-76648028D01*
X120680318Y-76670682D01*
X120702972Y-76695677D01*
X120723068Y-76722773D01*
X120740410Y-76751707D01*
X120754834Y-76782203D01*
X120766198Y-76813965D01*
X120774395Y-76846688D01*
X120779345Y-76880057D01*
X120781000Y-76913750D01*
X120781000Y-78026250D01*
X120779345Y-78059943D01*
X120774395Y-78093312D01*
X120766198Y-78126035D01*
X120754834Y-78157797D01*
X120740410Y-78188293D01*
X120723068Y-78217227D01*
X120702972Y-78244323D01*
X120680318Y-78269318D01*
X120655323Y-78291972D01*
X120628227Y-78312068D01*
X120599293Y-78329410D01*
X120568797Y-78343834D01*
X120537035Y-78355198D01*
X120504312Y-78363395D01*
X120470943Y-78368345D01*
X120437250Y-78370000D01*
X119749750Y-78370000D01*
X119716057Y-78368345D01*
X119682688Y-78363395D01*
X119649965Y-78355198D01*
X119618203Y-78343834D01*
X119587707Y-78329410D01*
X119558773Y-78312068D01*
X119531677Y-78291972D01*
X119506682Y-78269318D01*
X119484028Y-78244323D01*
X119463932Y-78217227D01*
X119446590Y-78188293D01*
X119432166Y-78157797D01*
X119420802Y-78126035D01*
X119412605Y-78093312D01*
X119407655Y-78059943D01*
X119406000Y-78026250D01*
X119406000Y-76913750D01*
X119407655Y-76880057D01*
X119412605Y-76846688D01*
X119420802Y-76813965D01*
X119432166Y-76782203D01*
X119446590Y-76751707D01*
X119463932Y-76722773D01*
X119484028Y-76695677D01*
X119506682Y-76670682D01*
X119531677Y-76648028D01*
X119558773Y-76627932D01*
X119587707Y-76610590D01*
X119618203Y-76596166D01*
X119649965Y-76584802D01*
X119682688Y-76576605D01*
X119716057Y-76571655D01*
X119749750Y-76570000D01*
X120437250Y-76570000D01*
X120470943Y-76571655D01*
X120470943Y-76571655D01*
G37*
D13*
X120093500Y-77470000D03*
D12*
G36*
X122345943Y-76571655D02*
X122379312Y-76576605D01*
X122412035Y-76584802D01*
X122443797Y-76596166D01*
X122474293Y-76610590D01*
X122503227Y-76627932D01*
X122530323Y-76648028D01*
X122555318Y-76670682D01*
X122577972Y-76695677D01*
X122598068Y-76722773D01*
X122615410Y-76751707D01*
X122629834Y-76782203D01*
X122641198Y-76813965D01*
X122649395Y-76846688D01*
X122654345Y-76880057D01*
X122656000Y-76913750D01*
X122656000Y-78026250D01*
X122654345Y-78059943D01*
X122649395Y-78093312D01*
X122641198Y-78126035D01*
X122629834Y-78157797D01*
X122615410Y-78188293D01*
X122598068Y-78217227D01*
X122577972Y-78244323D01*
X122555318Y-78269318D01*
X122530323Y-78291972D01*
X122503227Y-78312068D01*
X122474293Y-78329410D01*
X122443797Y-78343834D01*
X122412035Y-78355198D01*
X122379312Y-78363395D01*
X122345943Y-78368345D01*
X122312250Y-78370000D01*
X121624750Y-78370000D01*
X121591057Y-78368345D01*
X121557688Y-78363395D01*
X121524965Y-78355198D01*
X121493203Y-78343834D01*
X121462707Y-78329410D01*
X121433773Y-78312068D01*
X121406677Y-78291972D01*
X121381682Y-78269318D01*
X121359028Y-78244323D01*
X121338932Y-78217227D01*
X121321590Y-78188293D01*
X121307166Y-78157797D01*
X121295802Y-78126035D01*
X121287605Y-78093312D01*
X121282655Y-78059943D01*
X121281000Y-78026250D01*
X121281000Y-76913750D01*
X121282655Y-76880057D01*
X121287605Y-76846688D01*
X121295802Y-76813965D01*
X121307166Y-76782203D01*
X121321590Y-76751707D01*
X121338932Y-76722773D01*
X121359028Y-76695677D01*
X121381682Y-76670682D01*
X121406677Y-76648028D01*
X121433773Y-76627932D01*
X121462707Y-76610590D01*
X121493203Y-76596166D01*
X121524965Y-76584802D01*
X121557688Y-76576605D01*
X121591057Y-76571655D01*
X121624750Y-76570000D01*
X122312250Y-76570000D01*
X122345943Y-76571655D01*
X122345943Y-76571655D01*
G37*
D13*
X121968500Y-77470000D03*
G04 #@! TD*
D15*
G04 #@! TO.C,J1*
X111760000Y-86360000D03*
D16*
X109220000Y-86360000D03*
X111760000Y-83820000D03*
X109220000Y-83820000D03*
X111760000Y-81280000D03*
X109220000Y-81280000D03*
G04 #@! TD*
G04 #@! TO.C,J2*
X121920000Y-95250000D03*
X121920000Y-97790000D03*
X119380000Y-95250000D03*
X119380000Y-97790000D03*
X116840000Y-95250000D03*
D15*
X116840000Y-97790000D03*
G04 #@! TD*
G04 #@! TO.C,J3*
X116840000Y-72390000D03*
D16*
X116840000Y-69850000D03*
X119380000Y-72390000D03*
X119380000Y-69850000D03*
X121920000Y-72390000D03*
X121920000Y-69850000D03*
G04 #@! TD*
M02*
