M48
;DRILL file {KiCad (6.0.0-rc1-dev-205-gc0615c5ef)} date 09/04/19 07:50:25
;FORMAT={3:3/ absolute / metric / suppress leading zeros}
FMAT,2
METRIC,TZ
T1C0.400
T2C1.000
T3C3.000
%
G90
G05
M71
T1
X109220Y-78994
X109220Y-88646
X111760Y-78994
X111760Y-88646
X113284Y-77216
X114554Y-69088
X114554Y-70866
X114554Y-72898
X114554Y-94742
X114554Y-96520
X114554Y-98298
X115570Y-85852
X117968Y-81026
X119818Y-83951
X123444Y-75438
X123444Y-77470
X123444Y-82804
X124206Y-69088
X124206Y-70866
X124206Y-72898
X124206Y-90170
X124206Y-91948
X124206Y-94742
X124206Y-96520
X124206Y-98298
T2
X116840Y-69850
X116840Y-72390
X119380Y-69850
X119380Y-72390
X121920Y-69850
X121920Y-72390
X116840Y-95250
X116840Y-97790
X119380Y-95250
X119380Y-97790
X121920Y-95250
X121920Y-97790
X109220Y-81280
X109220Y-83820
X109220Y-86360
X111760Y-81280
X111760Y-83820
X111760Y-86360
T3
X121920Y-104140
X121920Y-63500
X111760Y-104140
X111760Y-63500
T0
M30
