G04 #@! TF.GenerationSoftware,KiCad,Pcbnew,(6.0.0-rc1-dev-205-gc0615c5ef)*
G04 #@! TF.CreationDate,2019-09-04T07:50:23+02:00*
G04 #@! TF.ProjectId,TPS65133_2,54505336353133335F322E6B69636164,v01*
G04 #@! TF.SameCoordinates,Original*
G04 #@! TF.FileFunction,Legend,Top*
G04 #@! TF.FilePolarity,Positive*
%FSLAX46Y46*%
G04 Gerber Fmt 4.6, Leading zero omitted, Abs format (unit mm)*
G04 Created by KiCad (PCBNEW (6.0.0-rc1-dev-205-gc0615c5ef)) date 09/04/19 07:50:23*
%MOMM*%
%LPD*%
G01*
G04 APERTURE LIST*
%ADD10C,0.300000*%
%ADD11C,0.200000*%
%ADD12C,0.250000*%
%ADD13C,0.120000*%
%ADD14C,0.150000*%
G04 APERTURE END LIST*
D10*
X108806142Y-77564571D02*
X108877571Y-77350285D01*
X108877571Y-76993142D01*
X108806142Y-76850285D01*
X108734714Y-76778857D01*
X108591857Y-76707428D01*
X108449000Y-76707428D01*
X108306142Y-76778857D01*
X108234714Y-76850285D01*
X108163285Y-76993142D01*
X108091857Y-77278857D01*
X108020428Y-77421714D01*
X107949000Y-77493142D01*
X107806142Y-77564571D01*
X107663285Y-77564571D01*
X107520428Y-77493142D01*
X107449000Y-77421714D01*
X107377571Y-77278857D01*
X107377571Y-76921714D01*
X107449000Y-76707428D01*
X107877571Y-76207428D02*
X108877571Y-75850285D01*
X107877571Y-75493142D02*
X108877571Y-75850285D01*
X109234714Y-75993142D01*
X109306142Y-76064571D01*
X109377571Y-76207428D01*
X108877571Y-74921714D02*
X107877571Y-74921714D01*
X108020428Y-74921714D02*
X107949000Y-74850285D01*
X107877571Y-74707428D01*
X107877571Y-74493142D01*
X107949000Y-74350285D01*
X108091857Y-74278857D01*
X108877571Y-74278857D01*
X108091857Y-74278857D02*
X107949000Y-74207428D01*
X107877571Y-74064571D01*
X107877571Y-73850285D01*
X107949000Y-73707428D01*
X108091857Y-73636000D01*
X108877571Y-73636000D01*
X108734714Y-72921714D02*
X108806142Y-72850285D01*
X108877571Y-72921714D01*
X108806142Y-72993142D01*
X108734714Y-72921714D01*
X108877571Y-72921714D01*
X107877571Y-71064571D02*
X109377571Y-71064571D01*
X107949000Y-71064571D02*
X107877571Y-70921714D01*
X107877571Y-70636000D01*
X107949000Y-70493142D01*
X108020428Y-70421714D01*
X108163285Y-70350285D01*
X108591857Y-70350285D01*
X108734714Y-70421714D01*
X108806142Y-70493142D01*
X108877571Y-70636000D01*
X108877571Y-70921714D01*
X108806142Y-71064571D01*
X108877571Y-69493142D02*
X108806142Y-69636000D01*
X108734714Y-69707428D01*
X108591857Y-69778857D01*
X108163285Y-69778857D01*
X108020428Y-69707428D01*
X107949000Y-69636000D01*
X107877571Y-69493142D01*
X107877571Y-69278857D01*
X107949000Y-69136000D01*
X108020428Y-69064571D01*
X108163285Y-68993142D01*
X108591857Y-68993142D01*
X108734714Y-69064571D01*
X108806142Y-69136000D01*
X108877571Y-69278857D01*
X108877571Y-69493142D01*
X107877571Y-68493142D02*
X108877571Y-68207428D01*
X108163285Y-67921714D01*
X108877571Y-67636000D01*
X107877571Y-67350285D01*
X108734714Y-66778857D02*
X108806142Y-66707428D01*
X108877571Y-66778857D01*
X108806142Y-66850285D01*
X108734714Y-66778857D01*
X108877571Y-66778857D01*
X111356142Y-75457428D02*
X111427571Y-75314571D01*
X111427571Y-75028857D01*
X111356142Y-74886000D01*
X111213285Y-74814571D01*
X111141857Y-74814571D01*
X110999000Y-74886000D01*
X110927571Y-75028857D01*
X110927571Y-75243142D01*
X110856142Y-75386000D01*
X110713285Y-75457428D01*
X110641857Y-75457428D01*
X110499000Y-75386000D01*
X110427571Y-75243142D01*
X110427571Y-75028857D01*
X110499000Y-74886000D01*
X110427571Y-73528857D02*
X111427571Y-73528857D01*
X110427571Y-74171714D02*
X111213285Y-74171714D01*
X111356142Y-74100285D01*
X111427571Y-73957428D01*
X111427571Y-73743142D01*
X111356142Y-73600285D01*
X111284714Y-73528857D01*
X110427571Y-72814571D02*
X111927571Y-72814571D01*
X110499000Y-72814571D02*
X110427571Y-72671714D01*
X110427571Y-72386000D01*
X110499000Y-72243142D01*
X110570428Y-72171714D01*
X110713285Y-72100285D01*
X111141857Y-72100285D01*
X111284714Y-72171714D01*
X111356142Y-72243142D01*
X111427571Y-72386000D01*
X111427571Y-72671714D01*
X111356142Y-72814571D01*
X110427571Y-71457428D02*
X111927571Y-71457428D01*
X110499000Y-71457428D02*
X110427571Y-71314571D01*
X110427571Y-71028857D01*
X110499000Y-70886000D01*
X110570428Y-70814571D01*
X110713285Y-70743142D01*
X111141857Y-70743142D01*
X111284714Y-70814571D01*
X111356142Y-70886000D01*
X111427571Y-71028857D01*
X111427571Y-71314571D01*
X111356142Y-71457428D01*
X111427571Y-69886000D02*
X111356142Y-70028857D01*
X111213285Y-70100285D01*
X109927571Y-70100285D01*
X110427571Y-69457428D02*
X111427571Y-69100285D01*
X110427571Y-68743142D02*
X111427571Y-69100285D01*
X111784714Y-69243142D01*
X111856142Y-69314571D01*
X111927571Y-69457428D01*
D11*
G04 #@! TO.C,L1*
X116769821Y-89168848D02*
X116769821Y-87368848D01*
G04 #@! TO.C,L2*
X115994000Y-78116000D02*
X115994000Y-76316000D01*
D12*
G04 #@! TO.C,IC1*
X118192821Y-85825848D02*
G75*
G03X118192821Y-85825848I-125000J0D01*
G01*
D13*
G04 #@! TO.C,C1*
X115907078Y-79046000D02*
X115389922Y-79046000D01*
X115907078Y-80466000D02*
X115389922Y-80466000D01*
G04 #@! TO.C,C2*
X121407422Y-91365000D02*
X121924578Y-91365000D01*
X121407422Y-92785000D02*
X121924578Y-92785000D01*
G04 #@! TO.C,C3*
X116788000Y-83307422D02*
X116788000Y-83824578D01*
X115368000Y-83307422D02*
X115368000Y-83824578D01*
G04 #@! TO.C,C4*
X120772422Y-76148000D02*
X121289578Y-76148000D01*
X120772422Y-74728000D02*
X121289578Y-74728000D01*
G04 #@! TO.C,C5*
X121407422Y-90753000D02*
X121924578Y-90753000D01*
X121407422Y-89333000D02*
X121924578Y-89333000D01*
G04 #@! TO.C,C6*
X120772422Y-76760000D02*
X121289578Y-76760000D01*
X120772422Y-78180000D02*
X121289578Y-78180000D01*
G04 #@! TO.C,J1*
X113090000Y-79950000D02*
X107890000Y-79950000D01*
X113090000Y-85090000D02*
X113090000Y-79950000D01*
X107890000Y-87690000D02*
X107890000Y-79950000D01*
X113090000Y-85090000D02*
X110490000Y-85090000D01*
X110490000Y-85090000D02*
X110490000Y-87690000D01*
X110490000Y-87690000D02*
X107890000Y-87690000D01*
X113090000Y-86360000D02*
X113090000Y-87690000D01*
X113090000Y-87690000D02*
X111760000Y-87690000D01*
G04 #@! TO.C,J2*
X115510000Y-99120000D02*
X115510000Y-97790000D01*
X116840000Y-99120000D02*
X115510000Y-99120000D01*
X115510000Y-96520000D02*
X115510000Y-93920000D01*
X118110000Y-96520000D02*
X115510000Y-96520000D01*
X118110000Y-99120000D02*
X118110000Y-96520000D01*
X115510000Y-93920000D02*
X123250000Y-93920000D01*
X118110000Y-99120000D02*
X123250000Y-99120000D01*
X123250000Y-99120000D02*
X123250000Y-93920000D01*
G04 #@! TO.C,J3*
X123250000Y-73720000D02*
X123250000Y-68520000D01*
X118110000Y-73720000D02*
X123250000Y-73720000D01*
X115510000Y-68520000D02*
X123250000Y-68520000D01*
X118110000Y-73720000D02*
X118110000Y-71120000D01*
X118110000Y-71120000D02*
X115510000Y-71120000D01*
X115510000Y-71120000D02*
X115510000Y-68520000D01*
X116840000Y-73720000D02*
X115510000Y-73720000D01*
X115510000Y-73720000D02*
X115510000Y-72390000D01*
G04 #@! TO.C,MH1*
D14*
X110426666Y-59952380D02*
X110426666Y-58952380D01*
X110760000Y-59666666D01*
X111093333Y-58952380D01*
X111093333Y-59952380D01*
X111569523Y-59952380D02*
X111569523Y-58952380D01*
X111569523Y-59428571D02*
X112140952Y-59428571D01*
X112140952Y-59952380D02*
X112140952Y-58952380D01*
X113140952Y-59952380D02*
X112569523Y-59952380D01*
X112855238Y-59952380D02*
X112855238Y-58952380D01*
X112760000Y-59095238D01*
X112664761Y-59190476D01*
X112569523Y-59238095D01*
G04 #@! TO.C,MH2*
X110426666Y-100592380D02*
X110426666Y-99592380D01*
X110760000Y-100306666D01*
X111093333Y-99592380D01*
X111093333Y-100592380D01*
X111569523Y-100592380D02*
X111569523Y-99592380D01*
X111569523Y-100068571D02*
X112140952Y-100068571D01*
X112140952Y-100592380D02*
X112140952Y-99592380D01*
X112569523Y-99687619D02*
X112617142Y-99640000D01*
X112712380Y-99592380D01*
X112950476Y-99592380D01*
X113045714Y-99640000D01*
X113093333Y-99687619D01*
X113140952Y-99782857D01*
X113140952Y-99878095D01*
X113093333Y-100020952D01*
X112521904Y-100592380D01*
X113140952Y-100592380D01*
G04 #@! TO.C,MH3*
X120586666Y-59952380D02*
X120586666Y-58952380D01*
X120920000Y-59666666D01*
X121253333Y-58952380D01*
X121253333Y-59952380D01*
X121729523Y-59952380D02*
X121729523Y-58952380D01*
X121729523Y-59428571D02*
X122300952Y-59428571D01*
X122300952Y-59952380D02*
X122300952Y-58952380D01*
X122681904Y-58952380D02*
X123300952Y-58952380D01*
X122967619Y-59333333D01*
X123110476Y-59333333D01*
X123205714Y-59380952D01*
X123253333Y-59428571D01*
X123300952Y-59523809D01*
X123300952Y-59761904D01*
X123253333Y-59857142D01*
X123205714Y-59904761D01*
X123110476Y-59952380D01*
X122824761Y-59952380D01*
X122729523Y-59904761D01*
X122681904Y-59857142D01*
G04 #@! TO.C,MH4*
X120586666Y-100592380D02*
X120586666Y-99592380D01*
X120920000Y-100306666D01*
X121253333Y-99592380D01*
X121253333Y-100592380D01*
X121729523Y-100592380D02*
X121729523Y-99592380D01*
X121729523Y-100068571D02*
X122300952Y-100068571D01*
X122300952Y-100592380D02*
X122300952Y-99592380D01*
X123205714Y-99925714D02*
X123205714Y-100592380D01*
X122967619Y-99544761D02*
X122729523Y-100259047D01*
X123348571Y-100259047D01*
G04 #@! TO.C,J1*
X109902666Y-89622380D02*
X109902666Y-90336666D01*
X109855047Y-90479523D01*
X109759809Y-90574761D01*
X109616952Y-90622380D01*
X109521714Y-90622380D01*
X110902666Y-90622380D02*
X110331238Y-90622380D01*
X110616952Y-90622380D02*
X110616952Y-89622380D01*
X110521714Y-89765238D01*
X110426476Y-89860476D01*
X110331238Y-89908095D01*
G04 #@! TO.C,J2*
X112736380Y-96853333D02*
X113450666Y-96853333D01*
X113593523Y-96900952D01*
X113688761Y-96996190D01*
X113736380Y-97139047D01*
X113736380Y-97234285D01*
X112831619Y-96424761D02*
X112784000Y-96377142D01*
X112736380Y-96281904D01*
X112736380Y-96043809D01*
X112784000Y-95948571D01*
X112831619Y-95900952D01*
X112926857Y-95853333D01*
X113022095Y-95853333D01*
X113164952Y-95900952D01*
X113736380Y-96472380D01*
X113736380Y-95853333D01*
G04 #@! TO.C,J3*
X112736380Y-71453333D02*
X113450666Y-71453333D01*
X113593523Y-71500952D01*
X113688761Y-71596190D01*
X113736380Y-71739047D01*
X113736380Y-71834285D01*
X112736380Y-71072380D02*
X112736380Y-70453333D01*
X113117333Y-70786666D01*
X113117333Y-70643809D01*
X113164952Y-70548571D01*
X113212571Y-70500952D01*
X113307809Y-70453333D01*
X113545904Y-70453333D01*
X113641142Y-70500952D01*
X113688761Y-70548571D01*
X113736380Y-70643809D01*
X113736380Y-70929523D01*
X113688761Y-71024761D01*
X113641142Y-71072380D01*
G04 #@! TD*
M02*
