G04 #@! TF.GenerationSoftware,KiCad,Pcbnew,(6.0.0-rc1-dev-205-gc0615c5ef)*
G04 #@! TF.CreationDate,2019-09-04T07:50:23+02:00*
G04 #@! TF.ProjectId,TPS65133_2,54505336353133335F322E6B69636164,v01*
G04 #@! TF.SameCoordinates,Original*
G04 #@! TF.FileFunction,Copper,L2,Bot,Signal*
G04 #@! TF.FilePolarity,Positive*
%FSLAX46Y46*%
G04 Gerber Fmt 4.6, Leading zero omitted, Abs format (unit mm)*
G04 Created by KiCad (PCBNEW (6.0.0-rc1-dev-205-gc0615c5ef)) date 09/04/19 07:50:23*
%MOMM*%
%LPD*%
G01*
G04 APERTURE LIST*
G04 #@! TA.AperFunction,ComponentPad*
%ADD10C,6.000000*%
G04 #@! TD*
G04 #@! TA.AperFunction,ComponentPad*
%ADD11R,1.700000X1.700000*%
G04 #@! TD*
G04 #@! TA.AperFunction,ComponentPad*
%ADD12O,1.700000X1.700000*%
G04 #@! TD*
G04 #@! TA.AperFunction,ViaPad*
%ADD13C,0.800000*%
G04 #@! TD*
G04 #@! TA.AperFunction,Conductor*
%ADD14C,0.500000*%
G04 #@! TD*
G04 #@! TA.AperFunction,Conductor*
%ADD15C,0.254000*%
G04 #@! TD*
G04 APERTURE END LIST*
D10*
G04 #@! TO.P,MH1,1*
G04 #@! TO.N,N/C*
X111760000Y-63500000D03*
G04 #@! TD*
G04 #@! TO.P,MH2,1*
G04 #@! TO.N,N/C*
X111760000Y-104140000D03*
G04 #@! TD*
G04 #@! TO.P,MH3,1*
G04 #@! TO.N,N/C*
X121920000Y-63500000D03*
G04 #@! TD*
G04 #@! TO.P,MH4,1*
G04 #@! TO.N,N/C*
X121920000Y-104140000D03*
G04 #@! TD*
D11*
G04 #@! TO.P,J1,1*
G04 #@! TO.N,GND*
X111760000Y-86360000D03*
D12*
G04 #@! TO.P,J1,2*
X109220000Y-86360000D03*
G04 #@! TO.P,J1,3*
G04 #@! TO.N,Net-(C1-Pad1)*
X111760000Y-83820000D03*
G04 #@! TO.P,J1,4*
X109220000Y-83820000D03*
G04 #@! TO.P,J1,5*
G04 #@! TO.N,GND*
X111760000Y-81280000D03*
G04 #@! TO.P,J1,6*
X109220000Y-81280000D03*
G04 #@! TD*
G04 #@! TO.P,J2,6*
G04 #@! TO.N,GND*
X121920000Y-95250000D03*
G04 #@! TO.P,J2,5*
X121920000Y-97790000D03*
G04 #@! TO.P,J2,4*
G04 #@! TO.N,Net-(C2-Pad1)*
X119380000Y-95250000D03*
G04 #@! TO.P,J2,3*
X119380000Y-97790000D03*
G04 #@! TO.P,J2,2*
G04 #@! TO.N,GND*
X116840000Y-95250000D03*
D11*
G04 #@! TO.P,J2,1*
X116840000Y-97790000D03*
G04 #@! TD*
G04 #@! TO.P,J3,1*
G04 #@! TO.N,GND*
X116840000Y-72390000D03*
D12*
G04 #@! TO.P,J3,2*
X116840000Y-69850000D03*
G04 #@! TO.P,J3,3*
G04 #@! TO.N,Net-(C4-Pad1)*
X119380000Y-72390000D03*
G04 #@! TO.P,J3,4*
X119380000Y-69850000D03*
G04 #@! TO.P,J3,5*
G04 #@! TO.N,GND*
X121920000Y-72390000D03*
G04 #@! TO.P,J3,6*
X121920000Y-69850000D03*
G04 #@! TD*
D13*
G04 #@! TO.N,GND*
X114554000Y-69088000D03*
X114554000Y-72898000D03*
X111760000Y-78994000D03*
X109220000Y-78994000D03*
X111760000Y-88646000D03*
X109220000Y-88646000D03*
X119817821Y-83950848D03*
X113284000Y-77216000D03*
X114554000Y-70866000D03*
X115570000Y-85852000D03*
X114554000Y-94742000D03*
X124206000Y-90170000D03*
X124206000Y-91948000D03*
X124206000Y-94742000D03*
X124206000Y-69088000D03*
X124206000Y-70866000D03*
X124206000Y-72898000D03*
X124206000Y-96520000D03*
X114554000Y-98298000D03*
X114554000Y-96520000D03*
X124206000Y-98298000D03*
X123444000Y-75438000D03*
X123444000Y-77470000D03*
G04 #@! TO.N,Net-(C1-Pad1)*
X123444000Y-82804000D03*
X117967973Y-81026000D03*
G04 #@! TD*
D14*
G04 #@! TO.N,Net-(C1-Pad1)*
X121666000Y-81026000D02*
X123444000Y-82804000D01*
X117967973Y-81026000D02*
X121666000Y-81026000D01*
G04 #@! TD*
D15*
G04 #@! TO.N,GND*
G36*
X126036001Y-98736070D02*
X126036000Y-98736075D01*
X126036001Y-108256000D01*
X107644000Y-108256000D01*
X107644000Y-103416954D01*
X108125000Y-103416954D01*
X108125000Y-104863046D01*
X108678396Y-106199062D01*
X109700938Y-107221604D01*
X111036954Y-107775000D01*
X112483046Y-107775000D01*
X113819062Y-107221604D01*
X114841604Y-106199062D01*
X115395000Y-104863046D01*
X115395000Y-103416954D01*
X118285000Y-103416954D01*
X118285000Y-104863046D01*
X118838396Y-106199062D01*
X119860938Y-107221604D01*
X121196954Y-107775000D01*
X122643046Y-107775000D01*
X123979062Y-107221604D01*
X125001604Y-106199062D01*
X125555000Y-104863046D01*
X125555000Y-103416954D01*
X125001604Y-102080938D01*
X123979062Y-101058396D01*
X122643046Y-100505000D01*
X121196954Y-100505000D01*
X119860938Y-101058396D01*
X118838396Y-102080938D01*
X118285000Y-103416954D01*
X115395000Y-103416954D01*
X114841604Y-102080938D01*
X113819062Y-101058396D01*
X112483046Y-100505000D01*
X111036954Y-100505000D01*
X109700938Y-101058396D01*
X108678396Y-102080938D01*
X108125000Y-103416954D01*
X107644000Y-103416954D01*
X107644000Y-98075750D01*
X115355000Y-98075750D01*
X115355000Y-98766309D01*
X115451673Y-98999698D01*
X115630301Y-99178327D01*
X115863690Y-99275000D01*
X116554250Y-99275000D01*
X116713000Y-99116250D01*
X116713000Y-97917000D01*
X115513750Y-97917000D01*
X115355000Y-98075750D01*
X107644000Y-98075750D01*
X107644000Y-96813691D01*
X115355000Y-96813691D01*
X115355000Y-97504250D01*
X115513750Y-97663000D01*
X116713000Y-97663000D01*
X116713000Y-95377000D01*
X115519181Y-95377000D01*
X115398514Y-95606892D01*
X115644817Y-96131358D01*
X115844208Y-96313070D01*
X115630301Y-96401673D01*
X115451673Y-96580302D01*
X115355000Y-96813691D01*
X107644000Y-96813691D01*
X107644000Y-94893108D01*
X115398514Y-94893108D01*
X115519181Y-95123000D01*
X116713000Y-95123000D01*
X116713000Y-93929845D01*
X116967000Y-93929845D01*
X116967000Y-95123000D01*
X116987000Y-95123000D01*
X116987000Y-95377000D01*
X116967000Y-95377000D01*
X116967000Y-97663000D01*
X116987000Y-97663000D01*
X116987000Y-97917000D01*
X116967000Y-97917000D01*
X116967000Y-99116250D01*
X117125750Y-99275000D01*
X117816310Y-99275000D01*
X118049699Y-99178327D01*
X118228327Y-98999698D01*
X118294904Y-98838967D01*
X118309375Y-98860625D01*
X118800582Y-99188839D01*
X119233744Y-99275000D01*
X119526256Y-99275000D01*
X119959418Y-99188839D01*
X120450625Y-98860625D01*
X120663843Y-98541522D01*
X120724817Y-98671358D01*
X121153076Y-99061645D01*
X121563110Y-99231476D01*
X121793000Y-99110155D01*
X121793000Y-97917000D01*
X122047000Y-97917000D01*
X122047000Y-99110155D01*
X122276890Y-99231476D01*
X122686924Y-99061645D01*
X123115183Y-98671358D01*
X123361486Y-98146892D01*
X123240819Y-97917000D01*
X122047000Y-97917000D01*
X121793000Y-97917000D01*
X121773000Y-97917000D01*
X121773000Y-97663000D01*
X121793000Y-97663000D01*
X121793000Y-95377000D01*
X122047000Y-95377000D01*
X122047000Y-97663000D01*
X123240819Y-97663000D01*
X123361486Y-97433108D01*
X123115183Y-96908642D01*
X122688729Y-96520000D01*
X123115183Y-96131358D01*
X123361486Y-95606892D01*
X123240819Y-95377000D01*
X122047000Y-95377000D01*
X121793000Y-95377000D01*
X121773000Y-95377000D01*
X121773000Y-95123000D01*
X121793000Y-95123000D01*
X121793000Y-93929845D01*
X122047000Y-93929845D01*
X122047000Y-95123000D01*
X123240819Y-95123000D01*
X123361486Y-94893108D01*
X123115183Y-94368642D01*
X122686924Y-93978355D01*
X122276890Y-93808524D01*
X122047000Y-93929845D01*
X121793000Y-93929845D01*
X121563110Y-93808524D01*
X121153076Y-93978355D01*
X120724817Y-94368642D01*
X120663843Y-94498478D01*
X120450625Y-94179375D01*
X119959418Y-93851161D01*
X119526256Y-93765000D01*
X119233744Y-93765000D01*
X118800582Y-93851161D01*
X118309375Y-94179375D01*
X118096157Y-94498478D01*
X118035183Y-94368642D01*
X117606924Y-93978355D01*
X117196890Y-93808524D01*
X116967000Y-93929845D01*
X116713000Y-93929845D01*
X116483110Y-93808524D01*
X116073076Y-93978355D01*
X115644817Y-94368642D01*
X115398514Y-94893108D01*
X107644000Y-94893108D01*
X107644000Y-86716890D01*
X107778524Y-86716890D01*
X107948355Y-87126924D01*
X108338642Y-87555183D01*
X108863108Y-87801486D01*
X109093000Y-87680819D01*
X109093000Y-86487000D01*
X109347000Y-86487000D01*
X109347000Y-87680819D01*
X109576892Y-87801486D01*
X110101358Y-87555183D01*
X110283070Y-87355792D01*
X110371673Y-87569699D01*
X110550302Y-87748327D01*
X110783691Y-87845000D01*
X111474250Y-87845000D01*
X111633000Y-87686250D01*
X111633000Y-86487000D01*
X111887000Y-86487000D01*
X111887000Y-87686250D01*
X112045750Y-87845000D01*
X112736309Y-87845000D01*
X112969698Y-87748327D01*
X113148327Y-87569699D01*
X113245000Y-87336310D01*
X113245000Y-86645750D01*
X113086250Y-86487000D01*
X111887000Y-86487000D01*
X111633000Y-86487000D01*
X109347000Y-86487000D01*
X109093000Y-86487000D01*
X107899845Y-86487000D01*
X107778524Y-86716890D01*
X107644000Y-86716890D01*
X107644000Y-83820000D01*
X107705908Y-83820000D01*
X107821161Y-84399418D01*
X108149375Y-84890625D01*
X108468478Y-85103843D01*
X108338642Y-85164817D01*
X107948355Y-85593076D01*
X107778524Y-86003110D01*
X107899845Y-86233000D01*
X109093000Y-86233000D01*
X109093000Y-86213000D01*
X109347000Y-86213000D01*
X109347000Y-86233000D01*
X111633000Y-86233000D01*
X111633000Y-86213000D01*
X111887000Y-86213000D01*
X111887000Y-86233000D01*
X113086250Y-86233000D01*
X113245000Y-86074250D01*
X113245000Y-85383690D01*
X113148327Y-85150301D01*
X112969698Y-84971673D01*
X112808967Y-84905096D01*
X112830625Y-84890625D01*
X113158839Y-84399418D01*
X113274092Y-83820000D01*
X113158839Y-83240582D01*
X112830625Y-82749375D01*
X112511522Y-82536157D01*
X112641358Y-82475183D01*
X113031645Y-82046924D01*
X113201476Y-81636890D01*
X113080155Y-81407000D01*
X111887000Y-81407000D01*
X111887000Y-81427000D01*
X111633000Y-81427000D01*
X111633000Y-81407000D01*
X109347000Y-81407000D01*
X109347000Y-81427000D01*
X109093000Y-81427000D01*
X109093000Y-81407000D01*
X107899845Y-81407000D01*
X107778524Y-81636890D01*
X107948355Y-82046924D01*
X108338642Y-82475183D01*
X108468478Y-82536157D01*
X108149375Y-82749375D01*
X107821161Y-83240582D01*
X107705908Y-83820000D01*
X107644000Y-83820000D01*
X107644000Y-80923110D01*
X107778524Y-80923110D01*
X107899845Y-81153000D01*
X109093000Y-81153000D01*
X109093000Y-79959181D01*
X109347000Y-79959181D01*
X109347000Y-81153000D01*
X111633000Y-81153000D01*
X111633000Y-79959181D01*
X111887000Y-79959181D01*
X111887000Y-81153000D01*
X113080155Y-81153000D01*
X113201476Y-80923110D01*
X113158822Y-80820126D01*
X116932973Y-80820126D01*
X116932973Y-81231874D01*
X117090542Y-81612280D01*
X117381693Y-81903431D01*
X117762099Y-82061000D01*
X118173847Y-82061000D01*
X118535980Y-81911000D01*
X121299422Y-81911000D01*
X122416569Y-83028148D01*
X122566569Y-83390280D01*
X122857720Y-83681431D01*
X123238126Y-83839000D01*
X123649874Y-83839000D01*
X124030280Y-83681431D01*
X124321431Y-83390280D01*
X124479000Y-83009874D01*
X124479000Y-82598126D01*
X124321431Y-82217720D01*
X124030280Y-81926569D01*
X123668148Y-81776569D01*
X122353425Y-80461847D01*
X122304049Y-80387951D01*
X122011310Y-80192348D01*
X121753165Y-80141000D01*
X121753161Y-80141000D01*
X121666000Y-80123663D01*
X121578839Y-80141000D01*
X118535980Y-80141000D01*
X118173847Y-79991000D01*
X117762099Y-79991000D01*
X117381693Y-80148569D01*
X117090542Y-80439720D01*
X116932973Y-80820126D01*
X113158822Y-80820126D01*
X113031645Y-80513076D01*
X112641358Y-80084817D01*
X112116892Y-79838514D01*
X111887000Y-79959181D01*
X111633000Y-79959181D01*
X111403108Y-79838514D01*
X110878642Y-80084817D01*
X110490000Y-80511271D01*
X110101358Y-80084817D01*
X109576892Y-79838514D01*
X109347000Y-79959181D01*
X109093000Y-79959181D01*
X108863108Y-79838514D01*
X108338642Y-80084817D01*
X107948355Y-80513076D01*
X107778524Y-80923110D01*
X107644000Y-80923110D01*
X107644000Y-72675750D01*
X115355000Y-72675750D01*
X115355000Y-73366309D01*
X115451673Y-73599698D01*
X115630301Y-73778327D01*
X115863690Y-73875000D01*
X116554250Y-73875000D01*
X116713000Y-73716250D01*
X116713000Y-72517000D01*
X115513750Y-72517000D01*
X115355000Y-72675750D01*
X107644000Y-72675750D01*
X107644000Y-71413691D01*
X115355000Y-71413691D01*
X115355000Y-72104250D01*
X115513750Y-72263000D01*
X116713000Y-72263000D01*
X116713000Y-69977000D01*
X115519181Y-69977000D01*
X115398514Y-70206892D01*
X115644817Y-70731358D01*
X115844208Y-70913070D01*
X115630301Y-71001673D01*
X115451673Y-71180302D01*
X115355000Y-71413691D01*
X107644000Y-71413691D01*
X107644000Y-69493108D01*
X115398514Y-69493108D01*
X115519181Y-69723000D01*
X116713000Y-69723000D01*
X116713000Y-68529845D01*
X116967000Y-68529845D01*
X116967000Y-69723000D01*
X116987000Y-69723000D01*
X116987000Y-69977000D01*
X116967000Y-69977000D01*
X116967000Y-72263000D01*
X116987000Y-72263000D01*
X116987000Y-72517000D01*
X116967000Y-72517000D01*
X116967000Y-73716250D01*
X117125750Y-73875000D01*
X117816310Y-73875000D01*
X118049699Y-73778327D01*
X118228327Y-73599698D01*
X118294904Y-73438967D01*
X118309375Y-73460625D01*
X118800582Y-73788839D01*
X119233744Y-73875000D01*
X119526256Y-73875000D01*
X119959418Y-73788839D01*
X120450625Y-73460625D01*
X120663843Y-73141522D01*
X120724817Y-73271358D01*
X121153076Y-73661645D01*
X121563110Y-73831476D01*
X121793000Y-73710155D01*
X121793000Y-72517000D01*
X122047000Y-72517000D01*
X122047000Y-73710155D01*
X122276890Y-73831476D01*
X122686924Y-73661645D01*
X123115183Y-73271358D01*
X123361486Y-72746892D01*
X123240819Y-72517000D01*
X122047000Y-72517000D01*
X121793000Y-72517000D01*
X121773000Y-72517000D01*
X121773000Y-72263000D01*
X121793000Y-72263000D01*
X121793000Y-69977000D01*
X122047000Y-69977000D01*
X122047000Y-72263000D01*
X123240819Y-72263000D01*
X123361486Y-72033108D01*
X123115183Y-71508642D01*
X122688729Y-71120000D01*
X123115183Y-70731358D01*
X123361486Y-70206892D01*
X123240819Y-69977000D01*
X122047000Y-69977000D01*
X121793000Y-69977000D01*
X121773000Y-69977000D01*
X121773000Y-69723000D01*
X121793000Y-69723000D01*
X121793000Y-68529845D01*
X122047000Y-68529845D01*
X122047000Y-69723000D01*
X123240819Y-69723000D01*
X123361486Y-69493108D01*
X123115183Y-68968642D01*
X122686924Y-68578355D01*
X122276890Y-68408524D01*
X122047000Y-68529845D01*
X121793000Y-68529845D01*
X121563110Y-68408524D01*
X121153076Y-68578355D01*
X120724817Y-68968642D01*
X120663843Y-69098478D01*
X120450625Y-68779375D01*
X119959418Y-68451161D01*
X119526256Y-68365000D01*
X119233744Y-68365000D01*
X118800582Y-68451161D01*
X118309375Y-68779375D01*
X118096157Y-69098478D01*
X118035183Y-68968642D01*
X117606924Y-68578355D01*
X117196890Y-68408524D01*
X116967000Y-68529845D01*
X116713000Y-68529845D01*
X116483110Y-68408524D01*
X116073076Y-68578355D01*
X115644817Y-68968642D01*
X115398514Y-69493108D01*
X107644000Y-69493108D01*
X107644000Y-62776954D01*
X108125000Y-62776954D01*
X108125000Y-64223046D01*
X108678396Y-65559062D01*
X109700938Y-66581604D01*
X111036954Y-67135000D01*
X112483046Y-67135000D01*
X113819062Y-66581604D01*
X114841604Y-65559062D01*
X115395000Y-64223046D01*
X115395000Y-62776954D01*
X118285000Y-62776954D01*
X118285000Y-64223046D01*
X118838396Y-65559062D01*
X119860938Y-66581604D01*
X121196954Y-67135000D01*
X122643046Y-67135000D01*
X123979062Y-66581604D01*
X125001604Y-65559062D01*
X125555000Y-64223046D01*
X125555000Y-62776954D01*
X125001604Y-61440938D01*
X123979062Y-60418396D01*
X122643046Y-59865000D01*
X121196954Y-59865000D01*
X119860938Y-60418396D01*
X118838396Y-61440938D01*
X118285000Y-62776954D01*
X115395000Y-62776954D01*
X114841604Y-61440938D01*
X113819062Y-60418396D01*
X112483046Y-59865000D01*
X111036954Y-59865000D01*
X109700938Y-60418396D01*
X108678396Y-61440938D01*
X108125000Y-62776954D01*
X107644000Y-62776954D01*
X107644000Y-59384000D01*
X126036000Y-59384000D01*
X126036001Y-98736070D01*
X126036001Y-98736070D01*
G37*
X126036001Y-98736070D02*
X126036000Y-98736075D01*
X126036001Y-108256000D01*
X107644000Y-108256000D01*
X107644000Y-103416954D01*
X108125000Y-103416954D01*
X108125000Y-104863046D01*
X108678396Y-106199062D01*
X109700938Y-107221604D01*
X111036954Y-107775000D01*
X112483046Y-107775000D01*
X113819062Y-107221604D01*
X114841604Y-106199062D01*
X115395000Y-104863046D01*
X115395000Y-103416954D01*
X118285000Y-103416954D01*
X118285000Y-104863046D01*
X118838396Y-106199062D01*
X119860938Y-107221604D01*
X121196954Y-107775000D01*
X122643046Y-107775000D01*
X123979062Y-107221604D01*
X125001604Y-106199062D01*
X125555000Y-104863046D01*
X125555000Y-103416954D01*
X125001604Y-102080938D01*
X123979062Y-101058396D01*
X122643046Y-100505000D01*
X121196954Y-100505000D01*
X119860938Y-101058396D01*
X118838396Y-102080938D01*
X118285000Y-103416954D01*
X115395000Y-103416954D01*
X114841604Y-102080938D01*
X113819062Y-101058396D01*
X112483046Y-100505000D01*
X111036954Y-100505000D01*
X109700938Y-101058396D01*
X108678396Y-102080938D01*
X108125000Y-103416954D01*
X107644000Y-103416954D01*
X107644000Y-98075750D01*
X115355000Y-98075750D01*
X115355000Y-98766309D01*
X115451673Y-98999698D01*
X115630301Y-99178327D01*
X115863690Y-99275000D01*
X116554250Y-99275000D01*
X116713000Y-99116250D01*
X116713000Y-97917000D01*
X115513750Y-97917000D01*
X115355000Y-98075750D01*
X107644000Y-98075750D01*
X107644000Y-96813691D01*
X115355000Y-96813691D01*
X115355000Y-97504250D01*
X115513750Y-97663000D01*
X116713000Y-97663000D01*
X116713000Y-95377000D01*
X115519181Y-95377000D01*
X115398514Y-95606892D01*
X115644817Y-96131358D01*
X115844208Y-96313070D01*
X115630301Y-96401673D01*
X115451673Y-96580302D01*
X115355000Y-96813691D01*
X107644000Y-96813691D01*
X107644000Y-94893108D01*
X115398514Y-94893108D01*
X115519181Y-95123000D01*
X116713000Y-95123000D01*
X116713000Y-93929845D01*
X116967000Y-93929845D01*
X116967000Y-95123000D01*
X116987000Y-95123000D01*
X116987000Y-95377000D01*
X116967000Y-95377000D01*
X116967000Y-97663000D01*
X116987000Y-97663000D01*
X116987000Y-97917000D01*
X116967000Y-97917000D01*
X116967000Y-99116250D01*
X117125750Y-99275000D01*
X117816310Y-99275000D01*
X118049699Y-99178327D01*
X118228327Y-98999698D01*
X118294904Y-98838967D01*
X118309375Y-98860625D01*
X118800582Y-99188839D01*
X119233744Y-99275000D01*
X119526256Y-99275000D01*
X119959418Y-99188839D01*
X120450625Y-98860625D01*
X120663843Y-98541522D01*
X120724817Y-98671358D01*
X121153076Y-99061645D01*
X121563110Y-99231476D01*
X121793000Y-99110155D01*
X121793000Y-97917000D01*
X122047000Y-97917000D01*
X122047000Y-99110155D01*
X122276890Y-99231476D01*
X122686924Y-99061645D01*
X123115183Y-98671358D01*
X123361486Y-98146892D01*
X123240819Y-97917000D01*
X122047000Y-97917000D01*
X121793000Y-97917000D01*
X121773000Y-97917000D01*
X121773000Y-97663000D01*
X121793000Y-97663000D01*
X121793000Y-95377000D01*
X122047000Y-95377000D01*
X122047000Y-97663000D01*
X123240819Y-97663000D01*
X123361486Y-97433108D01*
X123115183Y-96908642D01*
X122688729Y-96520000D01*
X123115183Y-96131358D01*
X123361486Y-95606892D01*
X123240819Y-95377000D01*
X122047000Y-95377000D01*
X121793000Y-95377000D01*
X121773000Y-95377000D01*
X121773000Y-95123000D01*
X121793000Y-95123000D01*
X121793000Y-93929845D01*
X122047000Y-93929845D01*
X122047000Y-95123000D01*
X123240819Y-95123000D01*
X123361486Y-94893108D01*
X123115183Y-94368642D01*
X122686924Y-93978355D01*
X122276890Y-93808524D01*
X122047000Y-93929845D01*
X121793000Y-93929845D01*
X121563110Y-93808524D01*
X121153076Y-93978355D01*
X120724817Y-94368642D01*
X120663843Y-94498478D01*
X120450625Y-94179375D01*
X119959418Y-93851161D01*
X119526256Y-93765000D01*
X119233744Y-93765000D01*
X118800582Y-93851161D01*
X118309375Y-94179375D01*
X118096157Y-94498478D01*
X118035183Y-94368642D01*
X117606924Y-93978355D01*
X117196890Y-93808524D01*
X116967000Y-93929845D01*
X116713000Y-93929845D01*
X116483110Y-93808524D01*
X116073076Y-93978355D01*
X115644817Y-94368642D01*
X115398514Y-94893108D01*
X107644000Y-94893108D01*
X107644000Y-86716890D01*
X107778524Y-86716890D01*
X107948355Y-87126924D01*
X108338642Y-87555183D01*
X108863108Y-87801486D01*
X109093000Y-87680819D01*
X109093000Y-86487000D01*
X109347000Y-86487000D01*
X109347000Y-87680819D01*
X109576892Y-87801486D01*
X110101358Y-87555183D01*
X110283070Y-87355792D01*
X110371673Y-87569699D01*
X110550302Y-87748327D01*
X110783691Y-87845000D01*
X111474250Y-87845000D01*
X111633000Y-87686250D01*
X111633000Y-86487000D01*
X111887000Y-86487000D01*
X111887000Y-87686250D01*
X112045750Y-87845000D01*
X112736309Y-87845000D01*
X112969698Y-87748327D01*
X113148327Y-87569699D01*
X113245000Y-87336310D01*
X113245000Y-86645750D01*
X113086250Y-86487000D01*
X111887000Y-86487000D01*
X111633000Y-86487000D01*
X109347000Y-86487000D01*
X109093000Y-86487000D01*
X107899845Y-86487000D01*
X107778524Y-86716890D01*
X107644000Y-86716890D01*
X107644000Y-83820000D01*
X107705908Y-83820000D01*
X107821161Y-84399418D01*
X108149375Y-84890625D01*
X108468478Y-85103843D01*
X108338642Y-85164817D01*
X107948355Y-85593076D01*
X107778524Y-86003110D01*
X107899845Y-86233000D01*
X109093000Y-86233000D01*
X109093000Y-86213000D01*
X109347000Y-86213000D01*
X109347000Y-86233000D01*
X111633000Y-86233000D01*
X111633000Y-86213000D01*
X111887000Y-86213000D01*
X111887000Y-86233000D01*
X113086250Y-86233000D01*
X113245000Y-86074250D01*
X113245000Y-85383690D01*
X113148327Y-85150301D01*
X112969698Y-84971673D01*
X112808967Y-84905096D01*
X112830625Y-84890625D01*
X113158839Y-84399418D01*
X113274092Y-83820000D01*
X113158839Y-83240582D01*
X112830625Y-82749375D01*
X112511522Y-82536157D01*
X112641358Y-82475183D01*
X113031645Y-82046924D01*
X113201476Y-81636890D01*
X113080155Y-81407000D01*
X111887000Y-81407000D01*
X111887000Y-81427000D01*
X111633000Y-81427000D01*
X111633000Y-81407000D01*
X109347000Y-81407000D01*
X109347000Y-81427000D01*
X109093000Y-81427000D01*
X109093000Y-81407000D01*
X107899845Y-81407000D01*
X107778524Y-81636890D01*
X107948355Y-82046924D01*
X108338642Y-82475183D01*
X108468478Y-82536157D01*
X108149375Y-82749375D01*
X107821161Y-83240582D01*
X107705908Y-83820000D01*
X107644000Y-83820000D01*
X107644000Y-80923110D01*
X107778524Y-80923110D01*
X107899845Y-81153000D01*
X109093000Y-81153000D01*
X109093000Y-79959181D01*
X109347000Y-79959181D01*
X109347000Y-81153000D01*
X111633000Y-81153000D01*
X111633000Y-79959181D01*
X111887000Y-79959181D01*
X111887000Y-81153000D01*
X113080155Y-81153000D01*
X113201476Y-80923110D01*
X113158822Y-80820126D01*
X116932973Y-80820126D01*
X116932973Y-81231874D01*
X117090542Y-81612280D01*
X117381693Y-81903431D01*
X117762099Y-82061000D01*
X118173847Y-82061000D01*
X118535980Y-81911000D01*
X121299422Y-81911000D01*
X122416569Y-83028148D01*
X122566569Y-83390280D01*
X122857720Y-83681431D01*
X123238126Y-83839000D01*
X123649874Y-83839000D01*
X124030280Y-83681431D01*
X124321431Y-83390280D01*
X124479000Y-83009874D01*
X124479000Y-82598126D01*
X124321431Y-82217720D01*
X124030280Y-81926569D01*
X123668148Y-81776569D01*
X122353425Y-80461847D01*
X122304049Y-80387951D01*
X122011310Y-80192348D01*
X121753165Y-80141000D01*
X121753161Y-80141000D01*
X121666000Y-80123663D01*
X121578839Y-80141000D01*
X118535980Y-80141000D01*
X118173847Y-79991000D01*
X117762099Y-79991000D01*
X117381693Y-80148569D01*
X117090542Y-80439720D01*
X116932973Y-80820126D01*
X113158822Y-80820126D01*
X113031645Y-80513076D01*
X112641358Y-80084817D01*
X112116892Y-79838514D01*
X111887000Y-79959181D01*
X111633000Y-79959181D01*
X111403108Y-79838514D01*
X110878642Y-80084817D01*
X110490000Y-80511271D01*
X110101358Y-80084817D01*
X109576892Y-79838514D01*
X109347000Y-79959181D01*
X109093000Y-79959181D01*
X108863108Y-79838514D01*
X108338642Y-80084817D01*
X107948355Y-80513076D01*
X107778524Y-80923110D01*
X107644000Y-80923110D01*
X107644000Y-72675750D01*
X115355000Y-72675750D01*
X115355000Y-73366309D01*
X115451673Y-73599698D01*
X115630301Y-73778327D01*
X115863690Y-73875000D01*
X116554250Y-73875000D01*
X116713000Y-73716250D01*
X116713000Y-72517000D01*
X115513750Y-72517000D01*
X115355000Y-72675750D01*
X107644000Y-72675750D01*
X107644000Y-71413691D01*
X115355000Y-71413691D01*
X115355000Y-72104250D01*
X115513750Y-72263000D01*
X116713000Y-72263000D01*
X116713000Y-69977000D01*
X115519181Y-69977000D01*
X115398514Y-70206892D01*
X115644817Y-70731358D01*
X115844208Y-70913070D01*
X115630301Y-71001673D01*
X115451673Y-71180302D01*
X115355000Y-71413691D01*
X107644000Y-71413691D01*
X107644000Y-69493108D01*
X115398514Y-69493108D01*
X115519181Y-69723000D01*
X116713000Y-69723000D01*
X116713000Y-68529845D01*
X116967000Y-68529845D01*
X116967000Y-69723000D01*
X116987000Y-69723000D01*
X116987000Y-69977000D01*
X116967000Y-69977000D01*
X116967000Y-72263000D01*
X116987000Y-72263000D01*
X116987000Y-72517000D01*
X116967000Y-72517000D01*
X116967000Y-73716250D01*
X117125750Y-73875000D01*
X117816310Y-73875000D01*
X118049699Y-73778327D01*
X118228327Y-73599698D01*
X118294904Y-73438967D01*
X118309375Y-73460625D01*
X118800582Y-73788839D01*
X119233744Y-73875000D01*
X119526256Y-73875000D01*
X119959418Y-73788839D01*
X120450625Y-73460625D01*
X120663843Y-73141522D01*
X120724817Y-73271358D01*
X121153076Y-73661645D01*
X121563110Y-73831476D01*
X121793000Y-73710155D01*
X121793000Y-72517000D01*
X122047000Y-72517000D01*
X122047000Y-73710155D01*
X122276890Y-73831476D01*
X122686924Y-73661645D01*
X123115183Y-73271358D01*
X123361486Y-72746892D01*
X123240819Y-72517000D01*
X122047000Y-72517000D01*
X121793000Y-72517000D01*
X121773000Y-72517000D01*
X121773000Y-72263000D01*
X121793000Y-72263000D01*
X121793000Y-69977000D01*
X122047000Y-69977000D01*
X122047000Y-72263000D01*
X123240819Y-72263000D01*
X123361486Y-72033108D01*
X123115183Y-71508642D01*
X122688729Y-71120000D01*
X123115183Y-70731358D01*
X123361486Y-70206892D01*
X123240819Y-69977000D01*
X122047000Y-69977000D01*
X121793000Y-69977000D01*
X121773000Y-69977000D01*
X121773000Y-69723000D01*
X121793000Y-69723000D01*
X121793000Y-68529845D01*
X122047000Y-68529845D01*
X122047000Y-69723000D01*
X123240819Y-69723000D01*
X123361486Y-69493108D01*
X123115183Y-68968642D01*
X122686924Y-68578355D01*
X122276890Y-68408524D01*
X122047000Y-68529845D01*
X121793000Y-68529845D01*
X121563110Y-68408524D01*
X121153076Y-68578355D01*
X120724817Y-68968642D01*
X120663843Y-69098478D01*
X120450625Y-68779375D01*
X119959418Y-68451161D01*
X119526256Y-68365000D01*
X119233744Y-68365000D01*
X118800582Y-68451161D01*
X118309375Y-68779375D01*
X118096157Y-69098478D01*
X118035183Y-68968642D01*
X117606924Y-68578355D01*
X117196890Y-68408524D01*
X116967000Y-68529845D01*
X116713000Y-68529845D01*
X116483110Y-68408524D01*
X116073076Y-68578355D01*
X115644817Y-68968642D01*
X115398514Y-69493108D01*
X107644000Y-69493108D01*
X107644000Y-62776954D01*
X108125000Y-62776954D01*
X108125000Y-64223046D01*
X108678396Y-65559062D01*
X109700938Y-66581604D01*
X111036954Y-67135000D01*
X112483046Y-67135000D01*
X113819062Y-66581604D01*
X114841604Y-65559062D01*
X115395000Y-64223046D01*
X115395000Y-62776954D01*
X118285000Y-62776954D01*
X118285000Y-64223046D01*
X118838396Y-65559062D01*
X119860938Y-66581604D01*
X121196954Y-67135000D01*
X122643046Y-67135000D01*
X123979062Y-66581604D01*
X125001604Y-65559062D01*
X125555000Y-64223046D01*
X125555000Y-62776954D01*
X125001604Y-61440938D01*
X123979062Y-60418396D01*
X122643046Y-59865000D01*
X121196954Y-59865000D01*
X119860938Y-60418396D01*
X118838396Y-61440938D01*
X118285000Y-62776954D01*
X115395000Y-62776954D01*
X114841604Y-61440938D01*
X113819062Y-60418396D01*
X112483046Y-59865000D01*
X111036954Y-59865000D01*
X109700938Y-60418396D01*
X108678396Y-61440938D01*
X108125000Y-62776954D01*
X107644000Y-62776954D01*
X107644000Y-59384000D01*
X126036000Y-59384000D01*
X126036001Y-98736070D01*
G04 #@! TD*
M02*
